<svg width="227" height="80" viewBox="0 0 227 80" fill="none" xmlns="http://www.w3.org/2000/svg">
<g clip-path="url(#clip0_7322_16639)">
<path fill-rule="evenodd" clip-rule="evenodd" d="M117.702 14.2779H132.093C134.284 14.3539 135.193 14.5779 135.193 16.9979C135.193 19.4529 134.438 19.7179 132.093 19.7179H117.702V14.2789V14.2779ZM136.059 23.3049C139.61 23.3049 141.649 21.0759 141.649 19.1879V14.8069C141.649 12.9179 139.609 10.7279 136.059 10.7279H115.889C117.042 10.1792 117.975 9.25455 118.533 8.10574C119.092 6.95694 119.243 5.65237 118.961 4.40642C118.68 3.16046 117.983 2.04723 116.986 1.24965C115.988 0.452066 114.749 0.0175781 113.472 0.0175781C112.194 0.0175781 110.955 0.452066 109.957 1.24965C108.96 2.04723 108.263 3.16046 107.982 4.40642C107.7 5.65237 107.851 6.95694 108.41 8.10574C108.968 9.25455 109.901 10.1792 111.054 10.7279H109.317V19.7549H98.023L106.446 14.2779V10.7269H85.332V14.2779H93.755L85.332 19.7549V23.3059H109.279V48.5749C104.485 48.0427 99.8939 46.3438 95.9081 43.6269H99.4211V37.4699H85.332V45.7799C94.548 53.1449 107.164 53.1449 113.51 57.1109C116.645 55.1469 121.366 54.1649 126.428 52.7299C131.565 51.3299 136.966 49.4819 141.499 45.7799V37.4699H127.599V43.6269H131.112C129.616 44.5966 128.05 45.4549 126.428 46.1949C123.68 47.4513 120.746 48.2551 117.741 48.5749V23.3049H136.059Z" fill="black"/>
<path fill-rule="evenodd" clip-rule="evenodd" d="M226.629 79.6597V76.9397H222.474V73.9937H226.327V71.3117H222.474V68.8567H226.629V66.2887H219.339V79.6597H226.629ZM217.186 66.2887H214.051V79.6597H217.186V66.2887ZM212.011 75.1267V74.4467H208.952V75.0467C208.962 75.5027 208.924 75.9585 208.839 76.4067C208.792 76.7017 208.66 76.977 208.461 77.1997C208.235 77.3763 207.955 77.4695 207.668 77.4637C207.531 77.4756 207.392 77.4583 207.262 77.4128C207.132 77.3672 207.013 77.2946 206.913 77.1997C206.714 76.977 206.582 76.7018 206.535 76.4067C206.456 75.9436 206.405 75.476 206.384 75.0067C206.384 74.4397 206.346 73.7607 206.346 72.9667V72.7027C206.346 71.9847 206.346 71.3427 206.384 70.8137C206.386 70.3688 206.436 69.9255 206.535 69.4917C206.59 69.2102 206.72 68.9492 206.913 68.7367C207.124 68.5602 207.393 68.4663 207.668 68.4727C207.806 68.4572 207.945 68.4729 208.076 68.5186C208.206 68.5643 208.325 68.6389 208.423 68.7367C208.634 68.9559 208.778 69.2311 208.838 69.5297C208.921 69.9915 208.959 70.4604 208.951 70.9297H211.973V70.8167C212.069 69.5134 211.677 68.221 210.873 67.1907C210.447 66.7616 209.932 66.4311 209.364 66.2222C208.796 66.0133 208.19 65.9312 207.587 65.9817C206.831 65.9588 206.081 66.1139 205.396 66.4347C204.789 66.7264 204.278 67.185 203.923 67.7567C203.686 68.1391 203.519 68.5612 203.432 69.0027C203.309 69.5749 203.234 70.1562 203.205 70.7407C203.167 71.4207 203.167 72.1757 203.167 73.0067C203.167 73.8377 203.167 74.5927 203.205 75.2727C203.231 75.8571 203.307 76.4382 203.432 77.0097C203.519 77.4512 203.686 77.8733 203.923 78.2557C204.283 78.8375 204.809 79.2981 205.434 79.5777C206.135 79.8849 206.898 80.0269 207.663 79.9927C208.512 80.0175 209.355 79.836 210.118 79.4637C210.761 79.111 211.266 78.5524 211.553 77.8777C211.878 76.9958 212.032 76.0601 212.006 75.1207M201.77 75.8007C201.783 75.3676 201.732 74.935 201.619 74.5167C201.514 74.158 201.362 73.8149 201.166 73.4967C200.994 73.2225 200.777 72.9797 200.524 72.7787C200.261 72.5467 199.984 72.3322 199.693 72.1367C199.393 71.9477 199.051 71.7217 198.711 71.4947C198.411 71.3057 198.144 71.1547 197.918 71.0037C197.705 70.871 197.504 70.7194 197.318 70.5507C197.15 70.4149 197.009 70.2483 196.903 70.0597C196.809 69.8584 196.757 69.6398 196.752 69.4177C196.746 69.1983 196.784 68.9799 196.865 68.7757C196.925 68.6103 197.047 68.4746 197.205 68.3977C197.354 68.3083 197.523 68.2564 197.696 68.2467C197.857 68.2433 198.016 68.2836 198.155 68.3634C198.295 68.4432 198.41 68.5594 198.489 68.6997C198.693 69.1089 198.785 69.5654 198.753 70.0217V70.1727H201.586V69.7197C201.623 69.2024 201.552 68.6831 201.376 68.1952C201.2 67.7073 200.924 67.2615 200.566 66.8867C199.737 66.1833 198.667 65.831 197.582 65.9047C196.875 65.8849 196.174 66.0405 195.542 66.3577C194.989 66.6525 194.531 67.0976 194.22 67.6417C193.903 68.2738 193.747 68.9747 193.767 69.6817C193.757 70.1272 193.808 70.572 193.918 71.0037C194.019 71.3953 194.185 71.7672 194.409 72.1037C194.579 72.3441 194.781 72.5601 195.009 72.7457C195.272 72.9778 195.549 73.1923 195.84 73.3877C196.14 73.6147 196.52 73.8407 196.898 74.1057C197.136 74.239 197.363 74.3904 197.578 74.5587C197.805 74.7097 197.956 74.8587 198.145 74.9737C198.318 75.1291 198.452 75.3226 198.537 75.5388C198.622 75.7551 198.656 75.9882 198.636 76.2197C198.653 76.5602 198.547 76.8955 198.336 77.1637C198.239 77.2774 198.117 77.3671 197.979 77.4261C197.842 77.485 197.692 77.5116 197.543 77.5037C197.42 77.5131 197.297 77.4978 197.18 77.4588C197.063 77.4198 196.956 77.3579 196.863 77.2767C196.677 77.0944 196.557 76.855 196.523 76.5967C196.44 76.2249 196.402 75.8445 196.41 75.4637V75.0477H193.539C193.545 75.1749 193.532 75.3023 193.501 75.4257V75.8037C193.422 76.9307 193.788 78.0438 194.521 78.9037C194.937 79.2691 195.422 79.5476 195.948 79.7227C196.473 79.8979 197.029 79.9662 197.581 79.9237C198.342 79.9536 199.097 79.7844 199.772 79.4327C200.359 79.1171 200.834 78.6282 201.132 78.0327C201.585 77.3804 201.811 76.597 201.774 75.8037M200.34 62.7007H197.772L196.752 65.1557H198.452L200.34 62.7007ZM191.917 75.0897V66.2897H188.782V76.3367C188.79 76.564 188.778 76.7917 188.744 77.0167C188.737 77.1745 188.669 77.3235 188.555 77.4327C188.503 77.4898 188.439 77.5335 188.366 77.5598C188.294 77.5862 188.216 77.5943 188.14 77.5837C188.041 77.5918 187.943 77.5712 187.855 77.5244C187.768 77.4775 187.697 77.4064 187.649 77.3197C187.533 77.0708 187.469 76.801 187.46 76.5267C187.422 76.1487 187.422 75.6957 187.422 75.1267H184.551V75.8067C184.516 76.6173 184.644 77.4268 184.929 78.1867C185.15 78.7643 185.582 79.2366 186.138 79.5087C186.824 79.8238 187.576 79.9666 188.329 79.9247C188.992 79.9497 189.651 79.8203 190.255 79.5467C190.762 79.328 191.176 78.9389 191.426 78.4467C191.565 78.172 191.666 77.8797 191.726 77.5777C191.8 77.2035 191.85 76.8251 191.877 76.4447C191.915 76.0667 191.915 75.5757 191.915 75.0847M183.341 74.8207V66.2847H180.206V75.9537C180.214 76.235 180.175 76.5156 180.093 76.7847C180.048 76.9764 179.943 77.1486 179.793 77.2757C179.615 77.3909 179.404 77.444 179.193 77.4267C178.97 77.4451 178.748 77.3826 178.568 77.2508C178.388 77.1189 178.261 76.9264 178.211 76.7087C178.129 76.4266 178.091 76.1335 178.098 75.8397C178.098 75.4997 178.06 75.0847 178.06 74.6307V66.2457H174.887V73.4597C174.887 74.1777 174.887 74.8597 174.925 75.4597C174.942 75.9929 175.005 76.5235 175.114 77.0457C175.189 77.4794 175.329 77.8995 175.529 78.2917C175.733 78.6636 176.017 78.9859 176.36 79.2357C176.716 79.4791 177.113 79.6581 177.531 79.7647C178.039 79.8785 178.559 79.9293 179.08 79.9157C179.881 79.9372 180.678 79.7957 181.422 79.4997C182.03 79.2384 182.526 78.77 182.822 78.1777C182.987 77.8666 183.114 77.5369 183.2 77.1957C183.274 76.8215 183.324 76.4431 183.351 76.0627C183.351 75.6847 183.351 75.2693 183.351 74.8167M169.829 74.1747C169.829 74.7417 169.829 75.1947 169.791 75.6097C169.789 75.9551 169.739 76.2986 169.64 76.6297C169.592 76.8695 169.458 77.0833 169.262 77.2297C169.041 77.3804 168.773 77.4474 168.507 77.4187C168.254 77.4298 168.004 77.3639 167.789 77.2297C167.601 77.0763 167.468 76.8656 167.411 76.6297C167.331 76.2947 167.28 75.9534 167.26 75.6097C167.222 75.1947 167.222 74.7037 167.222 74.1747V71.7577C167.222 71.2287 167.222 70.7377 167.26 70.3227C167.262 69.9772 167.313 69.6338 167.411 69.3027C167.459 69.0629 167.593 68.8492 167.789 68.7027C167.998 68.5566 168.253 68.4896 168.507 68.5137C168.772 68.5034 169.033 68.569 169.262 68.7027C169.45 68.8561 169.583 69.0668 169.64 69.3027C169.72 69.6376 169.771 69.9789 169.791 70.3227C169.791 70.7387 169.829 71.2287 169.791 71.7577V74.1747H169.829ZM173.002 72.9657C173.002 72.1347 173.002 71.3797 172.964 70.6997C172.938 70.1153 172.862 69.5341 172.737 68.9627C172.65 68.5212 172.483 68.0991 172.246 67.7167C171.886 67.1348 171.36 66.6743 170.735 66.3947C170.034 66.0875 169.271 65.9455 168.506 65.9797C167.742 65.9642 166.984 66.1054 166.277 66.3947C165.659 66.6849 165.136 67.143 164.766 67.7167C164.529 68.0991 164.362 68.5212 164.275 68.9627C164.152 69.5346 164.077 70.1155 164.048 70.6997C164.01 71.3797 164.01 72.1347 164.01 72.9657C164.01 73.7967 164.01 74.5517 164.048 75.2317C164.074 75.8161 164.15 76.3972 164.275 76.9687C164.362 77.4105 164.529 77.833 164.766 78.2157C165.126 78.7976 165.652 79.2581 166.277 79.5377C166.978 79.8452 167.741 79.9875 168.506 79.9537C169.269 79.9652 170.027 79.8237 170.735 79.5377C171.256 79.2992 171.71 78.9371 172.058 78.4829C172.407 78.0287 172.639 77.4962 172.735 76.9317C172.858 76.3598 172.933 75.7789 172.962 75.1947C173 74.5527 173 73.7947 173 72.9657M162.122 79.6517V66.2887H159.322V68.3657C159.322 69.0837 159.36 69.9897 159.398 71.0097C159.436 72.0297 159.511 73.2007 159.625 74.5227L157.019 66.2887H153.771V79.6597H156.571V77.3937C156.567 75.3118 156.453 73.2316 156.231 71.1617L158.837 79.6617L162.122 79.6517ZM151.622 66.2807H148.48V79.6517H151.615L151.622 66.2807ZM147.429 66.2807H144.294L143.576 72.8147C143.538 73.1927 143.5 73.6077 143.425 74.1367C143.387 74.6277 143.312 75.2367 143.274 75.8737C143.199 75.1184 143.123 74.4764 143.047 73.9477C142.971 73.4187 142.934 73.0407 142.896 72.7387L141.952 66.2797H138.81L137.828 72.7797C137.752 73.3087 137.677 73.7997 137.601 74.3287C137.563 74.8577 137.488 75.3487 137.45 75.8777C137.412 75.4244 137.374 74.9334 137.337 74.4047C137.299 73.8757 137.224 73.3467 137.148 72.7807L136.43 66.2807H133.3L135.982 79.6517H139.382L140.062 74.1367C140.138 73.6077 140.175 73.0787 140.251 72.5127C140.289 71.9837 140.327 71.4127 140.364 70.9267C140.402 71.5687 140.477 72.1357 140.515 72.6637C140.553 73.1917 140.628 73.6837 140.666 74.1367L141.421 79.6517H144.821L147.429 66.2807ZM132.429 75.7987C132.442 75.3656 132.391 74.933 132.278 74.5147C132.19 74.1502 132.036 73.8047 131.825 73.4947C131.657 73.2302 131.455 72.9888 131.225 72.7767C130.962 72.5446 130.685 72.3302 130.394 72.1347C130.094 71.9457 129.752 71.7197 129.412 71.4927C129.112 71.3037 128.845 71.1527 128.619 71.0017C128.406 70.8689 128.205 70.7173 128.019 70.5487C127.851 70.4129 127.71 70.2463 127.604 70.0577C127.51 69.8564 127.458 69.6378 127.453 69.4157C127.447 69.1963 127.485 68.9779 127.566 68.7737C127.626 68.6082 127.748 68.4726 127.906 68.3957C128.055 68.3063 128.224 68.2544 128.397 68.2447C128.558 68.2413 128.717 68.2816 128.856 68.3614C128.996 68.4412 129.111 68.5574 129.19 68.6977C129.394 69.1069 129.486 69.5634 129.454 70.0197V70.1707H132.287V69.7177C132.324 69.2004 132.253 68.6811 132.077 68.1931C131.901 67.7052 131.625 67.2595 131.267 66.8847C130.438 66.1812 129.368 65.8289 128.283 65.9027C127.576 65.8828 126.875 66.0385 126.243 66.3557C125.682 66.6398 125.221 67.0876 124.921 67.6397C124.604 68.2718 124.448 68.9727 124.468 69.6797C124.477 70.1241 124.527 70.5667 124.619 71.0017C124.72 71.3933 124.886 71.7652 125.11 72.1017C125.28 72.3421 125.482 72.5581 125.71 72.7437C125.974 72.9707 126.239 73.1587 126.541 73.3857C126.843 73.6127 127.221 73.8387 127.599 74.1037C127.837 74.237 128.064 74.3884 128.279 74.5567C128.506 74.7077 128.694 74.8567 128.846 74.9717C129.019 75.1271 129.153 75.3206 129.238 75.5368C129.323 75.7531 129.357 75.9862 129.337 76.2177C129.354 76.5582 129.248 76.8935 129.037 77.1617C128.94 77.2753 128.818 77.3651 128.68 77.4241C128.543 77.483 128.393 77.5096 128.244 77.5017C128.121 77.5111 127.998 77.4959 127.881 77.4569C127.764 77.4179 127.656 77.356 127.564 77.2747C127.379 77.0864 127.248 76.8514 127.186 76.5947C127.103 76.2229 127.065 75.8425 127.073 75.4617V75.0457H124.202C124.208 75.1729 124.195 75.3003 124.164 75.4237V75.8017C124.085 76.9287 124.451 78.0418 125.184 78.9017C125.6 79.267 126.085 79.5454 126.611 79.7205C127.136 79.8957 127.691 79.9641 128.243 79.9217C129.004 79.9516 129.759 79.7824 130.434 79.4307C131.021 79.1151 131.496 78.6262 131.794 78.0307C132.264 77.3864 132.491 76.5971 132.436 75.8017M130.992 62.7007H128.424L127.404 65.1557H129.104L130.992 62.7007ZM122.947 71.6767H117.547V74.3587H122.947V71.6767ZM115.695 79.6597V66.2887H112.895V68.3657C112.895 69.0837 112.933 69.9897 112.971 71.0097C113.009 72.0297 113.084 73.2007 113.198 74.5227L110.592 66.2887H107.344V79.6597H110.144V77.3937C110.14 75.3118 110.026 73.2316 109.804 71.1617L112.41 79.6617L115.695 79.6597ZM105.195 66.2887H102.06V79.6597H105.195V66.2887ZM100.02 75.1267V74.4467H96.96V75.0467C96.97 75.5027 96.9322 75.9585 96.847 76.4067C96.7995 76.7017 96.6683 76.977 96.469 77.1997C96.2429 77.3763 95.9628 77.4695 95.676 77.4637C95.5386 77.4756 95.4003 77.4583 95.2701 77.4128C95.14 77.3672 95.021 77.2946 94.921 77.1997C94.7217 76.977 94.5905 76.7017 94.543 76.4067C94.4636 75.9436 94.4131 75.476 94.392 75.0067C94.392 74.4397 94.354 73.7607 94.392 72.9667V70.8137C94.4127 70.3701 94.4631 69.9285 94.543 69.4917C94.5977 69.2102 94.7285 68.9492 94.921 68.7367C95.1324 68.5602 95.4007 68.4663 95.676 68.4727C95.8134 68.4607 95.9517 68.4781 96.0818 68.5236C96.212 68.5691 96.331 68.6418 96.431 68.7367C96.6423 68.9559 96.7863 69.2311 96.846 69.5297C96.9293 69.9915 96.9671 70.4605 96.959 70.9297H99.981V70.8167C100.077 69.5134 99.6849 68.221 98.881 67.1907C98.4568 66.7587 97.942 66.4261 97.3738 66.2171C96.8056 66.008 96.198 65.9276 95.595 65.9817C94.8392 65.9587 94.0887 66.1139 93.404 66.4347C92.7973 66.7264 92.2864 67.185 91.931 67.7567C91.6937 68.1391 91.5274 68.5612 91.44 69.0027C91.3174 69.5749 91.2415 70.1562 91.213 70.7407C91.175 71.4207 91.175 72.1757 91.175 73.0067C91.175 73.8377 91.175 74.5927 91.213 75.2727C91.239 75.8571 91.315 76.4382 91.44 77.0097C91.5274 77.4512 91.6937 77.8733 91.931 78.2557C92.2911 78.8375 92.8175 79.2981 93.442 79.5777C94.1434 79.8849 94.906 80.0269 95.671 79.9927C96.5201 80.0175 97.3625 79.836 98.126 79.4637C98.7687 79.111 99.2742 78.5524 99.561 77.8777C99.8859 76.9958 100.04 76.0601 100.014 75.1207M89.551 79.6537V76.9337H85.4V73.9877H89.253V71.3057H85.363V68.8507H89.518V66.2827H82.228V79.6537H89.551ZM80.599 79.6537V76.9337H76.3L80.417 68.6237V66.2817H73.2V68.8497H76.94L72.861 77.1597V79.6527L80.599 79.6537ZM71.345 75.1207V74.4407H68.285V75.0407C68.295 75.4967 68.2572 75.9526 68.172 76.4007C68.1275 76.6976 67.9983 76.9753 67.8 77.2007C67.5739 77.3773 67.2938 77.4705 67.007 77.4647C66.8696 77.4766 66.7313 77.4593 66.6012 77.4138C66.471 77.3682 66.352 77.2956 66.252 77.2007C66.0527 76.978 65.9215 76.7028 65.874 76.4077C65.7946 75.9446 65.7441 75.477 65.723 75.0077C65.723 74.4407 65.685 73.7617 65.723 72.9677V72.7037C65.723 71.9857 65.723 71.3437 65.761 70.8147C65.7628 70.3698 65.8134 69.9265 65.912 69.4927C65.9667 69.2112 66.0975 68.9501 66.29 68.7377C66.5014 68.5612 66.7697 68.4674 67.045 68.4737C67.1824 68.4618 67.3207 68.4791 67.4509 68.5246C67.581 68.5701 67.7 68.6427 67.8 68.7377C68.0113 68.9569 68.1553 69.2321 68.215 69.5307C68.2983 69.9925 68.3361 70.4615 68.328 70.9307H71.35V70.8177C71.4459 69.5144 71.0539 68.222 70.25 67.1917C69.8258 66.7597 69.311 66.4271 68.7428 66.2181C68.1746 66.009 67.567 65.9286 66.964 65.9827C66.2082 65.9598 65.4577 66.1149 64.773 66.4357C64.1663 66.7274 63.6554 67.186 63.3 67.7577C63.0627 68.1401 62.8964 68.5622 62.809 69.0037C62.6864 69.5759 62.6105 70.1571 62.582 70.7417C62.544 71.4217 62.544 72.1767 62.544 73.0077C62.544 73.8387 62.544 74.5937 62.582 75.2737C62.608 75.8581 62.684 76.4392 62.809 77.0107C62.8963 77.4522 63.0627 77.8743 63.3 78.2567C63.6601 78.8386 64.1864 79.269 64.811 79.5787C65.5124 79.8859 66.275 80.0279 67.04 79.9937C67.8891 80.0186 68.7315 79.837 69.495 79.4647C70.1377 79.112 70.6432 78.5534 70.93 77.8787C71.2226 76.9896 71.3629 76.0565 71.345 75.1207ZM61.145 79.6547V76.9347H56.846L60.963 68.6247V66.2827H53.749V68.8507H57.488L53.409 77.1607V79.6537L61.145 79.6547ZM52.231 75.8017C52.2436 75.3686 52.1927 74.936 52.08 74.5177C51.9916 74.1532 51.8381 73.8077 51.627 73.4977C51.4592 73.2332 51.2575 72.9918 51.027 72.7797C50.763 72.5527 50.498 72.3647 50.196 72.1377C49.896 71.9487 49.554 71.7227 49.214 71.4957C48.914 71.3067 48.647 71.1557 48.421 71.0047C48.2079 70.8719 48.0071 70.7203 47.821 70.5517C47.6527 70.4159 47.5118 70.2492 47.406 70.0607C47.3118 69.8594 47.2604 69.6408 47.255 69.4187C47.249 69.1992 47.2874 68.9809 47.368 68.7767C47.4278 68.6112 47.5498 68.4756 47.708 68.3987C47.857 68.3093 48.0255 68.2574 48.199 68.2477C48.3598 68.2443 48.5185 68.2847 48.6582 68.3644C48.7979 68.4442 48.9132 68.5604 48.992 68.7007C49.1964 69.1099 49.2875 69.5663 49.256 70.0227V70.1737H52.089V69.7207C52.1263 69.2034 52.0547 68.6841 51.8791 68.1961C51.7034 67.7082 51.4274 67.2625 51.069 66.8877C50.2402 66.1843 49.1696 65.8319 48.085 65.9057C47.378 65.8858 46.6771 66.0415 46.045 66.3587C45.4844 66.6428 45.0233 67.0906 44.723 67.6427C44.4058 68.2748 44.2502 68.9757 44.27 69.6827C44.2786 70.1271 44.3292 70.5697 44.421 71.0047C44.5217 71.3963 44.6877 71.7682 44.912 72.1047C45.0817 72.3451 45.2836 72.5611 45.512 72.7467C45.7745 72.9788 46.0521 73.1932 46.343 73.3887C46.643 73.6157 47.023 73.8417 47.401 74.1067C47.639 74.24 47.8663 74.3914 48.081 74.5597C48.308 74.7107 48.459 74.8597 48.648 74.9747C48.8208 75.1301 48.9551 75.3236 49.0403 75.5399C49.1255 75.7561 49.1593 75.9891 49.139 76.2207C49.1561 76.5612 49.0495 76.8965 48.839 77.1647C48.7417 77.2783 48.6196 77.3681 48.4821 77.4271C48.3446 77.486 48.1954 77.5126 48.046 77.5047C47.9232 77.5141 47.7998 77.4989 47.6831 77.4599C47.5663 77.4209 47.4585 77.359 47.366 77.2777C47.1809 77.0893 47.0502 76.8544 46.988 76.5977C46.9052 76.2259 46.8673 75.8455 46.875 75.4647V75.0487H44C44 75.1617 43.962 75.3127 43.962 75.4267V75.8047C43.8828 76.9317 44.2491 78.0448 44.982 78.9047C45.3982 79.27 45.8832 79.5484 46.4085 79.7235C46.9338 79.8987 47.4889 79.9671 48.041 79.9247C48.8016 79.9546 49.5569 79.7854 50.232 79.4337C50.8186 79.1181 51.2936 78.6292 51.592 78.0337C52.0285 77.3736 52.2526 76.5958 52.234 75.8047M38.523 68.8547V66.2867H30.255V68.8927H32.748V79.6577H35.883V68.8957H38.527L38.523 68.8547ZM25.983 70.1387C26.0128 70.4772 25.9474 70.8174 25.794 71.1207C25.7406 71.2429 25.6627 71.3529 25.5652 71.4438C25.4677 71.5348 25.3526 71.6049 25.227 71.6497C24.9051 71.7848 24.5543 71.8368 24.207 71.8007H23.829V68.5527H24.207C24.5536 68.5355 24.9002 68.5868 25.227 68.7037C25.4734 68.792 25.6778 68.9693 25.8 69.2007C25.9279 69.4988 25.9923 69.8203 25.989 70.1447M29.766 79.6627C29.564 79.5068 29.4076 79.2996 29.313 79.0627C29.1929 78.8131 29.1161 78.545 29.086 78.2697C29.039 77.9444 29.0136 77.6163 29.01 77.2877C29.01 76.9097 29.01 76.5327 28.972 76.1167C28.9682 75.7628 28.9429 75.4095 28.896 75.0587C28.8776 74.7734 28.8138 74.4929 28.707 74.2277C28.6199 73.9644 28.4634 73.7295 28.254 73.5477C28.0096 73.3247 27.7285 73.1457 27.423 73.0187C27.9545 72.7211 28.3875 72.2749 28.669 71.7347C28.9556 71.1338 29.0978 70.4743 29.084 69.8087C29.1011 69.2554 29.0114 68.7041 28.82 68.1847C28.6319 67.7284 28.3332 67.326 27.951 67.0137C27.682 66.7818 27.3562 66.6255 27.007 66.5607C26.6004 66.4495 26.1823 66.3576 25.761 66.3717C25.308 66.3337 24.779 66.3337 24.175 66.3337H20.661V79.7007H23.8V74.5147H24.442C24.7601 74.3211 25.0757 74.4001 25.349 74.5637C25.5817 74.7238 25.7439 74.9673 25.802 75.2437C25.888 75.6532 25.9259 76.0714 25.915 76.4897V77.8897C25.908 78.2048 25.9207 78.5201 25.953 78.8337C25.9817 79.1267 26.0322 79.4172 26.104 79.7027H29.768L29.766 79.6627ZM15.639 74.1857C15.639 74.7527 15.639 75.2057 15.601 75.6207C15.5994 75.9661 15.5485 76.3096 15.45 76.6407C15.4025 76.8805 15.2678 77.0943 15.072 77.2407C14.8508 77.3914 14.5831 77.4584 14.317 77.4297C14.064 77.4409 13.8137 77.375 13.599 77.2407C13.4108 77.0874 13.2781 76.8766 13.221 76.6407C13.141 76.3057 13.0905 75.9645 13.07 75.6207C13.07 75.2057 13.032 74.7147 13.032 74.1857V71.7687C13.032 71.2397 13.032 70.7487 13.07 70.3337C13.0717 69.9882 13.1225 69.6448 13.221 69.3137C13.2686 69.0739 13.4032 68.8601 13.599 68.7137C13.8084 68.5676 14.0628 68.5006 14.317 68.5247C14.5815 68.5145 14.8435 68.58 15.072 68.7137C15.2601 68.8671 15.3929 69.0778 15.45 69.3137C15.53 69.6486 15.5805 69.9899 15.601 70.3337C15.601 70.7497 15.639 71.2397 15.601 71.7687L15.639 74.1857ZM18.812 72.9767C18.812 72.1457 18.812 71.3907 18.774 70.7107C18.748 70.1263 18.672 69.5452 18.547 68.9737C18.4597 68.5322 18.2933 68.1101 18.056 67.7277C17.6959 67.1458 17.1695 66.6853 16.545 66.4057C15.8436 66.0985 15.081 65.9565 14.316 65.9907C13.5524 65.9752 12.7938 66.1164 12.087 66.4057C11.4693 66.6958 10.9457 67.154 10.576 67.7277C10.3387 68.1101 10.1723 68.5322 10.085 68.9737C9.96249 69.5456 9.88657 70.1265 9.858 70.7107C9.82 71.3907 9.82 72.1457 9.82 72.9767C9.82 73.8077 9.82 74.5627 9.858 75.2427C9.88402 75.8271 9.95996 76.4082 10.085 76.9797C10.1722 77.4215 10.3386 77.844 10.576 78.2267C10.9361 78.8086 11.4625 79.269 12.087 79.5487C12.7883 79.8562 13.5509 79.9986 14.316 79.9647C15.0793 79.9762 15.8372 79.8347 16.545 79.5487C17.0655 79.3102 17.5199 78.9481 17.8685 78.4939C18.2171 78.0397 18.4493 77.5072 18.545 76.9427C18.6678 76.3691 18.7437 75.7865 18.772 75.2007C18.81 74.5587 18.81 73.8007 18.81 72.9717M5.326 70.1717C5.36194 70.6841 5.21488 71.1926 4.911 71.6067C4.72594 71.769 4.51029 71.8927 4.27674 71.9705C4.04319 72.0483 3.79644 72.0786 3.551 72.0597H3.173V68.6977H3.4C3.7728 68.6807 4.14557 68.7319 4.5 68.8487C4.7632 68.9354 4.98942 69.1084 5.142 69.3397C5.27495 69.596 5.34002 69.8821 5.331 70.1707M8.466 70.3597C8.4746 69.6371 8.34634 68.9195 8.088 68.2447C7.86006 67.695 7.46329 67.2321 6.955 66.9227C6.63254 66.7171 6.27322 66.5762 5.897 66.5077C5.47287 66.4207 5.0442 66.3576 4.613 66.3187C4.16 66.2807 3.631 66.2807 3.064 66.2807H0V79.6517H3.135V74.5147H4.235C4.80775 74.5592 5.38361 74.4886 5.92859 74.3069C6.47356 74.1251 6.9766 73.8361 7.408 73.4567C8.14867 72.6043 8.52659 71.496 8.461 70.3687L8.466 70.3597Z" fill="black"/>
</g>
<defs>
<clipPath id="clip0_7322_16639">
<rect width="226.629" height="80" fill="white"/>
</clipPath>
</defs>
</svg>
