<svg width="170" height="72" viewBox="0 0 170 72" fill="none" xmlns="http://www.w3.org/2000/svg">
<g clip-path="url(#clip0_7322_16649)">
<path d="M35.814 71.8046C16.1411 71.831 -0.0038467 55.8955 6.87489e-07 35.9925C0.00404045 16.1044 16.1867 -0.0209467 36.213 0.197008C55.7637 0.409576 71.5982 16.2976 71.6038 35.9977C71.6094 55.8649 55.4848 71.8196 35.814 71.8046ZM68.0482 36.007C68.0946 18.4733 53.9502 3.91493 36.1355 3.74507C18.1293 3.57309 3.85662 17.9625 3.55114 35.3937C3.23354 53.5555 17.7651 68.0929 35.4591 68.261C53.6873 68.4337 68.1025 53.6515 68.0482 36.007Z" fill="black"/>
<path d="M16.4676 47.176C15.6341 47.8331 14.8173 48.477 13.9649 49.1491C13.7177 45.7715 13.4739 42.44 13.2266 39.0643C16.0025 40.4419 18.7414 41.8014 21.4909 43.1657C21.4405 43.2826 21.3351 43.3294 21.2532 43.3942C20.4966 43.9959 19.7396 44.5967 18.9761 45.1896C18.8609 45.279 18.8461 45.3296 18.9384 45.446C22.1465 49.4694 26.0399 52.5012 31.0881 53.8678C31.8972 54.0867 32.7222 54.2246 33.5506 54.3487C33.7632 54.3806 33.7614 54.2885 33.7614 54.1307C33.758 51.2521 33.7614 48.3743 33.7535 45.496C33.7532 45.2712 33.7974 45.1998 34.0381 45.2023C35.2117 45.2167 36.3853 45.215 37.5586 45.2036C37.7669 45.2019 37.8254 45.2444 37.8247 45.4631C37.8164 48.3418 37.8225 51.2202 37.8125 54.0984C37.812 54.3435 37.8764 54.3631 38.0951 54.3343C42.6016 53.7345 46.3943 51.6849 49.6989 48.6386C50.7398 47.679 51.6785 46.6268 52.5704 45.5287C52.7218 45.3423 52.7221 45.2531 52.5226 45.1013C51.7528 44.5161 50.9993 43.9098 50.2402 43.3109C50.1936 43.2742 50.1503 43.2349 50.0847 43.1793C52.8487 41.8073 55.5925 40.4456 58.3761 39.064C58.1293 42.4314 57.8855 45.765 57.6379 49.1491C56.7788 48.4716 55.9505 47.8189 55.1116 47.1575C54.5435 48.1242 53.9423 49.0558 53.285 49.9509C50.9914 53.0731 48.2403 55.686 44.804 57.5284C42.5512 58.7362 40.1564 59.5015 37.6098 59.7445C33.5912 60.1278 29.8338 59.2658 26.3277 57.2873C23.1376 55.4869 20.5549 53.0123 18.3844 50.0846C17.6968 49.1574 17.0693 48.1902 16.4676 47.176Z" fill="black"/>
<path d="M45.6815 12.1723C45.7269 12.251 45.7034 12.3371 45.7034 12.4185C45.7046 14.9795 45.7011 17.5403 45.7103 20.1014C45.7111 20.3332 45.6482 20.3795 45.4264 20.3791C39.0376 20.373 32.6494 20.373 26.2612 20.3782C26.0511 20.3782 25.9694 20.3512 25.9707 20.1069C25.9811 17.5378 25.9773 14.968 25.9773 12.3989V12.1665C26.0933 12.1829 26.1329 12.2658 26.1891 12.3217C27.7119 13.8386 29.236 15.3545 30.7511 16.8792C30.8986 17.0279 30.9677 17.0069 31.1016 16.8722C32.6171 15.3475 34.1408 13.8317 35.6544 12.3056C35.806 12.1528 35.8785 12.1298 36.0443 12.2977C37.5608 13.8334 39.0897 15.3558 40.6091 16.8888C40.7382 17.0186 40.7982 17.0319 40.9369 16.8936C42.5097 15.3185 44.0912 13.752 45.6815 12.1723Z" fill="black"/>
<path d="M37.3748 39.4339C37.5558 40.4461 37.7287 41.4207 37.9069 42.3944C37.9309 42.5237 37.9371 42.5922 37.7633 42.5912C36.4618 42.5843 35.16 42.5874 33.8581 42.5864C33.8332 42.586 33.8082 42.5774 33.7692 42.5695C33.9321 41.618 34.0901 40.6679 34.2593 39.7201C34.297 39.51 34.2857 39.4229 34.0262 39.4473C32.5024 39.5901 30.9766 39.7097 29.4522 39.8488C28.9047 39.8986 28.9061 39.9134 28.9061 39.3679C28.9061 38.417 28.914 37.4661 28.9005 36.5154C28.8974 36.2932 28.9578 36.2494 29.17 36.2688C30.7882 36.4144 32.408 36.54 34.0252 36.6936C34.2905 36.7186 34.3001 36.6432 34.2624 36.4306C34.1024 35.5305 33.9592 34.6277 33.7955 33.7284C33.7644 33.5591 33.8205 33.5475 33.9569 33.5479C35.216 33.5516 36.4751 33.5543 37.7335 33.5454C37.9336 33.5441 37.9319 33.6147 37.9024 33.7717C37.7341 34.67 37.5766 35.5707 37.4123 36.47C37.3809 36.6424 37.3826 36.7172 37.6154 36.6955C39.2586 36.5422 40.9036 36.4117 42.5482 36.2669C42.7215 36.2521 42.7813 36.2813 42.7796 36.4739C42.7696 37.5361 42.77 38.598 42.7796 39.6603C42.7809 39.8463 42.7301 39.8867 42.5516 39.8709C41.2231 39.7524 39.894 39.6426 38.565 39.5306C38.1821 39.4983 37.7995 39.4685 37.3748 39.4339Z" fill="black"/>
<path d="M33.7647 31.9991C33.933 31.0195 34.0929 30.0679 34.2631 29.1182C34.3012 28.9064 34.2862 28.8306 34.0263 28.8538C32.3906 28.9977 30.7526 29.1153 29.1163 29.2547C28.9278 29.2709 28.9037 29.2163 28.9045 29.0551C28.9093 27.9932 28.9116 26.9305 28.9024 25.8686C28.9006 25.6844 28.9668 25.6603 29.1238 25.6742C30.2057 25.77 31.2878 25.8598 32.3704 25.9514C32.9327 25.9985 33.496 26.0356 34.0565 26.0983C34.2591 26.121 34.3078 26.0803 34.2714 25.879C34.1204 25.047 33.9817 24.2125 33.8386 23.3788C33.8159 23.2445 33.7949 23.1093 33.7695 22.9523H34.5702C35.6242 22.9523 36.6778 22.9568 37.7312 22.9483C37.9128 22.9466 37.9385 22.9952 37.9066 23.1641C37.736 24.0704 37.5784 24.9799 37.4116 25.8873C37.3807 26.0562 37.4055 26.1176 37.6052 26.0991C39.1893 25.9552 40.7743 25.8238 42.3588 25.6886C42.3759 25.6872 42.3931 25.6867 42.41 25.6847C42.7755 25.6538 42.7755 25.6538 42.7755 26.0277C42.7755 27.0304 42.7707 28.033 42.7793 29.035C42.7813 29.2311 42.7361 29.2694 42.5348 29.2522C40.8903 29.1112 39.244 28.9908 37.5994 28.8513C37.3841 28.8329 37.3845 28.9162 37.4126 29.0701C37.5575 29.8684 37.6952 30.6677 37.8441 31.4656C37.9434 31.9998 37.9495 31.9991 37.4178 31.9991H33.7647Z" fill="black"/>
<path d="M37.5463 60.5547C36.994 61.6181 36.4654 62.6363 35.9144 63.6976C35.2887 62.635 34.6827 61.6064 34.0625 60.5547H37.5463Z" fill="black"/>
<path d="M101.508 24.5096V22.5605C101.515 21.6269 101.351 20.8465 101.026 20.2188C100.698 19.5878 100.167 19.1173 99.4354 18.8001C98.7072 18.4826 97.7396 18.3257 96.534 18.3257H90.4396V33.2476H93.8003V28.7219H96.3548C97.5607 28.7219 98.5428 28.5655 99.3045 28.2516C100.062 27.9378 100.623 27.4713 100.978 26.8473C101.336 26.2238 101.511 25.443 101.508 24.5096ZM98.1473 24.1733C98.1546 24.5319 98.1061 24.8347 98.0124 25.0773C97.9156 25.3198 97.7362 25.4989 97.4786 25.6224C97.2173 25.7457 96.844 25.8092 96.3548 25.8092H93.8003V21.3059H96.3548C96.8213 21.3059 97.1875 21.3618 97.4488 21.4734C97.71 21.5858 97.8933 21.7575 97.998 21.989C98.102 22.2204 98.1507 22.5153 98.1473 22.8742V24.1733ZM114.846 22.6725C114.85 22.1009 114.746 21.5446 114.536 21.0035C114.328 20.4617 113.992 19.9729 113.536 19.5393C113.08 19.1025 112.483 18.7548 111.747 18.4978C111.012 18.2401 110.115 18.1091 109.066 18.1016C108.017 18.1091 107.124 18.2401 106.385 18.4978C105.649 18.7554 105.052 19.1025 104.596 19.5393C104.141 19.9729 103.808 20.4617 103.595 21.0035C103.386 21.5446 103.282 22.1009 103.286 22.6725V28.9014C103.282 29.4723 103.386 30.0287 103.595 30.5704C103.808 31.1119 104.141 31.5971 104.596 32.0343C105.052 32.471 105.649 32.8184 106.385 33.0758C107.124 33.3336 108.017 33.4642 109.066 33.4717C110.115 33.4642 111.012 33.3336 111.747 33.0758C112.482 32.8184 113.08 32.471 113.536 32.0343C113.992 31.5971 114.328 31.1119 114.536 30.5704C114.746 30.029 114.85 29.4723 114.846 28.9014V22.6725ZM111.486 28.6099C111.489 29.1997 111.299 29.6593 110.907 29.9879C110.515 30.3203 109.902 30.4882 109.066 30.4917C108.23 30.4882 107.617 30.3203 107.225 29.9879C106.836 29.6593 106.642 29.1997 106.646 28.6099V22.9633C106.642 22.3735 106.836 21.9139 107.225 21.5858C107.617 21.2533 108.23 21.0854 109.066 21.0814C109.902 21.0854 110.515 21.2533 110.907 21.5858C111.299 21.9139 111.489 22.3735 111.486 22.9633V28.6099ZM126.666 33.2476H130.654L127.047 28.1396C127.794 27.8258 128.343 27.3549 128.697 26.7313C129.049 26.1043 129.224 25.3275 129.221 24.3976V22.5605C129.228 21.6269 129.063 20.8465 128.739 20.2188C128.41 19.5878 127.88 19.1173 127.148 18.8001C126.42 18.4826 125.452 18.3257 124.247 18.3257H118.04V33.2476H121.401V28.6099H123.373L126.666 33.2476ZM125.86 24.0614C125.863 24.4351 125.815 24.7412 125.714 24.9838C125.613 25.2267 125.43 25.4058 125.169 25.5213C124.907 25.6411 124.541 25.6971 124.067 25.6971H121.401V21.3059H124.067C124.519 21.302 124.878 21.358 125.139 21.4625C125.4 21.5709 125.587 21.7391 125.699 21.9701C125.811 22.2015 125.863 22.5009 125.86 22.8742V24.0614ZM142.178 21.3059V18.3257H130.796V21.3059H134.807V33.2476H138.168V21.3059H142.178ZM100.724 52.4516V45.4386H97.5642V50.0095C97.2772 50.0468 97.0263 50.0728 96.8103 50.0951C96.5937 50.114 96.3884 50.1255 96.1941 50.133C95.9962 50.1403 95.7907 50.1442 95.5705 50.1442C95.0139 50.1403 94.5846 50.0432 94.2783 49.8529C93.9723 49.6621 93.7557 49.4047 93.6358 49.0836C93.5163 48.7662 93.4607 48.4075 93.4642 48.0152V42.8847C93.4607 42.4927 93.5163 42.1451 93.6358 41.839C93.7557 41.5331 93.9723 41.2902 94.2783 41.1147C94.5846 40.9393 95.0139 40.8494 95.5705 40.8454C95.8432 40.8454 96.1603 40.8533 96.5227 40.8718C96.8886 40.8906 97.2699 40.917 97.6733 40.9501C98.0722 40.9805 98.4679 41.0174 98.86 41.0624C99.252 41.1072 99.611 41.1519 99.9392 41.2044L100.343 38.2694C99.9134 38.1871 99.439 38.1088 98.92 38.0378C98.4045 37.9666 97.8597 37.9106 97.2916 37.8658C96.7245 37.8208 96.1495 37.7985 95.5705 37.7985C94.3605 37.8019 93.3488 37.9926 92.5383 38.3698C91.7317 38.747 91.1231 39.2776 90.716 39.9607C90.3088 40.6403 90.1035 41.4429 90.1035 42.3692V48.5977C90.1035 49.509 90.3088 50.3044 90.716 50.9879C91.1231 51.6712 91.7317 52.2054 92.5383 52.5861C93.3488 52.9672 94.3605 53.1611 95.5705 53.1686C96.4365 53.1686 97.307 53.1088 98.1803 52.9857C99.0547 52.8662 99.902 52.6871 100.724 52.4516ZM114.346 49.0686V41.8988C114.35 41.3906 114.26 40.9054 114.074 40.4426C113.891 39.9796 113.603 39.5687 113.203 39.2026C112.804 38.8409 112.285 38.5528 111.643 38.3438C111 38.1345 110.219 38.0264 109.305 38.0226H103.525V52.9445H109.305C110.219 52.941 111 52.8325 111.643 52.62C112.285 52.4066 112.804 52.1192 113.203 51.7533C113.603 51.3911 113.891 50.9767 114.074 50.5135C114.26 50.0547 114.35 49.5724 114.346 49.0686ZM110.985 48.1497C110.993 48.5383 110.937 48.8668 110.817 49.1396C110.702 49.4082 110.492 49.6134 110.19 49.7521C109.887 49.8935 109.458 49.9645 108.901 49.9645H106.885V41.0022H108.901C109.458 41.0022 109.887 41.0736 110.19 41.2151C110.492 41.3536 110.702 41.5587 110.817 41.828C110.937 42.0966 110.993 42.4292 110.985 42.8172V48.1497ZM124.496 38.0226H120.014L115.466 52.9445H118.962L119.768 50.0316H124.764L125.571 52.9445H129.066L124.496 38.0226ZM122.255 40.9805L123.958 47.2311H120.529L122.255 40.9805ZM138.835 52.9445H142.98V38.0226H139.776V48.3068L134.87 38.0226H130.747V52.9445H133.95V43.1311L138.835 52.9445ZM155.729 48.7549C155.732 48.1718 155.718 47.6649 155.676 47.235C155.635 46.8017 155.542 46.4282 155.4 46.1148C155.254 45.801 155.03 45.5244 154.728 45.2893C154.421 45.0545 154.007 44.8413 153.484 44.647C152.958 44.4531 152.297 44.2623 151.494 44.072C150.911 43.9377 150.456 43.8216 150.123 43.7211C149.791 43.624 149.552 43.5118 149.403 43.3924C149.254 43.2689 149.16 43.105 149.123 42.8957C149.085 42.6904 149.067 42.4103 149.074 42.0556C149.07 41.6936 149.115 41.4131 149.216 41.2119C149.317 41.0135 149.5 40.8758 149.769 40.7973C150.034 40.7225 150.415 40.6852 150.911 40.6888C151.356 40.6888 151.785 40.7036 152.207 40.7338C152.626 40.7637 153.066 40.8123 153.525 40.8758C153.985 40.9356 154.492 41.0174 155.057 41.1147L155.393 38.2915C154.56 38.112 153.761 37.9853 152.995 37.9106C152.229 37.8321 151.52 37.795 150.867 37.7985C149.847 37.7985 149.003 37.8733 148.331 38.0299C147.663 38.1871 147.136 38.43 146.752 38.7661C146.371 39.0981 146.098 39.5275 145.941 40.0578C145.784 40.5842 145.71 41.2226 145.714 41.9663C145.71 42.6083 145.739 43.161 145.799 43.6203C145.859 44.0834 145.971 44.475 146.135 44.7969C146.296 45.1214 146.535 45.394 146.841 45.6181C147.148 45.8457 147.551 46.0398 148.044 46.2119C148.537 46.3799 149.141 46.5405 149.858 46.6932C150.463 46.8243 150.938 46.9437 151.281 47.0482C151.625 47.1567 151.875 47.2761 152.028 47.4104C152.185 47.5449 152.282 47.713 152.319 47.9221C152.356 48.1312 152.375 48.4 152.368 48.7324C152.372 49.0463 152.345 49.3035 152.289 49.509C152.233 49.7181 152.133 49.8789 151.983 49.9985C151.837 50.118 151.629 50.1998 151.356 50.2523C151.087 50.3009 150.736 50.3233 150.307 50.3233C149.537 50.3194 148.798 50.2523 148.088 50.1255C147.379 49.9945 146.685 49.8225 146.005 49.6061L145.445 52.2054C145.874 52.3993 146.352 52.5713 146.878 52.7131C147.405 52.8589 147.954 52.9708 148.529 53.0491C149.104 53.1274 149.683 53.1686 150.261 53.1686C151.158 53.1686 151.923 53.1088 152.558 52.9932C153.193 52.877 153.72 52.7015 154.13 52.4666C154.545 52.2316 154.87 51.9401 155.101 51.5854C155.333 51.2343 155.497 50.82 155.594 50.3496C155.687 49.8789 155.732 49.3447 155.729 48.7549ZM158.081 52.9445H161.442V38.0226H158.081V52.9445ZM166.214 52.9445H170.001L165.497 45.3265L169.687 38.0226H165.9L161.867 45.3265L166.214 52.9445Z" fill="black"/>
<path d="M136.3 38.4222C136.735 38.2291 137.129 38.0481 137.48 37.8751C137.831 37.7066 138.171 37.5339 138.501 37.3523C138.83 37.171 139.18 36.9683 139.549 36.7413L138.46 34.7866C137.999 35.0946 137.501 35.4036 136.961 35.7171C136.421 36.0276 135.863 36.3404 135.289 36.6524L136.3 38.4222Z" fill="black"/>
</g>
<defs>
<clipPath id="clip0_7322_16649">
<rect width="170" height="72" fill="white"/>
</clipPath>
</defs>
</svg>
