<svg width="744" height="744" viewBox="0 0 744 744" fill="none" xmlns="http://www.w3.org/2000/svg">
<path d="M372 744C577.45 744 744 577.45 744 372C744 166.55 577.45 0 372 0C166.55 0 0 166.55 0 372C0 577.45 166.55 744 372 744Z" fill="#C0A062"/>
<path d="M371.999 730.98C570.259 730.98 730.979 570.259 730.979 372C730.979 173.741 570.259 13.02 371.999 13.02C173.74 13.02 13.0195 173.741 13.0195 372C13.0195 570.259 173.74 730.98 371.999 730.98Z" fill="#2A1770"/>
<path fill-rule="evenodd" clip-rule="evenodd" d="M373.08 107.028C404.868 107.028 430.795 132.955 430.795 164.743C430.795 191.042 413.047 213.327 388.918 220.24V244.114H513.493V271.236H388.918V312.312C388.918 381.928 386.906 449.484 395.567 518.634C402.345 572.744 414.512 585.397 435.608 585.756C476.442 586.45 510.19 563.754 523.208 511.948L498.094 515.977C508.299 483.839 526.333 453.876 553.816 426.538C573.777 460.044 585.908 493.551 588.593 527.06L562.319 512.643C550.214 568.318 539.04 627.523 420.223 659.022C396.999 665.179 384.067 672.011 369.409 688.045C347.439 662.879 346.065 666.767 312.53 657.166C184.001 620.367 186.903 541.976 176.965 512.072L150.27 528.277C154.475 490.049 166.318 455.807 185.798 425.55C211.742 451.642 229.696 481.729 241.028 515.127L216.942 511.926C223.273 544.295 239.441 567.236 270.053 579.036C305.282 592.614 330.959 590.242 338.502 545.333C341.375 528.226 344.017 504.839 345.944 473.03L357.602 311.77V271.236H232.871V244.114H357.602V220.34C333.289 213.546 315.365 191.172 315.365 164.743C315.365 132.955 341.292 107.028 373.08 107.028Z" fill="#C0A062"/>
<path d="M373.08 187.828C385.83 187.828 396.166 177.492 396.166 164.742C396.166 151.993 385.83 141.657 373.08 141.657C360.33 141.657 349.994 151.993 349.994 164.742C349.994 177.492 360.33 187.828 373.08 187.828Z" fill="#2A1770"/>
<path fill-rule="evenodd" clip-rule="evenodd" d="M255.863 298.677H482.16V464.31C479.11 510.038 460.9 528.561 445.21 536.419C424.213 546.934 398.519 540.276 369.506 562.17C355.684 550.387 331.889 547.474 313.118 542.416C265.791 529.662 258.311 501.785 255.863 464.31V298.677Z" fill="#DA251D"/>
<path fill-rule="evenodd" clip-rule="evenodd" d="M358.421 332.795C356.735 323.719 353.705 317.132 349.348 313.007C352.004 313.481 354.669 314.205 357.474 316.667C358.81 315.305 360.238 314.651 361.871 315.553C362.456 313.241 363.921 312.189 365.99 311.999C364.608 310.027 365.359 309.168 368.34 309.431C368.154 308.565 368.439 307.277 368.996 306.694C369.888 307.366 370.128 308.745 370.276 309.559C372.187 309.152 372.762 309.948 372.001 311.946C374.325 311.981 375.744 313.166 375.842 316.031C377.994 314.395 379.329 315.191 380.295 317.092C382.817 315.005 385.786 313.697 389.2 313.166C384.125 318.029 381.398 325.226 379.738 333.485C377.678 333.75 375.619 334.015 373.56 334.28C368.513 333.785 363.467 333.29 358.421 332.795Z" fill="white"/>
<path fill-rule="evenodd" clip-rule="evenodd" d="M435.492 347.813C440.522 344.368 445.755 341.566 451.433 340.177C450.57 346.194 448.088 351.901 443.989 357.3C447.846 355.735 451.703 353.157 455.56 349.741C455.992 354.292 454.05 358.123 449.734 361.233C454.724 359.479 459.714 359.312 464.704 360.231C463.113 364.126 460.578 367.957 455.965 371.646C460.82 371.26 465.136 369.846 468.912 367.404C468.831 370.926 465.298 374.448 458.312 377.971C464.863 378.147 469.617 379.773 473.363 382.213C469.947 386.162 464.289 388.649 456.774 389.926C462.394 390.755 468.093 390.845 473.929 389.617C472.411 394.236 465.66 396.286 457.017 397.407C465.234 401.296 473.078 405.38 476.519 411.753C469.492 414.407 461.184 414.009 452 411.521C460.26 417.586 468.717 421.32 477.409 422.242C468.029 425.501 458.035 425.334 447.145 420.16C455.196 428.044 459.943 438.37 459.363 452.631C449.437 448.389 442.424 443.633 438.324 438.362C440.755 445.922 444.463 452.941 452.728 458.03C444.648 461.596 437.233 455.133 430.232 442.45C430.22 453.626 429.763 463.81 427.157 469.214C419.118 460.414 413.535 449.861 411.539 436.743C410.757 442.177 410.595 447.685 411.539 453.325C407.277 449.211 404.957 444.687 404.58 439.75C404.148 440.47 403.42 441.113 402.557 441.833C395.139 435.404 395.491 427.907 396.326 420.237C392.226 421.966 388.073 423.153 383.54 420.545C383.594 421.857 383.217 422.962 382.407 423.862C390.496 422.64 393.422 428.08 396.164 436.588C398.105 441.48 400.884 444.28 403.366 446.383C402.692 446.641 402.017 446.898 401.343 447.155C402.421 448.595 403.58 449.959 405.308 450.78C404.688 450.96 404.067 451.14 403.447 451.32C404.688 453.042 406.252 454.765 408.14 456.487C407.412 456.719 406.684 456.95 405.955 457.182C407.304 459.289 409.543 460.832 412.186 462.118C411.39 464.406 408.289 464.74 403.608 463.737C404.917 466.617 406.831 469.368 410.082 471.836C409.732 472.324 409.165 472.607 408.383 472.685C409.772 474.51 412.2 475.769 415.1 476.772C415.072 477.363 414.776 477.826 413.886 478.006C415.414 479.764 417.244 481.379 419.636 482.726C419.048 483.36 418.668 483.471 418.419 483.454C419.927 484.7 421.635 485.658 423.544 486.328C423.368 486.615 423.192 486.903 423.017 487.19C424.788 488.208 426.421 488.711 428.066 488.986C429.146 489.082 430.227 489.297 431.307 488.555C432.525 487.717 434.711 487.549 437.337 487.477C438.517 487.502 439.548 487.046 440.427 485.969C441.042 485.047 442.323 484.305 444.648 484.388C447.264 484.864 449.553 485.651 449.547 488.627C449.873 488.986 450.2 489.345 450.526 489.704C449.898 490.471 449.27 491.237 448.642 492.003C448.014 492.291 447.461 492.722 446.758 492.434C446.08 492.171 445.778 492.339 445.401 492.578C442.864 493.224 441.457 493.033 440.728 492.147C438.04 492.386 434.598 492.267 432.664 492.865C431.659 493.225 431.709 493.727 432.588 493.727C433.619 493.919 434.799 494.254 435.905 494.087C437.952 493.799 440.062 494.11 442.311 495.739C442.939 496.146 443.642 495.691 444.648 496.098C447.368 497.122 450.423 497.854 447.813 503.569C448.677 506.639 444.104 506.491 443.215 504.718C441.735 503.773 439.879 503.033 439.899 501.27C436.708 499.567 433.518 498.128 430.327 498.54C431.609 500.073 432.89 501.606 434.171 503.138C439.667 503.192 441.312 508.519 437.035 511.974C437.236 513.674 435.93 514.129 433.116 513.339C433.066 512.836 433.016 512.333 432.965 511.83C429.394 510.319 429.002 508.15 430.054 505.681C427.691 502.609 425.328 499.537 422.964 496.466C421.514 497.541 419.096 498.616 417.163 498.309C416.84 499.947 416.088 500.766 414.907 500.766C414.799 501.278 414.692 501.79 414.584 502.302C412.905 503.007 411.47 503.013 410.394 501.995C410.502 501.483 409.965 500.971 408.783 500.459C404.635 498.916 405.97 493.074 411.845 494.008C415.188 494.561 415.659 492.88 415.068 491.55C408.945 482.79 402.715 474.492 395.73 469.433C393.5 471.916 390.976 472.991 388.317 473.426C388.854 470.815 388.532 468.204 387.35 465.593C386.813 466.002 386.276 466.412 385.739 466.821C384.88 459.858 382.409 453.151 376.392 447.008C375.524 456.006 376.826 464.786 384.127 472.966C382.677 473.733 381.011 473.682 379.132 472.812C382.355 483.463 385.577 485.101 388.8 482.642C391.729 485.406 389.474 494.059 381.226 489.861C380.689 492.472 383.268 496.005 388.317 497.694C395.116 499.785 396.888 496.431 397.664 491.55C401.558 491.601 404.352 494.366 404.271 497.233C404.002 505.553 394.978 510.007 384.288 505.22C385.336 513.079 399.678 515.588 399.758 506.603C404.096 507.601 406.54 516.714 401.692 520.887C391.259 527.269 383.368 521.163 377.681 513.668C377.278 522.961 375.13 529.924 370.43 533.482C366.132 527.735 363.231 521.156 362.372 513.361C355.872 522.297 345.774 527.417 337.877 519.505C334.842 516.1 335.239 508.65 340.498 506.509C340.928 509.479 341.294 511.026 344.625 511.845C351.494 513.268 355.766 508.737 355.695 504.933C344.193 508.959 338.637 505.936 336.609 500.94C334.771 494.574 338.837 491.694 342.712 491.09C342.984 503.084 358.979 496.141 359.149 489.554C350.392 493.394 348.243 485.714 351.253 482.181C355.013 485.56 358.344 482.181 361.244 472.044C359.31 472.762 357.429 473.327 355.926 472.812C361.011 467.393 364.584 460.002 363.218 446.797C358.395 452.235 354.405 458.205 354.315 466.514C353.563 466.105 353.354 465.695 352.602 465.286C351.481 467.742 351.448 470.544 351.668 473.034C348.974 472.755 346.159 471.204 343.659 469.175C337.024 475.587 327.315 486.914 325.367 491.79C324.768 493.108 325.55 494.839 328.046 494.111C328.939 493.879 329.589 493.338 330.645 493.647C335.358 494.99 334.493 500.408 330.239 500.845C329.549 502.341 327.816 502.702 325.61 502.547C325.61 502.006 325.61 501.464 325.61 500.922C324.119 500.252 323.394 499.373 323.418 498.291C321.348 498.291 319.426 497.44 317.572 496.201C315.352 499.323 313.133 502.444 310.913 505.566C311.23 507.426 311.74 510.55 308.964 510.751C309.018 511.035 308.748 511.318 308.153 511.602C307.014 512.532 305.633 513.049 304.011 513.15C303.903 512.609 303.795 512.067 303.686 511.525C299.328 508.067 302.116 502.521 306.691 503.012C307.639 501.477 308.883 500.084 310.264 498.755C310.702 498.377 310.621 498.247 310.02 498.213C306.718 498.394 303.741 499.4 301.088 501.232C300.873 502.187 300.522 503.065 299.221 503.399C299.196 504.226 298.41 504.509 297.515 504.714C296.108 504.921 294.7 505.127 293.293 505.333C292.86 504.585 292.86 503.837 293.293 503.089C290.722 499.477 291.832 497.104 296.622 495.969C297.705 495.633 298.787 495.995 300.601 494.731C301.629 494.215 302.82 493.699 304.174 493.879C305.473 494.06 306.447 493.931 307.665 493.802C308.773 493.719 308.852 493.172 308.065 492.779C305.433 492.163 302.801 491.701 300.169 492.318C298.611 493.086 296.838 493.035 294.851 492.165C294.368 492.677 293.454 492.574 292.111 491.857C291.413 491.141 290.715 490.424 290.016 489.707C290.339 489.4 290.782 489.131 291.104 488.824C291.311 486.136 293.762 482.835 299.846 485.407C301.187 486.177 301.994 487.098 304.52 487.25C309.483 487.429 309.412 488.946 311.127 488.939C314.349 488.968 316.606 487.813 317.411 486.635C317.197 486.431 316.982 486.226 316.767 486.021C319.079 484.997 321.176 483.973 321.763 482.949C321.548 482.744 320.927 482.617 320.712 482.412C323.402 481.057 325.257 479.315 326.275 477.573C325.791 477.215 325.308 476.856 324.825 476.498C328.047 475.679 330.411 474.245 331.915 472.197C331.217 472.044 330.518 471.89 329.82 471.736C333.661 468.92 335.434 466.104 336.266 463.289C331.485 464.261 328.638 463.8 327.725 461.906C330.653 460.754 332.909 459.219 333.688 456.838C333.097 456.633 332.506 456.428 331.915 456.223C334.332 454.841 335.965 453.014 336.234 450.813C335.858 450.762 335.192 450.745 334.816 450.694C336.427 449.567 337.609 448.236 338.361 446.701C337.716 446.635 337.325 446.431 336.681 446.124C341.692 443.131 343.452 436.027 346.096 429.651C347.492 425.171 351.575 422.303 357.215 423.815C356.302 422.791 355.819 421.562 355.765 420.128C352.22 422.176 348.03 422.176 343.195 420.128C344.228 426.969 344.336 436.748 337.072 441.325C336.481 440.864 335.89 440.403 335.299 439.942C334.762 445.318 332.506 449.67 328.531 452.998C328.827 447.775 328.773 442.553 328.209 437.331C326.563 446.768 324.396 456.386 313.222 469.125C310.724 463.8 309.757 454.585 309.838 442.707C302.774 454.587 295.576 461.601 288.083 457.913C295.066 453.612 299.47 446.752 301.297 439.635C295.952 445.139 289.13 449.235 281.636 452.691C281.137 441.682 282.039 430.725 292.756 420.128C283.652 424.201 274.09 426.096 263.266 421.971C271.914 421.178 279.381 417.287 286.31 411.988C278.396 413.114 270.523 414.123 263.91 411.527C265.06 407.304 272.26 402.44 281.153 397.396C273.525 395.809 267.777 393.454 266.166 389.409C271.297 390.433 276.131 390.331 280.831 389.716C274.008 387.335 268.798 384.827 267.133 382.037C270.786 379.63 275.459 378.197 280.831 377.429C274.586 374.101 270.96 370.773 271.162 367.445C273.686 368.827 277.285 370.21 283.248 371.592C279.327 367.804 276.48 364.015 274.707 360.226C279.004 359.125 283.57 358.92 288.727 360.687C285.368 356.898 282.949 353.109 283.893 349.321C286.565 351.829 290.513 354.338 295.334 356.847C290.956 350.601 288.055 344.866 288.405 340.259C293.4 341.321 298.214 343.461 303.483 347.391C298.541 340.325 295.201 335.19 295.194 331.811C304.326 332.906 312.094 334.729 319.507 338.723C327.886 343.331 340.316 351.691 345.795 367.204C348.716 375.934 345.002 383.957 336.588 385.569C335.11 390.895 340.428 393.403 348.836 394.631C349.264 391.608 349.8 388.79 351.092 387.413C349.802 386.696 349.373 385.16 349.802 382.805C355.431 383.693 358.493 377.241 362.211 372.667C361.632 372.582 361.053 372.457 360.516 372.253C363.914 370.84 365.326 368.469 366.723 366.677C369.275 362.734 370.01 357.4 367.045 353.775C363.983 351.881 360.277 351.829 355.926 353.622C349.211 355.465 346.633 353.366 345.935 349.474C351.307 353.673 355.067 348.041 359.632 347.324C357.86 343.945 356.087 340.566 354.315 337.187C356.972 333.239 359.819 330.583 366.562 331.964C372.739 332.937 379.884 335.139 384.611 331.657C385.148 333.756 385.04 335.651 384.288 337.34C384.89 337.668 386.638 337.45 388.156 337.34C388.263 340.002 387.726 341.846 386.544 342.87C388.21 348.757 388.102 355.772 387.189 363.298C386.947 366.114 387.108 368.623 388.156 371.285C387.485 371.717 386.566 371.581 385.577 371.285C384.475 380.732 386.893 383.394 391.379 383.419C391.379 385.672 390.203 387.488 388.431 388.768C389.938 390.816 390.199 392.891 390.412 394.939C401.499 393.327 403.511 389.794 402.982 385.723C393.767 384.726 390.33 376.022 393.474 366.831C399.007 353.212 409.051 344.047 420.224 338.415C427.781 334.928 435.891 333.021 444.312 332.002C443.152 337.484 440.104 342.742 435.492 347.813Z" fill="white"/>
<path fill-rule="evenodd" clip-rule="evenodd" d="M365.378 326.163C362.428 326.057 359.478 325.951 356.528 325.845C355.229 325.615 355.118 323.97 356.361 324.359C359.311 324.996 362.428 325.526 365.378 326.163ZM373.838 326.216C376.528 326.039 379.218 325.862 381.909 325.686C382.595 325.579 382.613 324.147 381.797 324.412C379.144 325.013 376.491 325.615 373.838 326.216ZM359.032 319.532C357.882 318.656 357.029 317.737 357.53 316.72C358.077 315.88 358.745 315.385 359.589 315.394C358.068 316.419 357.882 317.799 359.032 319.532ZM361.315 323.457C360.191 321.478 361.805 319.992 362.539 317.887C362.67 318.665 362.559 319.514 362.149 320.434C361.276 321.459 361.542 322.432 361.315 323.457ZM362.706 317.091C362.381 315.694 362.567 314.492 362.985 313.378C362.483 313.996 362.019 314.65 361.816 315.553C361.816 316.066 362.113 316.579 362.706 317.091ZM365.99 311.998C365.288 311.309 364.938 310.578 365.545 309.717C365.897 309.434 366.324 309.364 366.825 309.505C366.156 310.026 365.767 310.769 365.99 311.998ZM367.493 309.399C367.372 308.223 368.077 307.445 368.996 306.693C369.014 306.906 368.921 307.065 368.94 307.277C368.383 307.949 368.197 308.639 368.383 309.452C368.087 309.434 367.79 309.416 367.493 309.399ZM367.994 330.884C364.599 330.759 361.204 330.464 357.808 329.346C357.289 329.647 357.307 330.743 358.031 330.884C361.538 331.417 364.785 331.204 367.994 330.884ZM370.888 331.176C374.042 331.459 377.196 331.238 380.35 330.672C380.834 330.566 381.13 329.151 380.573 329.346C377.53 330.027 374.376 330.637 370.888 331.176ZM365.266 323.298C364.635 322.326 364.376 321.3 364.932 320.327C365.489 319.266 366.046 318.258 366.602 317.197C366.684 318.004 366.841 318.738 365.712 320.699C365.283 321.21 365.247 322.219 365.266 323.298ZM369.385 317.463C370.591 315.907 370.61 314.351 369.441 312.794C370.461 312.883 371.222 313.466 371.389 314.545C371.463 316.083 370.795 317.056 369.385 317.463ZM371.334 317.25C371.482 317.94 371.723 318.63 372.168 319.319C373.189 321.442 372.985 322.591 372.224 323.298C372.371 322.009 372.297 320.612 371.389 319.638C370.253 318.132 370.681 317.62 371.334 317.25ZM374.84 316.932C375.027 315.57 374.822 314.332 374.561 313.112C375.156 313.535 375.583 314.135 375.731 315.977C375.397 316.651 375.174 316.827 374.84 316.932ZM374.896 317.781C374.654 318.453 374.784 319.125 375.285 319.797C376.083 320.813 376.473 321.927 376.677 323.086C376.862 322.025 376.676 320.504 376.12 319.478C375.619 318.735 375.248 318.399 374.896 317.781ZM379.07 315.553C379.227 316.914 379.265 318.276 379.126 319.638C379.664 318.806 380.053 317.975 380.295 317.144C379.886 316.472 379.478 315.942 379.07 315.553ZM381.352 322.768C381.491 318.765 383.532 316.302 386.64 314.704C384.419 317.055 382.646 319.593 381.352 322.768ZM356.528 323.033C355.243 319.182 353.534 317.187 351.797 315.341C353.485 316.207 354.877 317.569 355.971 319.426C356.685 320.84 356.532 321.831 356.528 323.033Z" fill="#C0A062"/>
<path fill-rule="evenodd" clip-rule="evenodd" d="M448.642 492.004C449.702 492.491 450.104 493.188 450.544 493.873C452.32 492.241 451.601 490.949 450.526 489.705C449.898 490.472 449.27 491.238 448.642 492.004ZM443.215 504.719C443.693 506.046 443.664 507.372 443.128 508.699C446.259 508.639 447.818 507.418 447.806 505.038C445.971 505.56 444.441 505.454 443.215 504.719ZM433.049 512.505C432.638 513.714 431.877 514.523 430.958 515.151C434.019 516.42 435.756 515.623 436.586 513.412C435.407 513.363 434.228 513.133 433.049 512.505ZM410.394 501.996C410.701 505.843 415.615 505.68 418.407 503.298C416.879 503.643 415.605 503.311 414.584 502.303C413.187 502.75 411.791 502.805 410.394 501.996ZM325.62 501.789C324.678 502.813 323.35 503.146 321.635 502.79C324.588 505.827 329.575 505.174 329.859 501.478C328.156 502.272 326.743 502.376 325.62 501.789ZM304.011 513.151C304.498 515.831 306.799 515.847 309.607 515.117C308.267 514.069 307.717 512.938 308.152 511.603C307.348 512.336 305.398 512.789 304.011 513.151ZM293.015 504.585C292.554 506.396 293.193 507.944 297.761 508.556C296.809 507.276 296.921 505.995 297.515 504.715C295.858 504.897 294.285 504.957 293.015 504.585ZM290.237 489.477C288.996 490.792 288.876 492.389 290.318 493.807C290.589 492.701 291.143 491.99 292.111 491.858C291.413 491.141 290.855 490.232 290.237 489.477Z" fill="#C0A062"/>
<path fill-rule="evenodd" clip-rule="evenodd" d="M383.046 369.64C380.75 378.322 382.085 383.632 388.239 384.471C383.486 382.328 382.635 377.525 384.454 370.901C383.985 370.481 383.515 370.061 383.046 369.64ZM376.93 379.261C376.739 382.104 376.548 384.947 376.357 387.79C377.195 386.757 377.591 384.182 377.546 380.27C377.516 379.85 377.223 379.303 376.93 379.261ZM369.063 379.149C367.985 381.906 367.044 384.663 366.301 387.419C366.012 385.96 365.757 384.478 366.594 382.266C367.005 380.947 367.926 379.828 369.063 379.149ZM354.626 385.462C358.625 384.353 361.981 381.738 364.753 377.751C363.992 381.657 363.839 385.658 364.418 389.776C363.186 387.889 362.175 385.885 361.949 383.464C359.243 385.714 356.885 385.879 354.626 385.462ZM351.613 384.463C355.454 383.459 359.433 379.168 363.498 372.837C364.055 372.811 364.613 372.784 365.171 372.757C360.074 381.565 355.593 385.138 351.613 384.463ZM368.435 377.871C368.167 375.968 368.151 373.997 369.9 371.559C371.992 368.843 373.526 366.126 374.503 363.409C374.749 364.514 374.878 365.753 371.406 371.159C369.955 373.157 369.132 375.514 368.435 377.871ZM369.816 355.938C370.991 363.169 368.655 367.87 363.916 370.84C366.424 370.192 369.179 369.8 371.406 364.368C372.285 361.864 371.49 359.041 371.574 356.498C370.988 356.311 370.402 356.124 369.816 355.938ZM382.284 343.5C385.578 346.893 383.682 363.032 385.578 368.802C385.209 359.561 386.927 347.742 384.28 343.881C383.615 343.754 382.95 343.627 382.284 343.5ZM379.091 347.876C379.789 353.202 380.189 358.624 377.594 363.856C373.951 371.196 369.327 377.316 370.209 381.548C372.271 375.936 376.256 371.466 378.924 366.424C382.726 359.95 381.798 352.584 379.091 347.876ZM384.29 337.34C376.641 338.22 364.703 334.351 359.031 335.89C359.528 334.73 362.211 334.35 364.819 334.749C370.199 335.286 378.231 337.234 384.901 334.749C384.897 335.654 384.687 336.518 384.29 337.34ZM365.978 342.223C364.247 341.015 361.905 340.391 362.622 336.85C362.134 336.823 361.647 336.795 361.159 336.768C362.012 335.524 364.207 335.784 367.011 336.727C381.01 341.823 384.831 340.855 388.074 339.557C387.96 340.661 387.588 341.972 386.546 342.869C381.246 342.385 376.384 341.38 372.002 339.803C371.342 340.562 370.496 341.054 369.378 341.156C369.996 340.308 370.456 339.501 369.808 338.983C369.22 338.778 368.632 338.572 368.044 338.367C367.714 338.19 367.441 338.34 367.226 338.819C367.326 339.598 367.427 340.377 367.527 341.156C366.329 340.928 365.482 340.198 365.892 337.67C364.513 336.916 364.227 337.355 364.042 337.752C363.159 339.012 364.638 340.628 365.978 342.223ZM349.733 352.232C352.261 352.004 354.96 351.387 357.523 350.38C360.726 349.042 363.765 348.763 366.605 349.763C367.851 350.359 368.024 350.759 368.272 351.257C366.708 350.672 364.951 349.848 362.557 350.283C357.099 351.102 352.16 353.538 349.733 352.232ZM374.223 403.081C374.977 401.839 374.108 400.227 372.646 398.833C371.434 397.875 370.292 396.916 370.04 395.958C368.395 397.374 366.475 398.855 364.829 400.271C364.036 401.056 364.006 401.426 364.143 402.95C362.65 401.776 361.359 400.189 360.235 398.898C359.883 400.965 359.712 402.474 355.778 406.218C354.618 407.224 353.785 408.368 353.279 409.467C356.528 411.355 359.777 410.972 363.026 408.992C366.396 410.633 369.795 411.578 373.328 409.167C376.685 410.898 380.042 411.074 383.4 409.694C382.036 408.494 380.671 407.294 379.307 406.094C375.353 408.152 372.164 407.29 369.189 405.611C365.822 407.735 362.551 407.551 359.347 405.786C362.444 406.835 365.541 406.863 368.637 404.645C371.693 406.299 374.861 407.284 378.571 405.04C377.391 403.412 377.142 402.006 377.105 400.651C376.213 401.592 375.227 402.355 374.223 403.081ZM406.174 429.68C405.672 433.797 404.6 438.066 402.294 439.987C402.38 440.593 402.467 441.199 402.554 441.806C403.521 441.066 404.17 440.408 404.462 439.821C406.148 436.881 406.877 433.941 407.446 431.001C407.824 431.36 408.217 431.71 408.626 432.049C407.345 441.932 409.4 447.499 411.402 453.134C410.801 447.649 410.555 442.164 411.576 436.679C411.576 435.963 411.576 435.246 411.576 434.53C411.286 433.841 410.998 433.151 410.708 432.462C414.754 428.071 415.851 422.847 414.001 416.791C414.716 417.512 415.431 418.202 416.145 418.831C416.052 430.065 417.562 440.726 421.414 450.55C419.555 440.653 418.651 430.755 419.011 420.858C420.274 421.504 421.537 421.945 422.801 422.356C425.785 430.562 428.591 439.348 425.852 466.058C426.283 467.056 426.714 468.055 427.146 469.053C429.751 464.454 430.235 454.887 430.104 442.533C429.795 439.772 429.488 437.011 429.179 434.25C433.342 444.264 438.788 452.58 447.39 456.718C439.949 451.079 433.971 439.302 428.994 423.325C422.253 422.376 416.507 419.927 412.725 414.514C412.725 414.132 412.725 413.75 412.725 413.369C412.605 413.517 412.485 413.666 412.365 413.814C409.962 414.647 407.559 414.813 405.156 414.024C400.356 416.78 396.134 417.11 392.491 415.016C389.805 418.059 387.239 418.81 384.759 417.945C384.766 417.916 384.774 417.888 384.78 417.861C385.73 415.126 386.259 412.78 385.471 410.726C386.781 408.165 387.416 405.198 387.132 401.8C390.272 399.511 390.381 397.23 390.414 394.938C389.402 397.849 388.123 400.375 385.883 401.527C386.079 400.035 384.692 398.205 382.066 395.775C381.162 394.839 380.288 391.955 379.905 390.068C379.654 395.068 378.157 399.116 374.84 401.774C374.793 399.487 371.432 397.721 370.863 394.912C370.349 392.646 370.44 390.359 371.686 387.527C372.931 389.488 374.554 390.729 376.349 391.644C374.474 388.453 373.194 384.553 372.783 379.619C371.133 384.844 368.195 387.752 364.898 390.01C366.886 389.967 368.875 389.226 370.863 387.788C370.463 390.348 369.983 392.832 369.217 395.043C368.295 396.927 366.694 398.325 365.035 399.683C364.257 400.336 363.798 400.791 363.708 401.598C361.488 399.67 359.874 397.303 360.235 392.559C360.321 391.842 362.338 390.511 363.389 389.488C363.206 389.466 363.024 389.444 362.841 389.422C362.338 389.814 361.835 390.206 361.332 390.599C361.814 389.292 362.135 387.985 361.881 386.677C361.264 387.265 360.647 387.854 360.029 388.442C360.147 391.408 356.905 393.897 352.967 396.393C351.868 396.87 351.23 397.962 350.361 398.703C349.673 397.345 349.158 395.988 348.837 394.631C348.702 394.612 348.566 394.594 348.43 394.575C348.691 395.764 349.105 396.955 349.671 398.145C348.258 401.41 348.423 404.957 352.016 409.119C351.867 411.774 352.265 414.272 353.37 416.567C350.412 417.127 348.13 416.539 346.526 414.802C342.147 417.242 337.993 416.154 333.94 413.46C330.915 414.461 328.471 414.17 326.425 412.994C326.616 413.265 326.823 413.516 327.049 413.745C323.917 418.136 319.61 421.814 311.197 423.002C311.561 422.597 311.926 422.192 312.29 421.787C311.838 416.224 314.012 411.456 318.81 407.485C319.676 408.269 320.808 408.995 322.305 409.637C319.27 413.108 316.235 416.58 313.2 420.051C316.69 416.724 320.181 413.398 323.672 410.071C323.975 410.129 324.278 410.187 324.582 410.244C325.007 410.939 325.432 411.633 325.857 412.327C325.6 411.475 325.601 410.869 324.309 409.03C319.301 408.335 316.842 405.905 316.933 401.739C312.76 400.043 310.575 394.786 313.656 389.416C313.382 389.213 313.109 389.011 312.836 388.808C312.502 389.416 312.168 390.023 311.835 390.631C307.008 390.862 302.183 391.094 297.357 391.325C302.031 391.441 306.705 391.557 311.379 391.672C311.092 393.286 311.144 394.71 311.459 395.989C306.046 397.189 300.547 396.191 294.898 391.325C294.382 391.325 293.867 391.325 293.35 391.325C298.823 388.323 304.295 386.866 309.767 386.952C310.094 386.969 310.424 386.981 310.758 386.984C311.226 387.533 311.765 387.94 312.29 388.374C309.062 383.745 309.937 379.927 313.838 376.919C309.233 371.418 315.187 365.863 320.393 369.281C320.953 366.662 322.257 364.348 326.221 363.119C325.31 362.974 324.429 362.887 323.762 363.206C322.275 361.123 320.788 359.041 319.301 356.958C320.393 359.185 321.486 361.413 322.579 363.64C320.849 364.638 320.12 366.114 319.847 367.806C315.901 364.421 315.355 360.226 318.208 355.222C318.187 355.187 317.828 354.473 317.597 353.945C318.888 354.136 320.547 355.076 321.759 355.916C324.612 357.539 326.756 359.81 327.86 363.033C327.875 360.603 325.687 358.173 322.344 355.743C315.121 349.32 307.949 342.898 300.726 336.476C306.523 342.204 312.32 347.932 318.117 353.66C317.783 353.544 317.476 353.603 317.142 353.488C317.156 353.507 317.171 353.525 317.185 353.542C316.29 355.072 315.597 356.678 315.261 358.42C307.252 351.126 300.891 342.285 298.085 334.046C297.122 333.301 296.159 332.556 295.196 331.811C295.251 335.949 299.906 342.055 303.484 347.39C307.67 352.318 311.26 355.981 315.217 358.72C314.94 360.206 314.953 361.57 315.295 363.293C307.646 356.929 299.998 350.044 292.349 344.2C299.679 350.79 307.218 357.472 314.261 364.086C310.754 362.463 307.164 361.632 303.457 361.905C303.427 362.31 303.397 362.714 303.366 363.119C296.537 356.871 291.681 349.87 289.708 341.77C289.283 341.278 288.831 340.75 288.406 340.258C287.616 346.02 292.112 352.179 295.336 356.846C297.946 359.363 300.574 361.991 303.184 364.508C303.427 366.272 303.842 367.747 304.396 368.999C294.914 362.863 285.809 356.792 283.895 349.32C283.432 352.167 283.708 355.402 288.729 360.686C294.098 363.035 299.946 367.208 305.79 371.364C306.013 371.655 306.247 371.929 306.491 372.189C297.982 368.934 289.475 365.68 280.967 362.425C289.071 366.128 297.338 370.026 305.442 373.728C302.548 373.849 299.572 374.242 296.719 375.183C288.737 373.245 281.665 369.282 276.597 360.863C275.967 360.65 275.338 360.438 274.709 360.226C276.204 363.804 278.823 367.67 283.25 371.592C287.244 373.637 291.261 375.342 295.991 376.224C296.088 376.492 296.188 376.754 296.291 377.011C284.83 377.283 276.154 374.248 271.164 367.445C270.6 370.791 273.411 373.32 280.832 377.428C286.123 377.677 292.331 377.599 297.078 378.76C298.281 381.14 299.776 382.925 301.517 384.214L282.06 382.993L303.896 386.866C301.526 387.307 298.879 388.104 296.264 389.242C284.56 388.363 275.645 385.839 269.039 381.952C268.432 381.952 267.742 382.036 267.135 382.036C267.8 384.286 272.128 387.132 280.832 389.716C284.725 390.096 289.428 390.859 293.806 390.544C293.29 391.151 292.865 391.065 292.349 391.672C293.215 392.567 294.097 393.362 294.999 394.062C283.815 394.598 274.123 393.048 266.168 389.409C267.686 393.025 272.579 396.11 281.155 397.396C286.995 397.012 292.648 396.632 298.489 396.248C298.655 396.329 298.822 396.407 298.99 396.482C293.574 399.931 287.103 402.711 280.33 405.298C287.93 403.844 295.247 401.852 301.222 397.302C301.65 397.427 302.082 397.535 302.52 397.627C296.716 405.416 288.464 412.91 266.034 410.678C265.327 410.961 264.62 411.244 263.912 411.527C268.346 413.645 275.932 413.685 286.311 411.988C289.204 410.712 292.097 409.437 294.989 408.162C289.362 413.558 281.075 417.868 272.044 421.874C278.317 421.472 286.369 418.566 297.507 411.31C298.785 411.709 301.334 411.745 304.095 411.72C294.413 424.326 288.767 433.77 285.884 441.053C293.544 430.592 301.412 420.503 309.558 410.505C311.288 410.068 313.018 409.267 314.749 408.337C312.562 411.133 310.348 413.915 309.831 417.621C303.519 431.116 294.777 441.993 282.879 449.472C282.454 450.571 282.063 451.591 281.638 452.69C290.031 449.06 296.545 444.653 301.298 439.635C304.121 433.675 307.008 427.746 309.831 421.787C310.074 422.279 310.317 422.771 310.56 423.262C307.118 434.506 304.172 445.793 292.804 456.328C302.3 451.272 306.818 443.054 310.468 434.284C310.256 437.119 310.052 439.871 309.839 442.707C309.657 453.988 310.463 463.356 313.129 469.125C313.402 467.939 313.838 466.627 314.111 465.44C311.933 446.326 312.616 431.615 316.751 422.221C317.935 421.7 319.119 421.179 320.302 420.659C320.709 430.447 319.866 440.406 318.572 450.426C321.82 440.533 323.854 430.206 323.216 418.923C323.85 418.22 324.483 417.518 325.117 416.815C323.882 421.944 324.73 427.073 328.588 432.201C328.376 432.838 328.164 433.474 327.951 434.111C328.042 435.181 328.133 436.252 328.224 437.322C328.786 443.31 328.791 448.398 328.532 452.997C330.666 446.105 331.951 439.036 330.683 431.681C331.107 431.296 331.504 430.921 331.877 430.552C332.263 433.677 333.24 436.817 335.301 439.942C335.908 440.404 336.466 440.861 337.074 441.324C337.134 440.861 337.178 440.388 337.238 439.925C334.839 436.988 333.566 433.38 333.068 429.31C337.802 424.07 337.409 420.402 337.672 416.532C337.886 416.616 338.101 416.693 338.315 416.765L337.603 436.107L339.918 417.177C342.318 417.614 344.744 417.25 347.198 416.085C349.271 418.09 351.687 418.355 354.212 418.065C354.668 418.769 355.199 419.451 355.812 420.11C356.24 419.488 356.668 418.866 357.095 418.243C357.014 418.166 356.932 418.088 356.851 418.01C356.525 418.477 356.199 418.943 355.873 419.41C355.873 419.002 355.873 418.593 355.873 418.185C353.194 415.365 352.74 412.652 353.302 409.988C356.588 411.864 358.855 411.947 360.735 411.351C359.739 413.24 358.659 415.13 357.523 417.018C358.073 416.961 358.623 416.494 359.172 415.969C362.187 417.913 365.282 417.757 368.948 415.502C372.359 417.602 375.821 417.485 378.907 415.852C379.579 416.28 380.251 416.707 380.923 417.135C379.419 415.128 377.914 413.121 376.41 411.114C378.64 411.644 381.225 411.402 383.998 410.748C385.245 412.575 385.107 414.945 383.584 417.861C383.632 418.581 383.526 419.153 383.266 419.579C382.936 419.095 382.501 418.611 381.962 418.127C381.706 417.919 381.439 418.055 381.717 418.302C382.288 418.866 382.695 419.429 382.939 419.993C381.017 421.173 378.501 420.619 376.222 420.009C377.501 421.424 381.086 422.193 383.489 420.518C383.668 420.394 383.96 419.886 384.225 419.324C386.311 420.114 388.808 419.601 392.144 416.421C394.396 417.534 396.683 417.883 399.008 417.472L401.513 436.018L400.579 417.08C400.889 416.981 401.2 416.868 401.511 416.742C401.51 422.092 403.206 426.31 406.174 429.68ZM411.271 415.096C413.963 420.326 413.515 425.344 409.928 430.147C410.101 430.781 410.275 431.415 410.448 432.049C405.693 430.014 402.588 425.27 401.885 416.583C402.768 416.195 403.656 415.701 404.549 415.099C405.225 415.44 405.593 415.488 406.024 415.595C407.152 419.453 408.279 423.312 409.407 427.17C408.655 423.367 407.903 419.564 407.152 415.76C408.837 415.819 410.183 415.636 411.271 415.096ZM333.301 415.22L329.863 427.428L331.896 415.382C330.462 415.456 329.281 415.213 328.318 414.697C325.387 418.912 325.945 424.076 329.408 430.032C329.286 430.639 329.165 431.247 329.044 431.854C335.307 428.436 336.981 422.742 337.314 416.385C336.43 416.006 335.549 415.518 334.673 414.919C334.195 415.045 333.739 415.145 333.301 415.22ZM361.235 411.174C361.149 412.432 361.035 413.703 359.539 415.56C363.527 417.113 366.367 416.111 368.887 414.393C371.229 416.168 374.304 416.547 378.113 415.21C377.041 413.895 376.401 412.512 376.192 411.06C375.439 410.862 374.727 410.573 374.064 410.177C368.919 412.633 366.291 411.244 363.624 409.914C362.857 410.385 362.082 410.842 361.235 411.174ZM384.831 409.526C385.745 407.071 386.245 404.616 386.612 402.161C386.201 402.433 385.746 402.705 385.24 402.976C386.006 400.927 385.071 399.273 382.296 396.478C381.315 395.776 380.748 394.546 380.457 393.668C380.076 395.726 379.45 397.318 378.668 398.609C378.145 403.735 382.338 406.596 384.826 409.519L384.831 409.526ZM353.057 409.335C353.004 408.732 352.951 408.129 352.898 407.525C356.153 404.629 358.418 401.579 358.315 398.376C358.072 395.339 358.113 394.352 356.782 395.239C354.497 396.524 352.441 397.809 350.156 399.095C350.046 398.894 349.942 398.694 349.842 398.493C348.618 401.735 349.133 405.205 352.403 408.904C352.621 409.058 352.839 409.202 353.057 409.335ZM317.545 406.051C316.626 404.728 316.215 403.292 315.932 401.826C311.106 404.198 306.28 406.57 301.454 408.943C305.704 406.194 309.953 403.446 314.202 400.698C313.239 399.699 312.449 398.605 311.92 397.365C306.969 398.726 301.889 399.664 299.633 409.897C299.017 410.315 298.41 410.718 297.812 411.11C305.265 411.721 311.843 410.035 317.545 406.051ZM309.699 384.92C309.429 383.916 309.32 382.586 309.467 380.737C306.311 379.551 303.154 378.365 299.998 377.179C303.366 377.989 306.735 378.799 310.105 379.609C310.803 378.437 311.652 377.338 312.836 376.398C312.789 376.342 312.627 376.053 312.582 375.997C311.685 375.628 310.813 375.236 309.984 374.791C306.15 374 299.791 374.099 296.628 375.916L297.848 376.149C300.303 382.076 305.073 385.105 309.699 384.92ZM311.459 374.135C310.958 372.641 311.155 371.036 312.108 369.542C310.165 367.806 308.223 366.07 306.28 364.335C308.465 365.839 310.651 367.343 312.836 368.848C314.247 367.692 315.564 367.187 317.413 367.075C316.665 366.359 315.911 365.641 315.15 364.923C311.202 363.127 307.401 362.033 303.913 362.425C304.307 362.715 304.702 363.004 305.096 363.293C305.148 368.523 307.019 372.426 311.459 374.135ZM352.91 393.532C354.207 391.548 355.839 389.67 357.806 387.899C356.774 387.732 354.933 388.412 354.082 389.737C353.263 391.068 352.949 392.2 352.91 393.532ZM363.288 397.847C364.285 397.287 364.355 395.836 364.836 394.371C365.199 392.999 366.482 391.787 367.933 390.616C366.391 390.695 365.024 391.308 364.041 393.092C363.455 394.597 363.414 396.222 363.288 397.847ZM376.621 391.319C378.605 389.25 379.845 385.658 380.186 380.228C381.19 383.939 383.038 387.02 386.743 388.714C384.909 388.781 383.075 389.026 381.242 386.236C380.168 389.563 378.406 390.48 376.621 391.319ZM375.816 398.249C375.342 398.143 374.925 397.766 374.908 395.483C374.932 393.579 373.81 392.044 372.863 390.577C374.347 391.365 375.431 392.418 375.93 393.857C376.346 394.941 375.854 396.785 375.816 398.249ZM383.341 389.845C385.856 391.664 385.596 395.254 386.521 397.218C387.321 394.821 387.321 392.512 386.152 390.333C385.3 390.116 384.335 390.089 383.341 389.845ZM408.305 384.125C405.479 384.269 402.583 384.352 399.875 381.825C397.063 378.947 395.384 373.485 397.472 368.081C401.169 358.314 408.965 349.797 416.33 344.203C409.679 351.084 403.242 358.186 399.32 367.904C397.918 372.398 397.826 376.745 400.615 380.768C402.376 383.178 405.49 383.095 408.355 383.06C408.389 382.689 408.44 382.307 408.508 381.915C404.049 381.706 401.6 380.784 401.132 378.463C400.317 374.144 402.906 372.187 406.651 372.114C406.034 367.379 407.413 364.787 410.159 363.66C407.492 365.213 406.362 368.043 406.966 372.377C402.906 372.452 401.027 374.431 401.487 378.313C402.089 380.745 405.037 381.401 408.578 381.542C408.672 381.064 408.791 380.572 408.935 380.063C406.049 379.911 404.108 378.971 403.111 377.244C404.94 374.959 407.095 374.067 409.397 373.808C408.645 370.804 409.231 368.055 411.43 365.613C414.794 366.85 416.858 368.817 417.624 371.517C419.695 370.506 421.895 370.088 424.557 371.781C424.728 373.566 424.083 375.077 422.246 376.187C424.904 378.556 426.675 380.89 426.498 383.147C423.075 383.939 419.809 384.103 416.977 382.53C415.898 384.892 413.402 386.86 409.489 388.434C408.699 387.242 408.305 385.806 408.305 384.125ZM403.539 377.34C407.42 377.227 411.302 377.115 415.184 377.002C413.353 380.618 411.523 384.233 409.693 387.848C408.438 386.217 408.571 383.262 409.206 379.83C406.188 379.57 404.549 378.613 403.539 377.34ZM411.42 366.156C412.782 369.641 414.103 373.165 415.228 376.876C412.852 376.285 411.066 375.3 409.87 373.922C408.953 370.552 409.857 368.174 411.42 366.156ZM416.91 376.032C419.301 374.738 421.693 373.443 424.084 372.149C422.253 370.686 420.187 370.574 417.885 371.811C418.061 373.218 417.678 374.625 416.91 376.032ZM415.759 377.467C419.08 379.281 422.401 381.096 425.722 382.911C422.452 383.566 419.338 383.679 416.778 381.856C416.261 380.392 415.921 378.929 415.759 377.467ZM408.949 400.543C404.19 403.015 396.115 404.907 389.191 405.315L388.108 408.927C396.86 408.411 404.528 405.53 408.949 400.543ZM411.385 403.638C418.073 397.662 420.802 391.126 417.746 383.774C419.777 384.421 421.49 384.463 423.159 384.419C424.513 393.341 419.416 399.189 411.385 403.638ZM442.553 379.037C447.775 378.17 453.095 377.704 458.313 377.97C465.146 374.475 469.23 370.899 468.914 367.404C464.752 374.424 455.663 377.529 443.293 377.424C443.445 377.039 443.581 376.654 443.704 376.268C447.83 375.544 451.841 374.089 455.966 371.645C461.094 367.595 463.404 363.799 464.706 360.231C464.059 360.583 463.568 361.032 462.921 361.384C458.799 368.701 452.22 373.569 442.676 375.482C439.517 374.351 436.529 374.057 433.616 373.895C441.72 370.048 450.04 366.582 458.391 362.97C449.624 365.885 440.965 368.954 432.692 372.574C437.807 368.315 443.388 364.552 449.736 361.233C455.934 356.54 455.881 352.728 455.562 349.741C454.032 356.544 445.903 361.977 435.003 369.402C435.373 367.787 435.558 366.348 435.927 364.732C438.578 362.265 441.227 359.798 443.878 357.331C449.609 350.299 450.919 344.465 451.458 340.062C450.749 340.943 450.04 341.824 449.332 342.705C447.691 350.003 443.084 356.788 436.02 363.146C435.959 362.882 435.897 362.617 435.835 362.353C431.343 361.997 427.684 362.788 424.65 364.439C431.711 357.996 439.592 351.624 446.189 344.996C438.639 351.281 431.09 357.566 423.54 363.851C424.013 362.313 424.184 360.693 423.862 358.938C428.213 355.23 432.037 351.521 435.493 347.813C441.104 342.172 443.273 336.526 444.314 332.001C443.306 332.779 442.297 333.557 441.289 334.334C438.141 342.008 432.87 350.085 423.85 358.877C423.557 357.333 422.881 355.683 421.691 353.895C421.352 353.924 421.014 353.953 420.675 353.983C426.283 348.549 431.891 343.557 437.499 337.682C430.566 343.292 423.818 349.607 416.977 355.569C412.886 358.339 411.137 360.831 410.991 363.131C413.11 358.672 416.676 355.388 421.322 354.335C421.106 354.747 420.983 355.158 420.767 355.569C423.686 360.674 423.195 364.883 419.297 368.196C419.232 368.216 419.168 368.236 419.103 368.257C418.983 366.847 418.584 365.437 416.238 364.027C417.378 361.854 418.518 359.68 419.658 357.507C418.21 359.534 416.761 361.56 415.313 363.587C413.6 363.181 413.201 363.403 412.54 363.499C415.991 364.233 417.963 366.26 418.456 369.578C423.463 366.619 430.304 370.951 425.297 377.156C428.512 379.694 430.378 382.953 427.423 388.786C427.901 388.295 428.329 387.789 428.693 387.264C434.583 386.744 440.615 388.518 446.743 391.87C446.096 391.87 445.449 391.87 444.802 391.87C438.814 396.587 433.282 397.539 428.009 396.347C428.309 395.045 428.328 393.661 428.162 392.222C432.507 392.046 436.852 391.87 441.197 391.694C436.636 391.4 432.076 391.106 427.515 390.813C427.312 390.255 427.107 389.698 426.903 389.141C426.491 389.346 426.079 389.551 425.667 389.755C428.748 395.071 427.639 399.212 422.339 402.179C422.123 407.069 418.734 408.802 414.758 409.227C414.204 410.167 413.834 411.195 413.279 412.135C413.711 411.577 414.419 410.931 414.851 410.373C415.22 410.431 415.405 410.578 415.775 410.637C418.98 413.603 422.185 416.57 425.389 419.536C422.554 416.335 419.72 413.134 416.885 409.932C418.515 409.342 419.736 408.588 420.703 407.651C425.223 411.636 427.788 416.366 427.515 422.179C428.008 422.679 428.501 423.178 428.994 423.677C429.303 423.149 429.611 422.62 429.919 422.091C432.754 427.332 435.588 432.588 438.424 438.304C441.89 443.241 448.86 448.309 459.5 452.753L457.744 450.11C445.803 442.232 435.85 432.144 429.826 417.686C429.346 414.577 427.2 411.467 424.247 408.358C425.939 409.294 428.039 410.099 430.226 410.715C438.296 420.283 446.312 430.161 454.139 441.123C451.203 432.531 443.681 422.273 435.601 411.814C438.936 412.231 441.831 412.053 443.023 411.042C443.061 411.054 443.1 411.066 443.138 411.078C452.423 419.083 460.48 421.239 468.282 422.179C459.297 418.304 450.822 414.105 444.802 408.346C447.202 409.404 449.601 410.463 452.001 411.521C460.956 413.94 469.291 414.502 476.52 411.752C475.777 411.439 475.034 411.126 474.291 410.813C465.162 412.443 456.981 411.063 449.332 407.994C443.835 405.332 439.714 402.014 436.968 398.042C437.446 397.918 437.935 397.768 438.438 397.586C445.305 402.07 452.171 403.87 459.038 405.439C452.221 402.788 445.369 400.152 440.721 396.583C440.826 396.529 440.932 396.473 441.039 396.417C447.146 396.002 452.301 396.495 457.018 397.407C467.763 396.058 473.071 393.444 473.931 389.616C467.198 393.42 456.298 394.335 444.205 394.423C445.187 393.716 446.216 392.9 447.298 391.958C446.49 391.401 445.646 390.877 444.764 390.39C448.685 390.475 453.663 389.393 456.776 389.925C466.701 388.301 470.843 385.165 473.364 382.212C472.502 382.259 471.64 382.307 470.778 382.354C462.793 387.267 453.131 388.525 443.43 389.698C440.993 388.51 438.27 387.596 435.188 387.024C442.398 385.584 449.609 384.232 456.82 383.499C450.379 383.639 443.939 384.123 437.499 384.733C440.016 382.834 441.546 380.935 442.553 379.037ZM421.829 406.375C422.693 405.189 423.26 403.829 423.633 402.355C428.347 404.587 433.062 406.819 437.776 409.051C433.555 406.378 429.333 403.706 425.112 401.033C426.327 399.995 427.133 398.837 427.626 397.587C428.742 397.881 429.866 398.155 431.033 398.325C435.469 400.705 438.641 404.692 440.55 410.284C441.155 410.47 441.761 410.655 442.367 410.841C438.899 412.805 427.293 410.207 421.829 406.375ZM429.746 385.18C430.154 383.898 430.168 382.5 429.641 380.944C432.846 379.799 436.051 378.653 439.256 377.508C435.927 378.33 432.6 379.153 429.272 379.975C428.655 378.389 427.669 377.273 426.313 376.627C426.408 376.502 426.498 376.374 426.584 376.244C430.275 374.26 437.85 373.597 442.907 376.238C442.522 376.338 442.136 376.439 441.751 376.539C438.806 382.326 434.804 385.207 429.746 385.18ZM427.384 374.598C427.817 373.26 427.841 371.662 427.238 369.666C429.056 368.139 430.874 366.612 432.692 365.085C430.566 366.465 428.44 367.845 426.313 369.226C424.24 367.574 422.646 367.408 421.192 367.675C421.978 366.917 422.781 366.162 423.596 365.408C427.768 363.334 431.776 362.352 435.558 362.882C435.157 363.175 434.757 363.469 434.356 363.763C434.095 368.112 433.381 372.299 427.384 374.598ZM322.124 382.213C320.196 383.514 317.526 383.919 313.018 382.993C312.982 381.057 313.404 379.004 317.025 376.137C315.355 374.865 314.536 373.36 314.566 371.624C316.448 370.062 318.603 369.889 321.213 371.104C322.214 368.124 324.642 366.418 327.587 365.289C329.287 367.097 330.228 369.556 329.499 373.447C331.806 373.505 334.173 374.807 335.964 377.005C334.719 378.857 333.05 379.407 330.136 379.783C330.232 380.272 330.313 380.735 330.381 381.173C336.238 381.236 337.612 378.636 337.603 376.224C337.269 373.447 335.357 372.058 331.866 372.058C332.428 365.887 330.616 364.297 328.497 363.467C331.281 364.027 332.647 366.471 332.23 371.798C335.174 371.48 337.585 373.455 337.93 375.876C338.319 379.329 335.968 381.375 330.457 381.68C330.505 382.025 330.545 382.354 330.576 382.667C337.201 383.495 339.202 380.585 340.243 376.051C341.67 367.632 335.357 357.305 322.032 343.94C329.054 347.571 344.533 365.874 341.973 375.877C339.678 383.668 335.627 384.143 330.661 383.965C330.716 385.961 330.341 387.173 329.681 387.94C325.947 386.306 322.942 384.541 322.124 382.213ZM327.496 365.897C326.282 369.513 325.068 372.955 323.854 376.571C325.614 376.065 327.375 375.371 329.135 373.708C329.579 369.485 328.752 367.34 327.496 365.897ZM315.112 371.798C317.389 373.013 319.665 374.315 321.941 375.53C321.532 374.199 321.197 372.868 321.031 371.538C317.184 369.868 316.233 370.871 315.112 371.798ZM313.473 382.646C316.782 380.766 320.09 378.886 323.398 377.005C323.125 378.567 322.73 380.13 322.214 381.692C319.131 383.633 316.31 383.066 313.473 382.646ZM324.035 376.919C325.887 380.448 327.738 383.977 329.59 387.506C330.47 385.366 330.5 382.762 329.681 379.696C332.504 379.088 334.355 378.249 335.235 377.179C331.502 377.092 327.769 377.005 324.035 376.919ZM330.051 400.156C334.81 402.628 340.449 404.262 347.373 404.67C348.185 405.917 348.997 407.164 349.809 408.411C341.058 407.895 334.472 405.143 330.051 400.156ZM316.111 384.161C315.667 394.339 320.613 399.869 327.75 403.509C321.524 397.296 318.23 390.761 321.39 383.516C319.63 384.075 317.871 384.29 316.111 384.161ZM355.812 420.868C357.986 421.111 359.87 420.431 361.555 419.118C366.25 421.126 371.117 421.486 375.486 419.293C375.75 419.546 375.954 419.857 376.096 420.11C371.209 422.502 366.626 422.365 362.227 419.935C359.83 421.734 357.722 421.87 355.812 420.868ZM364.339 426.659C365.198 426.567 366.058 426.474 366.917 426.382C366.821 427.871 366.724 429.36 366.627 430.849C366.284 429.319 365.715 427.861 364.339 426.659ZM372.172 426.413C372.054 429.658 371.936 432.903 371.817 436.148C372.491 432.572 373.475 429.29 375.009 426.536C374.063 426.495 373.117 426.454 372.172 426.413ZM364.733 434.162L364.968 438.047L365.237 437.951L365.103 434.194L364.733 434.162ZM364.901 440.424L364.968 442.864H365.237V440.52L364.901 440.424ZM364.868 445.979V447.199H365.204L365.237 445.979H364.868ZM364.935 449.447L364.901 451.405L365.17 451.373L365.204 449.447H364.935ZM338.362 446.7C341.352 446.391 343.97 444.548 346.38 441.844C349.037 441.597 351.561 440.4 354.024 438.772C352.253 440.803 349.564 442.334 345.764 443.26C343.069 446.122 340.428 447.523 337.831 447.714C338.008 447.376 338.185 447.038 338.362 446.7ZM336.235 450.813C339.55 450.262 342.232 448.553 344.387 445.885C347.071 445.617 349.613 444.403 352.104 442.846C350.277 444.994 347.349 446.407 343.591 447.265C341.912 449.775 339.171 451.144 335.947 451.996C336.279 450.852 336.304 450.458 336.235 450.813ZM333.689 456.837C337.791 456.222 340.225 454.384 341.816 451.927C344.883 451.736 347.346 450.463 349.64 448.888C347.994 450.742 345.503 452.318 341.344 453.343C338.507 456.411 335.802 457.642 333.157 458.039C333.334 457.638 333.512 457.238 333.689 456.837ZM327.727 461.906C334.015 463.135 338.78 461.537 343.228 459.351C342.6 465.897 344.955 470.723 351.669 473.034C348.95 472.697 346.283 471.353 343.66 469.175C342.318 467.207 341.721 464.565 342.214 460.939C340.354 461.878 338.417 462.718 336.268 463.288C332.617 463.959 329.141 464.385 327.727 461.906ZM329.822 471.736C332.392 471.519 334.85 471.009 337.033 469.779C336.101 471.137 334.395 471.943 331.917 472.197C331.218 472.043 330.52 471.89 329.822 471.736ZM324.826 476.498C327.528 477.326 330.057 476.95 332.469 475.752C330.695 477.326 328.63 477.933 326.277 477.573C325.793 477.214 325.309 476.856 324.826 476.498ZM320.714 482.411C322.415 482.336 324.247 482.009 326.238 481.38C325.383 482.159 324.471 482.914 321.764 482.948C321.414 482.77 321.064 482.591 320.714 482.411ZM316.769 486.02C318.657 486.784 320.775 486.947 323.05 486.698C320.96 487.644 319.02 487.899 317.413 486.635C317.198 486.43 316.983 486.225 316.769 486.02ZM327.94 499.785C329.341 500.096 330.742 500.084 332.143 499.75C331.66 500.389 330.24 500.844 329.462 500.786C328.325 500.521 328.157 500.118 327.94 499.785ZM301.64 507.864C302.243 509.441 303.62 510.65 305.769 511.49C305.239 511.709 304.509 511.674 303.688 511.524C301.918 509.994 301.477 508.843 301.64 507.864ZM292.655 498.058C292.513 500.861 293.691 502.679 295.771 503.824C294.873 503.854 293.866 503.578 293.295 503.089C291.505 500.531 291.642 499.05 292.655 498.058ZM291.83 486.631C291.761 487.818 291.985 488.95 292.454 490.036C291.981 489.789 291.525 489.43 291.106 488.824C291.16 487.939 291.401 487.208 291.83 486.631ZM376.556 425.458C373.745 425.808 371.169 425.036 368.787 423.332C366.504 425.333 363.442 425.808 359.439 424.441C363.106 426.115 364.616 428.774 364.5 432.174C364.918 429.88 364.502 427.793 362.598 426.074C365.37 426.331 367.626 425.766 369.367 424.379C371.852 426.01 374.243 426.292 376.556 425.458ZM379.488 424.477C376.24 426.242 374.753 429.308 374.753 437.495C374.935 442.674 375.026 447.331 375.026 452.336C375.087 455.431 374.419 457.948 373.023 459.886C371.338 462.359 370.033 464.905 369.563 467.61C369.502 465.383 369.441 463.155 369.38 460.927C370.412 459.626 371.445 458.324 372.476 457.022C373.358 455.548 373.572 453.986 373.478 451.815C373.508 446 373.539 440.186 373.569 434.371C373.705 428.881 376.679 424.759 379.488 424.477ZM348.155 457.831C348.49 461.828 349.849 465.022 351.923 467.362C351.957 466.635 352.28 465.874 352.604 465.285C350.747 462.978 349.428 460.416 348.155 457.831ZM359.358 470.672C361.795 467.429 363.427 463.693 363.624 459.08C368.261 464.683 369.161 469.117 368.866 473.177C367.983 469.353 366.965 465.734 365.002 463.544C363.823 467.654 361.621 469.237 359.358 470.672ZM370.042 473.145C369.692 466.848 371.993 463.642 375.115 459.24C375.726 463.518 377.191 467.369 379.684 470.704C377.488 469.273 375.371 467.531 373.805 463.608C372.017 465.769 370.931 469.269 370.042 473.145ZM375.484 471.7C375.645 475.316 378.045 479.097 381.7 482.97C379.997 479.481 378.383 475.991 377.4 472.502C376.761 472.235 376.123 471.967 375.484 471.7ZM361.239 471.989C362.695 470.693 363.725 469.398 364.465 468.103C364.655 473.394 365.292 478.62 366.648 483.741C365.517 481.504 364.386 479.267 363.255 477.03C359.149 483.112 355.108 487.451 351.361 483.837C357.001 485.623 359.93 480.872 361.627 473.151C361.498 472.763 361.368 472.376 361.239 471.989ZM357.403 496.9C361.142 493.486 363.533 489.981 365.002 486.412C364.86 488.305 364.718 490.198 364.577 492.09C362.383 494.26 359.921 495.66 357.403 496.9ZM368.042 490.004C369.384 494.206 370.266 498.532 370.474 503.042C371.345 497.788 371.831 492.535 372.054 487.281C371.325 488.672 370.575 490.063 369.683 491.453C369.136 490.97 368.589 490.487 368.042 490.004ZM376.067 486.354C377.957 489.898 380.135 493.259 382.511 496.494C380.481 495.278 378.408 494.171 377.039 491.221C376.35 489.657 376.27 487.976 376.067 486.354ZM387.352 465.592C388.937 463.341 390.101 460.769 391.179 458.13C390.981 461.245 390.592 464.345 387.946 467.265C387.792 466.708 387.607 466.15 387.352 465.592ZM367.86 486.991C368.346 487.86 368.832 488.73 369.318 489.599C369.339 488.884 369.359 488.17 369.379 487.455C372.344 479.508 373.165 473.265 373.209 467.637C374.547 468.835 375.884 470.033 377.222 471.23C375.641 470.593 374.729 470.612 374.669 471.636C374.408 475.126 373.721 478.617 372.666 482.107C378.081 486.88 377.712 512.844 371.293 520.116C371.293 519.139 371.186 518.01 371.136 516.962C364.351 508.343 364.741 494.877 366.583 486.18C365.121 498.245 365.555 508.944 371.189 515.898C377.099 505.687 375.284 489.587 372.531 482.546C371.705 485.206 370.666 487.866 369.44 490.526C368.506 489.154 368.142 488.053 367.86 486.991ZM387.223 443.159C389.714 444.887 392.3 446.132 395.096 446.313C397.313 449.062 400.115 450.697 403.449 451.319C403.681 451.644 403.914 451.969 404.147 452.294C401.05 451.916 398.116 450.741 395.628 447.364C392.199 447.05 389.536 445.407 387.223 443.159ZM390 449.503C392.205 450.844 394.664 451.944 397.682 452.512C399.751 454.988 402.367 456.735 405.957 457.181C406.228 457.546 406.5 457.911 406.771 458.275C403.697 458.04 400.806 456.578 398.138 453.636C394.076 452.817 391.727 451.288 390 449.503ZM388.319 473.426C395.775 470.353 397.002 465.301 396.237 459.617C401.273 462.322 406.543 463.472 412.188 462.117C411.42 464.108 408.84 464.841 403.61 463.737C401.194 463.034 399.097 462.18 397.301 461.03C397.693 463.898 398.002 466.76 395.732 469.432C393.489 472.11 390.831 473.2 388.319 473.426ZM410.084 471.836C407.554 471.938 405.233 471.308 403.006 470.346C404.345 471.558 405.929 472.537 408.385 472.684C409.173 472.528 409.803 472.281 410.084 471.836ZM415.101 476.772C413.168 477.684 410.873 477.506 408.331 476.581C409.46 477.702 411.439 478.227 413.887 478.006C414.647 477.836 415.052 477.424 415.101 476.772ZM377.575 496.25C377.545 497.204 377.515 498.159 377.484 499.113C382.887 503.801 388.744 506.607 395.604 505.276C403.799 502.252 403.133 495.147 400.885 493.906C401.461 499.316 399.762 502.527 394.967 503.54C387.437 504.411 379.911 500.245 377.575 496.25ZM408.784 500.459C409.876 500.402 410.967 500.345 412.058 500.288C411.867 500.65 411.12 500.965 410.118 501.231C409.699 500.937 409.407 500.716 408.784 500.459ZM435.029 511.96C437.046 511.293 438.463 509.897 439.365 508.263C439.161 509.281 438.767 510.373 437.037 511.973C436.176 512.078 435.392 512.135 435.143 511.851M444.955 504.058C447.3 502.868 448.086 500.935 447.998 498.584C449.176 498.859 448.969 500.684 447.815 503.569C445.843 504.217 445.297 504.186 444.955 504.058ZM448.264 490.283C448.682 489.244 448.897 488.205 448.911 487.166C449.237 487.218 449.424 487.801 449.548 488.627C449.463 489.56 448.958 490.027 448.264 490.283ZM419.638 482.725C417.511 482.689 415.504 482.309 413.579 481.692C414.533 482.516 415.842 483.211 418.421 483.454C419.017 483.454 419.347 483.114 419.638 482.725ZM417.306 487.275C419.529 487.412 421.627 487.157 423.546 486.328C423.37 486.615 423.194 486.902 423.018 487.19C420.898 488.194 419.02 488.107 417.306 487.275ZM338.739 494.93C338.293 501.845 341.495 504.742 348.344 503.622C354.363 502.25 360.868 498.909 364.577 495.162C364.577 496.147 364.577 497.132 364.577 498.117C359.186 502.382 353.187 504.825 348.77 505.534C337.956 506.687 335.983 499.069 338.739 494.93ZM364.737 503.453C364.888 504.552 365.04 505.651 365.192 506.751C359.699 514.59 354.205 520.868 347.072 521.157C339.174 521.165 336.609 517.736 337.694 511.958C338.801 517.556 342.079 519.176 346.344 518.987C352.756 518.163 359.175 512.319 364.737 503.453ZM369.016 518.727L369.927 525.41L372.112 520.81L370.655 521.331L369.016 518.727ZM377.211 506.317C383.156 513.744 388.232 519.303 395.331 518.814C401.048 518.184 401.802 515.462 402.433 512.218C403.113 516.185 402.483 520.729 395.149 521.504C387.966 521.691 381.843 516.259 376.574 509.094C376.786 508.168 376.999 507.243 377.211 506.317ZM370.473 533.481C370.686 532.208 370.898 530.849 371.11 529.576C374.112 525.235 375.008 517.633 376.028 510.222C376.604 511.379 377.181 512.537 377.758 513.694C377.539 524.105 374.422 530.997 370.473 533.481ZM365.002 453.364C364.83 455.775 366.079 458.52 367.791 461.36C367.824 461.199 367.858 461.039 367.891 460.878C366.468 458.403 365.359 455.946 365.372 453.557C365.248 453.492 365.125 453.428 365.002 453.364Z" fill="#C0A062"/>
<path fill-rule="evenodd" clip-rule="evenodd" d="M346.955 344.834C346.511 339.783 347.035 335.527 354.341 336.843C358.034 337.668 361.327 341.536 364.222 344.739C368.78 346.007 372.573 348.766 373.505 352.73C373.704 354.189 372.54 355.013 371.209 354.062C368.647 352.857 366.484 352.793 364.721 353.872C365.098 352.208 364.921 349.8 367.116 350.923C369.046 351.43 369.046 350.352 368.115 349.02C365.919 347.022 363.057 346.42 359.531 347.213C356.686 343.422 352.195 343.295 346.955 344.834Z" fill="#BA984F"/>
<path fill-rule="evenodd" clip-rule="evenodd" d="M59.2952 485.438L56.6955 475.736L88.5243 467.208C93.4782 465.88 96.6643 464.909 98.0898 464.263C100.576 463.142 102.299 461.58 103.29 459.584C104.267 457.592 104.406 455.267 103.698 452.626C103.097 450.381 102.099 448.683 100.719 447.528C99.3427 446.386 97.6866 445.789 95.7682 445.745C93.8637 445.698 89.9763 446.461 84.1196 448.03L51.6062 456.742L48.9955 446.999L79.8669 438.728C87.7487 436.615 93.5685 435.511 97.2954 435.407C101.04 435.313 104.392 436.439 107.359 438.812C110.341 441.181 112.467 444.791 113.761 449.621C115.107 454.643 115.256 458.812 114.205 462.116C113.168 465.415 111.169 468.136 108.24 470.285C105.31 472.433 99.4441 474.68 90.6453 477.038L59.2952 485.438ZM112.257 294.976C117.057 305.969 125.096 303.989 123.636 295.385L128.744 295.546C130.672 303.752 127.116 312.273 119.172 309.845C115.609 308.755 112.42 305.267 110.497 301.427L96.1789 302.306L91.3604 321.633L103.782 328.964L101.191 339.356L46.8515 305.79L49.4321 295.44L113.3 290.792L112.257 294.976ZM105.055 422.694L44.6624 430.11L42.0779 409.06C41.4164 403.675 41.4922 399.755 42.2916 397.316C43.0913 394.877 44.7421 392.747 47.2327 390.943C49.735 389.123 52.8513 387.998 56.5775 387.54C61.3021 386.96 65.2508 387.617 68.4111 389.527C71.5735 391.451 73.7827 394.448 75.025 398.521C76.3091 396.194 77.765 394.216 79.4219 392.6C81.0773 390.969 84.1189 388.655 88.5466 385.656L99.5922 378.205L101.053 390.101L88.7964 398.971C84.3776 402.154 81.6138 404.292 80.5345 405.38C79.4534 406.455 78.7604 407.553 78.4241 408.651C78.102 409.747 78.0822 411.448 78.3653 413.754L78.6193 415.821L103.831 412.725L105.055 422.694ZM68.9734 417.005L68.0617 409.581C67.5058 405.053 66.9551 402.195 66.4095 401.006C65.8638 399.817 64.9397 398.917 63.6358 398.292C62.3329 397.681 60.6679 397.486 58.6709 397.731C56.7447 397.967 55.2463 398.551 54.1723 399.454C53.1004 400.371 52.4265 401.509 52.153 402.885C51.9577 403.851 52.1501 406.582 52.6993 411.053L53.661 418.885L68.9734 417.005ZM100.521 379.406L89.4487 379.019L50.9199 351.435L50.1074 374.697L39.8145 374.338L41.089 337.838L50.6318 338.172L90.6942 366.9L91.6849 338.528L101.935 338.886L100.521 379.406ZM85.459 302.963L61.8896 304.152L82.1655 316.172L85.459 302.963ZM57.6277 264.3L64.5106 247.264C66.2514 242.956 68.0539 239.894 69.8989 238.088C71.7439 236.282 74.1902 234.917 77.2187 234.002C80.239 233.068 83.7915 232.822 87.8596 233.228C91.9358 233.653 96.6668 234.953 102.078 237.139C106.964 239.114 110.971 241.374 114.137 243.937C117.291 246.494 119.573 249.051 121.003 251.6C122.42 254.144 123.174 256.817 123.267 259.65C123.36 262.484 122.656 265.775 121.128 269.558L114.043 287.093L57.6277 264.3ZM70.9343 258.859L108.291 273.951L111.124 266.937C112.334 263.942 112.94 261.65 112.916 260.082C112.898 258.501 112.49 257.053 111.692 255.737C110.9 254.409 109.387 252.973 107.146 251.41C104.917 249.853 101.784 248.266 97.7521 246.637C93.5749 244.949 90.1613 243.906 87.5109 243.508C84.874 243.115 82.6084 243.238 80.7354 243.903C78.8496 244.562 77.3491 245.667 76.2099 247.238C75.3379 248.414 74.1611 250.872 72.6485 254.616L70.9343 258.859ZM149.967 214.075L104.046 174.156L113.926 162.791L151.191 183.191L125.747 149.191L135.655 137.794L181.576 177.712L175.452 184.758L139.303 153.335L168.946 192.242L162.569 199.577L119.971 175.574L156.12 206.997L149.967 214.075ZM167.228 149.735C162.762 144.02 159.927 138.666 158.737 133.645C157.536 128.633 157.592 124.149 158.903 120.212C160.214 116.275 162.812 112.79 166.697 109.755C172.323 105.359 178.575 103.926 185.483 105.45C192.38 106.983 198.934 111.714 205.136 119.651C211.398 127.667 214.424 135.406 214.197 142.847C214.026 149.416 211.113 154.892 205.464 159.306C199.771 163.753 193.739 165.284 187.367 163.916C180.093 162.336 173.377 157.606 167.228 149.735ZM175.146 143.028C179.455 148.542 183.732 151.853 187.973 152.979C192.227 154.097 195.897 153.458 199.001 151.033C202.116 148.599 203.622 145.212 203.539 140.872C203.456 136.532 201.193 131.541 196.762 125.87C192.418 120.31 188.215 116.979 184.132 115.872C180.07 114.767 176.42 115.48 173.193 118C169.967 120.521 168.379 123.919 168.451 128.177C168.522 132.454 170.75 137.401 175.146 143.028ZM229.105 140.691L201.481 86.4764L220.377 76.8482C225.212 74.3852 228.921 73.1153 231.486 73.0324C234.052 72.9498 236.618 73.7726 239.165 75.4957C241.732 77.2248 243.854 79.7686 245.559 83.1134C247.72 87.3548 248.453 91.29 247.739 94.913C247.013 98.5424 244.952 101.644 241.55 104.204C244.176 104.615 246.532 105.307 248.617 106.31C250.716 107.309 253.931 109.375 258.264 112.51L269.043 120.341L258.364 125.782L245.837 117.299C241.335 114.235 238.381 112.369 236.989 111.727C235.609 111.079 234.34 110.803 233.193 110.862C232.053 110.935 230.448 111.498 228.378 112.553L226.522 113.498L238.054 136.131L229.105 140.691ZM222.111 104.839L228.775 101.443C232.84 99.3726 235.337 97.877 236.268 96.9578C237.199 96.0383 237.728 94.8623 237.869 93.423C237.998 91.9901 237.612 90.3584 236.699 88.5659C235.817 86.8367 234.757 85.6285 233.541 84.928C232.313 84.2342 231.012 83.9904 229.626 84.2037C228.652 84.3508 226.151 85.4655 222.137 87.5107L215.106 91.0933L222.111 104.839ZM264.125 101.3L273.111 97.1435C276.566 104.199 281.219 106.783 287.066 104.884C289.95 103.947 291.982 102.452 293.144 100.391C294.324 98.3394 294.538 96.1999 293.811 93.9634C293.382 92.6428 292.736 91.6163 291.859 90.8889C290.977 90.1472 289.843 89.6817 288.465 89.474C287.086 89.2667 283.91 89.2111 278.901 89.2894C274.416 89.3762 270.991 89.0141 268.632 88.1719C266.264 87.3477 264.138 85.9385 262.254 83.9436C260.369 81.9491 258.994 79.596 258.114 76.8878C257.089 73.735 256.88 70.6601 257.485 67.6628C258.108 64.6751 259.467 62.1183 261.566 60.0061C263.683 57.9032 266.585 56.2456 270.304 55.0373C275.882 53.2246 280.724 53.3199 284.835 55.3357C288.955 57.3334 292.022 61.1332 294.027 66.7086L284.614 70.3331C283.171 67.3606 281.564 65.4848 279.76 64.7006C277.974 63.9257 275.778 63.9537 273.205 64.7899C270.631 65.6261 268.812 66.8128 267.775 68.3414C266.724 69.8746 266.457 71.4361 266.982 73.0529C267.494 74.6293 268.557 75.7441 270.173 76.4102C271.794 77.0902 275.085 77.3166 280.046 77.1348C285.325 76.969 289.278 77.3077 291.92 78.1479C294.561 78.9876 296.853 80.4478 298.772 82.5051C300.696 84.5761 302.221 87.3431 303.35 90.8191C304.984 95.8445 304.804 100.565 302.831 104.99C300.844 109.419 296.563 112.702 289.988 114.838C278.361 118.616 269.73 114.106 264.125 101.3ZM315.818 105.824L308.402 45.4318L318.372 44.2076L321.664 71.0223L338.606 41.7234L352.077 40.0693L336.306 65.8848L360.476 100.341L347.54 101.929L330.42 75.2565L323.546 86.3488L325.787 104.6L315.818 105.824ZM362.963 101.273L361.901 40.4361L371.944 40.2607L373.006 101.097L362.963 101.273ZM421.127 104.491L425.381 42.6386L435.357 45.3113L431.751 87.6113L451.394 49.6086L462.985 52.7143L460.441 96.0323L478.858 56.9674L488.642 59.5891L461.181 115.223L450.836 112.451L452.989 65.9344L431.678 107.318L421.127 104.491ZM512.914 117.367L521.875 121.579C518.69 128.76 519.702 133.986 524.916 137.244C527.487 138.851 529.937 139.447 532.263 139.012C534.594 138.598 536.37 137.386 537.616 135.392C538.352 134.214 538.723 133.059 538.717 131.92C538.718 130.768 538.346 129.599 537.619 128.41C536.892 127.221 534.893 124.753 531.613 120.966C528.663 117.586 526.739 114.73 525.868 112.381C524.978 110.037 524.69 107.502 525.007 104.777C525.324 102.051 526.242 99.4849 527.751 97.0702C529.508 94.2585 531.729 92.1216 534.414 90.6586C537.103 89.2154 539.935 88.613 542.902 88.8635C545.874 89.1335 549.01 90.2911 552.325 92.3629C557.3 95.4711 560.339 99.2415 561.437 103.686C562.555 108.126 561.615 112.918 558.634 118.038L549.806 113.157C551.156 110.141 551.56 107.704 551.001 105.818C550.446 103.952 549.014 102.288 546.719 100.854C544.424 99.4201 542.346 98.7897 540.508 98.9775C538.658 99.1579 537.29 99.9569 536.389 101.399C535.511 102.804 535.34 104.334 535.869 106.001C536.39 107.68 538.332 110.347 541.66 114.03C545.18 117.967 547.462 121.213 548.516 123.776C549.57 126.34 549.925 129.034 549.583 131.827C549.233 134.632 548.094 137.579 546.157 140.678C543.357 145.159 539.625 148.056 534.967 149.389C530.297 150.714 525.031 149.544 519.168 145.881C508.8 139.402 506.707 129.893 512.914 117.367ZM537.744 157.939L544.865 149.452L590.322 136.073L572.492 121.112L579.112 113.222L607.089 136.698L600.952 144.012L553.648 157.895L575.396 176.144L568.803 184.001L537.744 157.939ZM609.146 198.497L612.36 208.454C606.102 211.553 600.65 212.723 595.977 211.949C591.315 211.167 587.347 208.766 584.093 204.748C580 199.694 578.633 194.02 579.979 187.736C581.537 180.476 586.141 173.758 593.771 167.58C601.841 161.045 609.621 157.753 617.129 157.706C623.641 157.665 629.055 160.299 633.379 165.639C636.891 169.977 638.347 174.813 637.757 180.14C637.328 183.933 635.441 187.995 632.075 192.325L623.55 186.413C625.714 183.84 626.881 181.273 627.051 178.693C627.222 176.112 626.495 173.819 624.882 171.827C622.564 168.964 619.43 167.638 615.469 167.856C611.518 168.065 606.67 170.497 600.923 175.15C594.966 179.974 591.441 184.287 590.357 188.081C589.263 191.884 589.862 195.191 592.144 198.009C593.82 200.079 596.068 201.212 598.877 201.416C601.706 201.623 605.132 200.653 609.146 198.497ZM598.509 222.706L608.104 217.167L655.395 220.142L643.757 199.985L652.677 194.835L670.937 226.464L662.668 231.238L613.469 228.105L627.664 252.691L618.782 257.819L598.509 222.706ZM620.891 261.728L678.422 241.919L690.478 276.933L680.74 280.286L671.954 254.769L659.202 259.16L667.366 282.868L657.681 286.203L649.517 262.494L633.859 267.886L642.941 294.261L633.243 297.6L620.891 261.728ZM663.045 331.476L661.208 341.776C654.227 341.574 648.865 340.048 645.102 337.171C641.353 334.292 638.977 330.309 637.99 325.233C636.749 318.85 638.205 313.198 642.344 308.281C647.128 302.603 654.348 298.833 663.985 296.959C674.178 294.978 682.592 295.724 689.244 299.207C695.013 302.228 698.556 307.095 699.867 313.84C700.932 319.32 699.947 324.273 696.925 328.7C694.766 331.847 691.192 334.548 686.187 336.79L681.437 327.568C684.555 326.313 686.79 324.594 688.152 322.395C689.514 320.197 689.949 317.832 689.46 315.315C688.757 311.699 686.613 309.057 683.013 307.39C679.426 305.72 674.004 305.59 666.745 307.001C659.221 308.464 654.084 310.617 651.345 313.458C648.594 316.302 647.571 319.503 648.263 323.063C648.771 325.678 650.224 327.733 652.608 329.232C655.008 330.743 658.489 331.495 663.045 331.476ZM642.008 351.762L702.622 346.459L703.498 356.465L642.883 361.768L642.008 351.762ZM644.222 370.028L704.92 374.273L704.236 384.053L662.281 401.583L702.812 404.417L702.158 413.773L641.46 409.528L642.166 399.424L683.152 382.152L643.568 379.384L644.222 370.028ZM639.422 417.158L699.344 427.724L697.6 437.616L637.678 427.05L639.422 417.158ZM635.974 434.382L694.747 450.13L685.162 485.9L675.214 483.235L682.199 457.167L669.172 453.676L662.682 477.897L652.788 475.246L659.278 451.025L643.282 446.739L636.062 473.683L626.155 471.028L635.974 434.382Z" fill="#C0A062"/>
</svg>
