<svg width="290" height="99" viewBox="0 0 290 99" fill="none" xmlns="http://www.w3.org/2000/svg">
<g clip-path="url(#clip0_7322_16659)">
<path d="M289.737 98.3984H102.049V92.9185H289.737V98.3984Z" fill="#E30613"/>
<path d="M289.736 92.9185H102.049V87.4385H289.736V92.9185Z" fill="white"/>
<path d="M102.049 87.4387H289.736V87.0601H102.049V87.4387Z" fill="#1D1D1B"/>
<path d="M112.605 25.7824C112.748 26.0277 112.871 26.2884 112.973 26.5644C113.085 26.8302 113.193 27.1011 113.295 27.377C113.397 27.0908 113.504 26.8199 113.617 26.5644C113.729 26.2986 113.857 26.0328 114 25.7671L121.437 12.2585C121.57 12.0233 121.708 11.8802 121.851 11.8291C121.994 11.778 122.198 11.7524 122.464 11.7524H124.657V33.725H122.05V17.5791C122.05 17.3644 122.055 17.1344 122.065 16.8891C122.076 16.6437 122.091 16.3933 122.111 16.1377L114.583 29.8763C114.327 30.3363 113.97 30.5663 113.51 30.5663H113.08C112.62 30.5663 112.262 30.3363 112.007 29.8763L104.31 16.0917C104.34 16.3575 104.361 16.6182 104.371 16.8737C104.391 17.1293 104.402 17.3644 104.402 17.5791V33.725H101.795V11.7525H103.988C104.253 11.7525 104.458 11.778 104.601 11.8292C104.744 11.8803 104.882 12.0234 105.015 12.2585L112.605 25.7824Z" fill="#1D1D1B"/>
<path d="M132.615 18.1926V33.7252H129.886V18.1926H132.615ZM133.229 13.3167C133.229 13.5824 133.172 13.8329 133.06 14.068C132.958 14.2929 132.815 14.4973 132.631 14.6813C132.457 14.8551 132.252 14.9931 132.017 15.0953C131.782 15.1975 131.532 15.2487 131.266 15.2487C131 15.2487 130.75 15.1975 130.515 15.0953C130.29 14.9931 130.085 14.8551 129.901 14.6813C129.728 14.4973 129.59 14.2929 129.487 14.068C129.385 13.8329 129.334 13.5824 129.334 13.3167C129.334 13.0509 129.385 12.8005 129.487 12.5653C129.59 12.32 129.728 12.1105 129.901 11.9367C130.085 11.7527 130.29 11.6096 130.515 11.5074C130.75 11.4051 131 11.354 131.266 11.354C131.532 11.354 131.782 11.4051 132.017 11.5074C132.252 11.6096 132.457 11.7527 132.631 11.9367C132.815 12.1105 132.958 12.32 133.06 12.5653C133.172 12.8005 133.229 13.0509 133.229 13.3167Z" fill="#1D1D1B"/>
<path d="M137.43 33.7252V18.1926H139.055C139.443 18.1926 139.689 18.3817 139.791 18.7599L140.006 20.4466C140.68 19.7004 141.432 19.0973 142.26 18.6373C143.098 18.1773 144.064 17.9473 145.158 17.9473C146.006 17.9473 146.752 18.0904 147.396 18.3766C148.051 18.6526 148.592 19.0513 149.022 19.5726C149.461 20.0837 149.793 20.7021 150.018 21.4279C150.243 22.1537 150.356 22.9561 150.356 23.8352V33.7252H147.626V23.8352C147.626 22.6597 147.355 21.7499 146.814 21.1059C146.282 20.4517 145.464 20.1246 144.36 20.1246C143.553 20.1246 142.796 20.3188 142.091 20.7073C141.396 21.0957 140.752 21.6222 140.159 22.2866V33.7252H137.43Z" fill="#1D1D1B"/>
<path d="M157.516 18.1926V33.7252H154.786V18.1926H157.516ZM158.129 13.3167C158.129 13.5824 158.073 13.8329 157.96 14.068C157.858 14.2929 157.715 14.4973 157.531 14.6813C157.357 14.8551 157.153 14.9931 156.918 15.0953C156.683 15.1975 156.432 15.2487 156.166 15.2487C155.901 15.2487 155.65 15.1975 155.415 15.0953C155.19 14.9931 154.986 14.8551 154.802 14.6813C154.628 14.4973 154.49 14.2929 154.388 14.068C154.286 13.8329 154.234 13.5824 154.234 13.3167C154.234 13.0509 154.286 12.8005 154.388 12.5653C154.49 12.32 154.628 12.1105 154.802 11.9367C154.986 11.7527 155.19 11.6096 155.415 11.5074C155.65 11.4051 155.901 11.354 156.166 11.354C156.432 11.354 156.683 11.4051 156.918 11.5074C157.153 11.6096 157.357 11.7527 157.531 11.9367C157.715 12.1105 157.858 12.32 157.96 12.5653C158.073 12.8005 158.129 13.0509 158.129 13.3167Z" fill="#1D1D1B"/>
<path d="M171.224 20.7533C171.102 20.9782 170.912 21.0906 170.657 21.0906C170.504 21.0906 170.33 21.0344 170.136 20.9219C169.941 20.8095 169.701 20.6868 169.415 20.5539C169.139 20.4108 168.807 20.283 168.418 20.1706C168.03 20.0479 167.57 19.9866 167.038 19.9866C166.578 19.9866 166.164 20.0479 165.796 20.1706C165.428 20.283 165.111 20.4415 164.846 20.6459C164.59 20.8504 164.391 21.0906 164.248 21.3666C164.115 21.6324 164.048 21.9237 164.048 22.2406C164.048 22.6392 164.161 22.9715 164.386 23.2372C164.621 23.503 164.927 23.733 165.306 23.9272C165.684 24.1215 166.113 24.2952 166.594 24.4486C167.074 24.5917 167.565 24.7501 168.066 24.9239C168.577 25.0874 169.072 25.2715 169.553 25.4759C170.033 25.6803 170.463 25.9359 170.841 26.2426C171.219 26.5492 171.521 26.9275 171.746 27.3772C171.981 27.8168 172.098 28.3483 172.098 28.9719C172.098 29.6874 171.97 30.3519 171.715 30.9652C171.459 31.5683 171.081 32.0948 170.58 32.5445C170.079 32.9841 169.466 33.3316 168.74 33.5872C168.014 33.8427 167.176 33.9705 166.226 33.9705C165.142 33.9705 164.161 33.7967 163.282 33.4492C162.403 33.0914 161.656 32.6365 161.043 32.0845L161.687 31.0419C161.769 30.909 161.866 30.8068 161.978 30.7352C162.091 30.6636 162.239 30.6279 162.423 30.6279C162.607 30.6279 162.801 30.6994 163.006 30.8425C163.21 30.9856 163.455 31.1441 163.742 31.3179C164.038 31.4916 164.391 31.6501 164.8 31.7932C165.219 31.9363 165.74 32.0079 166.364 32.0079C166.895 32.0079 167.36 31.9414 167.759 31.8085C168.158 31.6654 168.49 31.4763 168.756 31.2412C169.021 31.0061 169.216 30.7352 169.338 30.4285C169.471 30.1219 169.538 29.7948 169.538 29.4472C169.538 29.0179 169.42 28.6652 169.185 28.3892C168.96 28.103 168.658 27.8628 168.28 27.6685C167.902 27.4641 167.468 27.2903 166.977 27.1472C166.496 26.9939 166.001 26.8355 165.49 26.6719C164.989 26.5084 164.493 26.3243 164.002 26.1199C163.522 25.9052 163.093 25.6395 162.714 25.3226C162.336 25.0057 162.029 24.6172 161.794 24.1572C161.569 23.687 161.457 23.1197 161.457 22.4553C161.457 21.8624 161.58 21.295 161.825 20.7533C162.07 20.2013 162.428 19.7208 162.898 19.3119C163.369 18.8928 163.946 18.5606 164.631 18.3153C165.316 18.0699 166.098 17.9473 166.977 17.9473C167.999 17.9473 168.914 18.1108 169.722 18.4379C170.539 18.7548 171.245 19.1944 171.838 19.7566L171.224 20.7533Z" fill="#1D1D1B"/>
<path d="M180.347 33.9705C179.121 33.9705 178.175 33.628 177.511 32.9431C176.857 32.2583 176.53 31.2718 176.53 29.9839V20.4772H174.659C174.495 20.4772 174.357 20.4312 174.245 20.3392C174.132 20.237 174.076 20.0837 174.076 19.8792V18.7906L176.621 18.4686L177.25 13.6693C177.271 13.5159 177.337 13.3933 177.449 13.3013C177.562 13.199 177.705 13.1479 177.879 13.1479H179.259V18.4992H183.705V20.4772H179.259V29.7998C179.259 30.454 179.417 30.9396 179.734 31.2565C180.051 31.5734 180.46 31.7318 180.961 31.7318C181.247 31.7318 181.492 31.6961 181.697 31.6245C181.911 31.5427 182.095 31.4558 182.249 31.3638C182.402 31.2718 182.53 31.1901 182.632 31.1185C182.745 31.0367 182.842 30.9958 182.923 30.9958C183.067 30.9958 183.194 31.0827 183.307 31.2565L184.104 32.5598C183.634 32.9994 183.067 33.3469 182.402 33.6025C181.738 33.8478 181.053 33.9705 180.347 33.9705Z" fill="#1D1D1B"/>
<path d="M193.227 17.9473C194.157 17.9473 195.016 18.1057 195.803 18.4226C196.59 18.7293 197.27 19.1791 197.843 19.7719C198.415 20.3546 198.86 21.0804 199.177 21.9492C199.504 22.8079 199.667 23.7893 199.667 24.8932C199.667 25.3226 199.621 25.6088 199.529 25.7519C199.437 25.895 199.263 25.9666 199.008 25.9666H188.673C188.694 26.9479 188.827 27.8014 189.072 28.5272C189.317 29.253 189.655 29.8612 190.084 30.3519C190.513 30.8323 191.024 31.1952 191.617 31.4405C192.21 31.6756 192.875 31.7932 193.611 31.7932C194.295 31.7932 194.883 31.7165 195.374 31.5632C195.875 31.3996 196.304 31.2259 196.662 31.0419C197.02 30.8579 197.316 30.6892 197.551 30.5359C197.797 30.3723 198.006 30.2905 198.18 30.2905C198.405 30.2905 198.579 30.3774 198.701 30.5512L199.468 31.5479C199.131 31.9568 198.727 32.3145 198.257 32.6212C197.786 32.9176 197.28 33.163 196.739 33.3572C196.207 33.5514 195.655 33.6945 195.083 33.7865C194.51 33.8887 193.943 33.9398 193.381 33.9398C192.307 33.9398 191.316 33.761 190.406 33.4032C189.506 33.0352 188.724 32.5036 188.06 31.8085C187.406 31.1032 186.895 30.2343 186.527 29.2019C186.159 28.1694 185.975 26.9837 185.975 25.6446C185.975 24.561 186.138 23.549 186.465 22.6086C186.803 21.6681 187.283 20.8555 187.907 20.1706C188.53 19.4755 189.292 18.9337 190.191 18.5453C191.091 18.1466 192.103 17.9473 193.227 17.9473ZM193.289 19.9559C191.97 19.9559 190.932 20.3393 190.176 21.1059C189.419 21.8624 188.949 22.9152 188.765 24.2646H197.214C197.214 23.6308 197.127 23.0532 196.953 22.5319C196.779 22.0004 196.524 21.5455 196.186 21.1673C195.849 20.7788 195.435 20.4824 194.945 20.2779C194.464 20.0633 193.912 19.9559 193.289 19.9559Z" fill="#1D1D1B"/>
<path d="M203.148 33.7251V18.1925H204.712C205.009 18.1925 205.213 18.2487 205.326 18.3612C205.438 18.4736 205.515 18.6678 205.556 18.9438L205.74 21.3665C206.271 20.2829 206.926 19.4396 207.702 18.8365C208.49 18.2232 209.41 17.9165 210.462 17.9165C210.892 17.9165 211.28 17.9676 211.628 18.0699C211.975 18.1619 212.297 18.2947 212.594 18.4685L212.241 20.5078C212.17 20.7634 212.011 20.8912 211.766 20.8912C211.623 20.8912 211.403 20.8452 211.106 20.7532C210.81 20.651 210.396 20.5999 209.864 20.5999C208.914 20.5999 208.116 20.8758 207.472 21.4278C206.839 21.9798 206.307 22.7823 205.878 23.8351V33.7251H203.148Z" fill="#1D1D1B"/>
<path d="M224.4 20.7533C224.277 20.9782 224.088 21.0906 223.833 21.0906C223.679 21.0906 223.506 21.0344 223.311 20.9219C223.117 20.8095 222.877 20.6868 222.591 20.5539C222.315 20.4108 221.982 20.283 221.594 20.1706C221.206 20.0479 220.746 19.9866 220.214 19.9866C219.754 19.9866 219.34 20.0479 218.972 20.1706C218.604 20.283 218.287 20.4415 218.021 20.6459C217.766 20.8504 217.567 21.0906 217.423 21.3666C217.291 21.6324 217.224 21.9237 217.224 22.2406C217.224 22.6392 217.337 22.9715 217.561 23.2372C217.797 23.503 218.103 23.733 218.481 23.9272C218.86 24.1215 219.289 24.2952 219.769 24.4486C220.25 24.5917 220.741 24.7501 221.241 24.9239C221.753 25.0874 222.248 25.2715 222.729 25.4759C223.209 25.6803 223.638 25.9359 224.017 26.2426C224.395 26.5492 224.696 26.9275 224.921 27.3772C225.156 27.8168 225.274 28.3483 225.274 28.9719C225.274 29.6874 225.146 30.3519 224.891 30.9652C224.635 31.5683 224.257 32.0948 223.756 32.5445C223.255 32.9841 222.642 33.3316 221.916 33.5872C221.19 33.8427 220.352 33.9705 219.401 33.9705C218.318 33.9705 217.337 33.7967 216.457 33.4492C215.578 33.0914 214.832 32.6365 214.219 32.0845L214.863 31.0419C214.945 30.909 215.042 30.8068 215.154 30.7352C215.267 30.6636 215.415 30.6279 215.599 30.6279C215.783 30.6279 215.977 30.6994 216.181 30.8425C216.386 30.9856 216.631 31.1441 216.917 31.3179C217.214 31.4916 217.567 31.6501 217.975 31.7932C218.395 31.9363 218.916 32.0079 219.539 32.0079C220.071 32.0079 220.536 31.9414 220.935 31.8085C221.333 31.6654 221.666 31.4763 221.931 31.2412C222.197 31.0061 222.391 30.7352 222.514 30.4285C222.647 30.1219 222.713 29.7948 222.713 29.4472C222.713 29.0179 222.596 28.6652 222.361 28.3892C222.136 28.103 221.834 27.8628 221.456 27.6685C221.078 27.4641 220.643 27.2903 220.153 27.1472C219.672 26.9939 219.177 26.8355 218.665 26.6719C218.165 26.5084 217.669 26.3243 217.178 26.1199C216.698 25.9052 216.268 25.6395 215.89 25.3226C215.512 25.0057 215.205 24.6172 214.97 24.1572C214.745 23.687 214.633 23.1197 214.633 22.4553C214.633 21.8624 214.755 21.295 215.001 20.7533C215.246 20.2013 215.604 19.7208 216.074 19.3119C216.544 18.8928 217.122 18.5606 217.807 18.3153C218.492 18.0699 219.274 17.9473 220.153 17.9473C221.175 17.9473 222.09 18.1108 222.897 18.4379C223.715 18.7548 224.42 19.1944 225.013 19.7566L224.4 20.7533Z" fill="#1D1D1B"/>
<path d="M233.523 33.9705C232.297 33.9705 231.351 33.628 230.687 32.9431C230.032 32.2583 229.705 31.2718 229.705 29.9839V20.4772H227.835C227.671 20.4772 227.533 20.4312 227.421 20.3392C227.308 20.237 227.252 20.0837 227.252 19.8792V18.7906L229.797 18.4686L230.426 13.6693C230.446 13.5159 230.513 13.3933 230.625 13.3013C230.738 13.199 230.881 13.1479 231.055 13.1479H232.435V18.4992H236.881V20.4772H232.435V29.7998C232.435 30.454 232.593 30.9396 232.91 31.2565C233.227 31.5734 233.636 31.7318 234.137 31.7318C234.423 31.7318 234.668 31.6961 234.873 31.6245C235.087 31.5427 235.271 31.4558 235.425 31.3638C235.578 31.2718 235.706 31.1901 235.808 31.1185C235.92 31.0367 236.017 30.9958 236.099 30.9958C236.242 30.9958 236.37 31.0827 236.483 31.2565L237.28 32.5598C236.81 32.9994 236.242 33.3469 235.578 33.6025C234.913 33.8478 234.229 33.9705 233.523 33.9705Z" fill="#1D1D1B"/>
<path d="M238.23 18.1928H240.377C240.602 18.1928 240.786 18.249 240.929 18.3615C241.072 18.4739 241.169 18.6068 241.22 18.7601L244.195 28.7574C244.277 29.1254 244.354 29.4832 244.425 29.8307C244.497 30.1681 244.558 30.5105 244.609 30.8581C244.691 30.5105 244.783 30.1681 244.885 29.8307C244.987 29.4832 245.095 29.1254 245.207 28.7574L248.488 18.6988C248.54 18.5455 248.626 18.4177 248.749 18.3155C248.882 18.2132 249.046 18.1621 249.24 18.1621H250.42C250.625 18.1621 250.794 18.2132 250.926 18.3155C251.059 18.4177 251.151 18.5455 251.202 18.6988L254.407 28.7574C254.519 29.1152 254.617 29.4678 254.698 29.8154C254.79 30.163 254.877 30.5054 254.959 30.8427C255.01 30.5054 255.077 30.1527 255.158 29.7847C255.24 29.4167 255.327 29.0743 255.419 28.7574L258.455 18.7601C258.506 18.5966 258.603 18.4637 258.746 18.3615C258.889 18.249 259.058 18.1928 259.252 18.1928H261.307L256.278 33.7254H254.116C253.85 33.7254 253.666 33.5516 253.564 33.204L250.129 22.6701C250.047 22.435 249.981 22.1999 249.93 21.9648C249.879 21.7194 249.827 21.4792 249.776 21.2441C249.725 21.4792 249.674 21.7194 249.623 21.9648C249.572 22.2101 249.505 22.4503 249.424 22.6854L245.943 33.204C245.831 33.5516 245.621 33.7254 245.314 33.7254H243.26L238.23 18.1928Z" fill="#1D1D1B"/>
<path d="M270.031 17.9473C271.165 17.9473 272.188 18.1364 273.097 18.5146C274.017 18.8928 274.794 19.4295 275.428 20.1246C276.072 20.8197 276.563 21.663 276.9 22.6546C277.248 23.6359 277.421 24.7348 277.421 25.9512C277.421 27.1779 277.248 28.2819 276.9 29.2632C276.563 30.2445 276.072 31.0828 275.428 31.7779C274.794 32.473 274.017 33.0096 273.097 33.3878C272.188 33.7558 271.165 33.9398 270.031 33.9398C268.896 33.9398 267.869 33.7558 266.949 33.3878C266.039 33.0096 265.262 32.473 264.618 31.7779C263.974 31.0828 263.478 30.2445 263.131 29.2632C262.783 28.2819 262.609 27.1779 262.609 25.9512C262.609 24.7348 262.783 23.6359 263.131 22.6546C263.478 21.663 263.974 20.8197 264.618 20.1246C265.262 19.4295 266.039 18.8928 266.949 18.5146C267.869 18.1364 268.896 17.9473 270.031 17.9473ZM270.031 31.8085C271.564 31.8085 272.709 31.2974 273.465 30.2752C274.222 29.2428 274.6 27.8065 274.6 25.9666C274.6 24.1163 274.222 22.675 273.465 21.6426C272.709 20.6101 271.564 20.0939 270.031 20.0939C269.254 20.0939 268.579 20.2268 268.007 20.4926C267.434 20.7584 266.954 21.1417 266.565 21.6426C266.187 22.1435 265.901 22.7619 265.707 23.4979C265.523 24.2237 265.431 25.0466 265.431 25.9666C265.431 26.8866 265.523 27.7094 265.707 28.4352C265.901 29.161 266.187 29.7743 266.565 30.2752C266.954 30.7659 267.434 31.1441 268.007 31.4099C268.579 31.6757 269.254 31.8085 270.031 31.8085Z" fill="#1D1D1B"/>
<mask id="mask0_7322_16659" style="mask-type:luminance" maskUnits="userSpaceOnUse" x="0" y="0" width="91" height="99">
<path d="M0 98.3984H90.708V-0.000226728H0V98.3984Z" fill="white"/>
</mask>
<g mask="url(#mask0_7322_16659)">
<path d="M48.4709 8.21794C48.2082 8.29394 47.8695 8.23261 47.6202 8.08861C47.1495 7.80328 47.6629 6.44328 48.5842 5.87661C49.2295 6.90328 49.0575 8.04461 48.4709 8.21794ZM54.5362 86.4406C55.3109 86.4406 55.9895 86.3353 56.5762 86.1219C56.5562 86.3859 56.3749 86.9326 55.9495 87.4126C55.6682 87.7353 55.1962 88.1153 54.5362 88.1153C53.1855 88.1153 51.5429 86.7486 50.0429 84.9686C51.1242 85.6539 52.9002 86.4406 54.5362 86.4406ZM36.1655 88.1153C35.5069 88.1153 35.0349 87.7353 34.7522 87.4126C34.3242 86.9326 34.1469 86.3859 34.1242 86.1219C34.7095 86.3353 35.3909 86.4406 36.1655 86.4406C37.7989 86.4406 39.5775 85.6499 40.6602 84.9686C39.1589 86.7486 37.5135 88.1153 36.1655 88.1153ZM43.0762 8.08861C42.8309 8.23261 42.4922 8.29394 42.2309 8.21794C41.6429 8.04461 41.4709 6.90328 42.1095 5.87661C43.0362 6.44328 43.5509 7.80328 43.0762 8.08861ZM82.5002 44.3006C83.4042 44.4313 84.3042 44.5046 85.2029 44.5046C87.1362 44.5046 88.7215 44.1779 89.5575 43.8726L90.0922 43.6779L89.8802 43.1499C89.2175 41.5286 87.3815 39.8246 84.5162 38.1579C85.5749 37.9833 86.4669 37.7366 87.2042 37.4179C88.6429 36.7939 89.5015 35.8699 89.7615 34.6739C89.8202 34.3966 89.8415 33.6753 89.8415 33.6753C89.8415 33.6753 89.2362 33.9393 88.9842 34.0606C88.4335 34.3286 86.5162 34.6126 82.7855 34.6126C82.4669 34.6126 82.1442 34.6086 81.8202 34.6046C83.4482 34.2766 84.8002 33.8873 85.9482 33.4153C87.8229 32.6419 88.9882 31.7139 90.1162 30.8193C90.2802 30.6859 90.7082 30.2939 90.7082 30.2939C90.7082 30.2939 90.2149 29.9966 90.0282 29.9006C88.7495 29.2313 87.1509 28.5553 84.7189 28.0499C85.3669 27.6646 85.9175 27.2953 86.3922 26.9193C87.3282 26.1819 88.5322 25.0073 88.2029 23.3126C88.1629 23.1046 87.9562 22.5499 87.9562 22.5499C87.9562 22.5499 87.5175 22.8486 87.3415 22.9713C86.7549 23.3899 85.1215 24.2139 80.9402 25.8193C83.0869 24.4673 85.7722 22.3979 86.8455 20.0699C86.9095 19.9233 87.0949 19.4646 87.0949 19.4646C87.0949 19.4646 85.9482 19.1099 84.7095 19.1099C83.9122 19.1099 82.9815 19.1993 81.9162 19.3753C82.1095 19.1539 82.2829 18.9446 82.4375 18.7419C83.5175 17.3046 83.7535 16.0419 83.1775 14.7579C83.0775 14.5379 82.6695 14.1006 82.6695 14.1006C82.6695 14.1006 82.3615 14.4766 82.2229 14.6739C81.7655 15.3366 80.7615 16.1713 79.2882 17.2113C80.5095 15.7686 81.2869 14.2166 81.6362 12.2513C81.6642 12.1019 81.7255 11.6513 81.7255 11.6513C81.7255 11.6513 81.1882 11.5766 80.6949 11.5766C78.9975 11.5766 76.9575 12.1153 74.9815 13.0633C76.2602 11.7139 77.4682 9.77528 77.9162 8.25661C77.9735 8.06461 78.0789 7.54328 78.0789 7.54328C78.0789 7.54328 77.6002 7.53261 77.3455 7.55394C74.2869 7.81394 71.0695 8.82594 67.7949 10.5873C64.9375 12.1166 62.6442 13.8873 61.2255 15.0979C57.2789 18.4619 55.1629 22.9179 55.8389 26.4553C56.1175 27.8913 56.9629 29.7406 59.3149 31.0579L59.3629 31.4259C59.4935 32.5233 59.3189 33.6273 58.9055 34.2433C58.0335 35.5499 56.3202 35.7846 54.5389 35.8153L54.4255 35.5686C53.2055 32.8593 52.4135 29.7486 52.2882 28.1993L52.2789 28.0953C52.4562 28.0126 52.6162 27.9099 52.7602 27.7873L53.0482 27.5459L52.9202 27.1886C52.4749 25.9113 52.7695 23.9179 53.0535 21.9939C53.4202 19.5233 53.7975 16.9793 52.7855 15.3046C53.1855 15.0699 53.5149 14.7419 53.7295 14.3486C54.1242 13.6179 54.0789 12.7819 53.6015 12.0473L53.3042 11.5833L52.8455 11.8846C52.7975 11.9139 52.7482 11.9446 52.7002 11.9739C52.7282 11.8899 52.7429 11.8166 52.7535 11.7539C52.8722 11.0846 52.5362 10.3633 51.9375 10.0059L51.6602 9.84061L51.3735 10.0059C51.1575 10.1393 50.8869 10.2379 50.5655 10.3113C51.1669 8.88194 52.1122 7.48195 52.9762 6.21261C53.5415 5.38195 54.0749 4.59794 54.4815 3.85527L55.0402 2.84594C55.0402 2.84594 54.0015 3.17127 52.9922 3.17127C52.1682 3.22594 51.2402 3.28727 50.7762 3.90994C50.7362 3.96061 50.7055 4.01928 50.6789 4.07261C50.4882 3.97794 50.2709 3.92594 50.0442 3.92594C49.6869 3.92594 49.3389 4.05795 49.0429 4.30328C48.8949 3.59661 48.0935 3.07928 47.1669 3.07928C47.1429 2.22862 46.5309 1.48994 46.1175 0.99661C45.9935 0.845943 45.3495 -0.000725182 45.3495 -0.000725182C45.3495 -0.000725182 44.7095 0.845943 44.5829 0.99661C44.1709 1.48994 43.5575 2.22862 43.5335 3.07928C42.6042 3.07928 41.8055 3.59661 41.6575 4.30195C41.3615 4.05795 41.0135 3.92594 40.6549 3.92594C40.4295 3.92594 40.2135 3.97794 40.0189 4.07261C39.9922 4.01928 39.9642 3.96061 39.9255 3.90994C39.4642 3.28727 38.5335 3.22594 37.7122 3.17127C36.6962 3.17127 35.6602 2.84594 35.6602 2.84594L36.2162 3.85527C36.6255 4.59794 37.1602 5.38195 37.7215 6.21261C38.6722 7.61261 39.7255 9.15794 40.3015 10.7366C40.0255 11.0113 39.9149 11.3379 39.8895 11.6459H39.4482C37.3922 11.6459 36.6362 12.7313 36.3695 13.3739C35.8189 14.7006 36.3202 16.3526 36.9215 16.9526L37.3789 17.4139L37.7562 16.8859C38.0349 16.4939 38.4549 16.4166 38.7535 16.4166C39.1802 16.4166 39.6349 16.5766 39.9709 16.8473L40.1682 17.0046L40.4149 16.9566C40.6602 16.9086 40.8989 16.8873 41.1415 16.8873C41.7735 16.8873 42.3695 17.0593 42.8215 17.3673C42.6775 17.3273 42.5175 17.2993 42.3482 17.2833C42.1629 17.2646 41.9762 17.2539 41.7989 17.2539C40.4455 17.2539 39.4482 17.7553 38.5682 18.1939C38.3709 18.2939 38.1869 18.3859 38.0082 18.4699C37.8655 18.5353 37.6949 18.5646 37.4895 18.5646C36.9122 18.5646 36.3282 18.3006 36.3202 18.2953L35.7375 18.0206L35.5602 18.6446C35.4122 19.1579 35.4989 19.6633 35.7962 20.0606C36.1495 20.5286 36.7815 20.7993 37.5242 20.7993C37.8095 20.7993 38.1069 20.7593 38.4135 20.6859C39.0015 20.5419 39.4562 20.3219 39.8549 20.1126C39.8615 20.3673 39.9242 20.5513 39.9335 20.5873L40.1429 21.1393L40.6749 20.8953C40.6842 20.8926 41.5095 20.5273 42.2509 20.5273C42.3282 20.5273 42.4029 20.5286 42.4722 20.5393C42.5869 20.5513 42.7029 20.5726 42.8309 20.5926L42.9069 20.6606C43.4295 21.1219 43.6455 21.6766 43.5749 22.3526C43.3949 24.0806 41.3615 26.1326 40.0255 26.8939L39.5135 27.1819L39.8402 27.6739C39.9642 27.8606 40.1162 28.0273 40.2869 28.1739C38.3629 30.0393 37.7175 31.8299 37.2015 33.2739C36.9029 34.0966 36.6455 34.8046 36.2215 35.4086L35.9402 35.8139C34.2415 35.7606 32.6282 35.4966 31.7949 34.2433C31.3842 33.6273 31.2042 32.5233 31.3389 31.4259L31.3842 31.0579C33.7375 29.7406 34.5842 27.8913 34.8575 26.4553C35.5349 22.9179 33.4215 18.4619 29.4762 15.0979C28.0575 13.8873 25.7629 12.1166 22.9042 10.5873C19.6295 8.82594 16.4149 7.81394 13.3549 7.55394C13.1029 7.53261 12.6202 7.54328 12.6202 7.54328C12.6202 7.54328 12.7269 8.06461 12.7815 8.25661C13.2322 9.77528 14.4402 11.7139 15.7189 13.0633C13.7429 12.1153 11.7029 11.5766 10.0029 11.5766C9.51086 11.5766 8.97219 11.6513 8.97219 11.6513C8.97219 11.6513 9.03619 12.1019 9.06152 12.2513C9.41219 14.2166 10.1935 15.7686 11.4122 17.2113C9.93752 16.1713 8.93352 15.3366 8.47619 14.6739C8.33752 14.4766 8.02952 14.1006 8.02952 14.1006C8.02952 14.1006 7.62286 14.5379 7.52152 14.7579C6.94952 16.0419 7.18019 17.3046 8.26419 18.7419C8.41619 18.9446 8.59086 19.1539 8.78419 19.3753C7.71619 19.1993 6.78952 19.1099 5.99219 19.1099C4.75219 19.1099 3.60019 19.4646 3.60019 19.4646C3.60019 19.4646 3.78819 19.9233 3.85752 20.0699C4.92686 22.3979 7.61352 24.4673 9.75486 25.8193C5.57752 24.2139 3.94285 23.3899 3.35352 22.9713C3.18019 22.8486 2.74419 22.5499 2.74419 22.5499C2.74419 22.5499 2.53752 23.1046 2.49486 23.3126C2.16419 25.0073 3.37219 26.1819 4.30819 26.9193C4.78019 27.2953 5.33086 27.6646 5.98152 28.0499C3.54819 28.5553 1.94552 29.2313 0.67219 29.9006C0.48419 29.9966 -0.0078125 30.2939 -0.0078125 30.2939C-0.0078125 30.2939 0.418855 30.6859 0.584188 30.8193C1.71085 31.7139 2.87619 32.6419 4.75219 33.4153C5.90019 33.8873 7.25352 34.2766 8.88419 34.6046C8.55752 34.6086 8.23086 34.6126 7.91219 34.6126C4.18419 34.6126 2.26686 34.3286 1.71752 34.0606C1.46419 33.9393 0.858856 33.6753 0.858856 33.6753C0.858856 33.6753 0.88019 34.3966 0.941523 34.6739C1.20019 35.8699 2.05752 36.7939 3.49486 37.4179C4.23486 37.7366 5.12552 37.9833 6.18419 38.1579C3.32286 39.8246 1.47886 41.5286 0.82019 43.1499L0.605525 43.6779L1.14019 43.8726C1.97752 44.1779 3.56286 44.5046 5.49752 44.5046C6.39619 44.5046 7.29886 44.4313 8.19752 44.3006C5.27219 46.3086 2.91085 47.4539 1.52819 47.5099L0.0921885 47.5659L1.20286 48.4793C2.24686 49.3459 3.52019 49.7819 4.98552 49.7819C6.48419 49.7819 8.20685 49.3353 10.1949 48.4366C9.20686 49.7686 8.34286 51.1659 7.61886 52.6406C6.01752 55.8886 5.44819 58.7193 5.25219 60.5219L5.16552 61.3286L5.94419 61.1113C10.0655 59.9766 13.1455 58.3686 16.7602 53.8033C14.3562 58.4566 11.4695 63.9686 9.86819 64.7593L8.28285 65.5379L10.0309 65.8006C10.5095 65.8673 10.9402 65.9006 11.3482 65.9006C12.8962 65.9006 14.1682 65.3833 15.3482 64.2673C16.6082 63.0779 17.8122 61.1793 19.1335 58.2873C19.2029 58.1339 19.2935 57.9153 19.4002 57.6473C19.3042 58.0953 19.2189 58.5486 19.1335 59.0019C18.3002 63.5553 18.2775 66.8379 19.0669 69.0193L19.3229 69.7366L19.9229 69.2579C22.2215 67.4446 23.9669 65.1953 25.2589 62.4033C25.1029 63.1726 24.9655 63.8139 24.8602 64.2406L24.5975 65.3113L25.6109 64.8739C27.1242 64.2233 29.1829 62.1113 30.6589 55.8659C30.8882 56.3659 31.1189 56.7659 31.3269 57.0499L31.6655 57.5179L32.1175 57.1486C32.7895 56.6059 33.6122 55.4366 34.2629 54.0899C34.7335 53.1246 35.2975 51.6926 35.6335 49.9166C35.8282 49.9446 36.0322 49.9606 36.2375 49.9606C37.7215 49.9606 38.9642 49.4046 39.8029 48.4179C39.9842 49.0646 40.1322 49.5913 40.1935 49.8073C40.0189 49.7979 39.8522 49.7913 39.6882 49.7913C36.2482 49.7913 35.5015 51.9499 35.0069 53.3779C34.0055 56.2753 31.3562 59.0219 30.5162 59.5793C30.2962 59.7259 29.7642 60.0913 29.7642 60.0913C29.7642 60.0913 29.9562 60.3926 30.5269 60.5339C29.8442 61.6739 28.0229 63.1046 28.0229 63.1046C28.0229 63.1046 28.3749 63.3859 29.0135 63.4846C27.4629 64.7859 26.2215 65.2593 26.2215 65.2593C26.2215 65.2593 26.6335 65.6606 27.3749 65.9073C26.4242 66.8539 25.0842 67.6819 25.0842 67.6819C25.0842 67.6819 25.5015 68.0299 25.8309 68.1833C26.8322 68.6339 27.8322 68.8939 28.9762 68.9446C28.3669 69.5619 27.8069 70.1219 27.4055 70.4686L26.8015 70.9793C26.8015 70.9793 26.9682 71.1819 27.2709 71.2433C26.9909 71.5286 26.1535 72.2753 25.6829 72.6539L25.0749 73.1486C25.0749 73.1486 25.2469 73.3153 25.5002 73.4059C25.0842 73.9286 24.1322 74.6553 23.8122 74.8953L23.1189 75.4099C23.1189 75.4099 23.3362 75.5873 23.5642 75.6473C23.2135 75.9899 22.3642 76.6713 21.9175 76.9219C21.7469 77.0126 21.2442 77.2953 21.2442 77.2953C21.2442 77.2953 21.4589 77.5993 21.7855 77.7859C21.6682 77.8606 21.5762 78.0033 21.1495 78.0073C20.6082 78.0139 19.7535 77.7859 18.7202 77.4379C17.9389 77.1793 16.8242 77.0099 15.8895 77.0073C15.6002 76.2686 14.7975 75.3806 13.5562 75.3806C12.8415 75.3806 12.1975 75.6606 11.7402 76.1659C11.4215 76.5113 11.2135 76.9393 11.1282 77.4033C10.6762 77.2873 10.3375 77.5659 10.1802 77.8633C10.0842 78.0393 10.0482 78.2433 10.0762 78.4366H10.0709C9.54419 78.8713 9.25219 79.4606 9.25886 80.0926C9.26552 80.8486 9.68019 81.5966 10.3962 82.1553L10.9762 82.6033L11.2455 81.9153C11.4309 81.4299 11.8749 80.9126 12.3629 80.5113C12.6175 80.5553 12.8682 80.5793 13.1122 80.5793C14.1349 80.5793 14.7922 80.2033 15.1722 79.8779C16.1562 80.3193 16.6349 80.6713 17.5269 80.7899C17.0415 80.9939 16.6935 81.0566 16.5322 81.1126C16.1202 81.2393 15.7282 81.3726 15.2695 81.6739C14.8215 81.3113 14.2895 81.1153 13.7215 81.1153C13.2549 81.1153 12.7855 81.2513 12.4002 81.4979C11.4429 82.1046 11.0135 83.2739 11.3522 84.3433C11.3589 84.3726 11.3709 84.4006 11.3815 84.4273C11.2482 84.5459 11.1562 84.7019 11.1202 84.8953C11.0522 85.2206 11.1615 85.6739 11.6415 86.0033C11.5149 86.7433 11.6949 87.3153 12.0842 87.7699C12.5362 88.2993 13.2749 88.6073 14.1042 88.6073C14.4522 88.6073 15.0869 88.5459 15.0869 88.5459L14.8255 87.8539C14.6442 87.3686 14.6309 86.8206 14.7042 86.2233C15.4655 85.8713 16.0535 85.1486 16.2362 84.3633C17.4949 84.2099 18.4682 83.6819 19.5935 82.6753C19.5935 82.6753 19.0829 83.4539 18.8295 83.8819C18.7562 84.0033 18.6789 84.1246 18.6002 84.2606C18.5335 84.2553 18.4722 84.2553 18.4069 84.2553C17.3975 84.2553 16.5869 84.7619 16.1855 85.6486C15.7869 86.5286 15.8909 87.5726 16.4402 88.1966C16.4855 88.2513 16.5349 88.3019 16.5882 88.3486C16.4762 88.4913 16.4109 88.6739 16.4149 88.8779C16.4175 89.2339 16.6389 89.6339 17.1135 89.8006C17.2029 90.9993 18.1135 91.8033 19.3855 91.8033C20.1282 91.8033 21.0349 91.4473 21.0349 91.4473L20.6269 90.8273C20.3335 90.3926 20.1802 89.8886 20.1335 89.1793C21.0429 88.4779 21.3095 87.2446 20.9402 86.0579C21.7815 85.2446 22.2522 84.2819 22.6735 83.4273C22.7202 83.3286 22.7642 83.2406 22.8082 83.1566C23.6522 83.3593 24.5055 83.4006 25.0842 83.4006C25.3189 83.4006 25.5335 83.3966 25.7175 83.3833C25.9029 84.0139 26.2762 84.5113 26.8202 84.8446C26.7949 85.4646 26.7269 86.0673 26.4895 86.4953L26.1535 87.0953C26.1535 87.0953 27.0415 87.3806 27.5722 87.3806C28.2722 87.3806 28.8975 87.1379 29.3269 86.7073C29.7015 86.3259 29.9029 85.7566 29.9122 85.1726C30.5055 85.0033 30.7042 84.5326 30.6949 84.1659C30.6869 83.9379 30.6042 83.7286 30.4722 83.5726C30.9242 82.9793 30.9575 82.0579 30.6095 81.2979C30.2135 80.4339 29.3189 79.8713 28.3069 79.8379C27.7842 79.8206 27.3269 80.0246 26.9549 80.1939C26.6709 80.3153 26.4282 80.4273 26.1962 80.4273C26.1535 80.4273 26.1109 80.4273 26.0735 80.4139C25.9735 80.0566 25.9175 79.5393 26.3642 79.0433C27.1255 78.2059 30.4295 75.4006 33.0842 73.1433C33.6362 72.6739 34.1375 72.2473 34.5842 71.8659C35.1629 72.8619 36.0149 73.5113 37.1535 73.7886C37.4575 73.8686 37.9322 73.9073 37.9322 73.9073C37.9322 73.9073 37.6775 72.5393 37.7562 71.5793C38.1402 71.7753 38.5402 71.8779 38.5402 71.8779C38.5402 71.8779 38.5855 71.3446 38.6082 71.1659C38.8789 68.4819 39.4642 65.6166 41.6762 62.7326C41.4122 65.8953 40.7509 68.5486 39.7522 70.3899L39.0789 71.6299L40.4135 71.1739C40.9989 70.9699 41.5055 70.6673 41.9482 70.2606C41.4815 72.7659 40.3375 75.0886 38.8549 75.0886C38.4802 75.0886 38.0749 74.9393 37.6549 74.6446L37.0495 74.2233L36.8189 74.9219C36.3722 76.2513 36.7109 77.1353 37.0775 77.6406C37.5789 78.3326 38.4455 78.7486 39.3989 78.7486C40.1549 78.7486 40.8282 78.5806 41.4175 78.3179C40.0762 79.9806 37.8989 81.4886 36.1655 81.4886C35.7375 81.4886 35.5602 81.3353 35.4642 81.2166C35.1549 80.8406 35.1335 80.0739 35.2429 79.5193L35.3855 78.7926L34.6455 78.8673C34.0135 78.9353 33.2815 79.3499 32.6869 79.9766C32.0229 80.6886 31.6522 81.5459 31.6522 82.3926C31.6522 83.5126 31.9935 84.4673 32.6415 85.1659C32.7815 85.3193 32.9375 85.4579 33.1082 85.5859C31.8189 86.2953 31.0829 87.4753 31.0829 88.8579C31.0829 90.1326 31.6829 91.2979 32.7682 92.1499C33.7255 92.8926 34.9589 93.3193 36.1655 93.3193C38.0415 93.3193 39.7042 92.7766 41.1082 91.7193C41.9322 91.0913 42.5842 90.3486 43.0895 89.6686C43.1535 92.7326 43.7362 95.2646 44.8615 97.4473L45.3495 98.3979L45.8389 97.4473C46.9655 95.2646 47.5469 92.7326 47.6109 89.6686C48.1162 90.3486 48.7695 91.0913 49.5922 91.7193C50.9962 92.7766 52.6602 93.3193 54.5362 93.3193C55.7375 93.3193 56.9762 92.8926 57.9295 92.1499C59.0175 91.2979 59.6175 90.1326 59.6175 88.8579C59.6175 87.4753 58.8829 86.2953 57.5935 85.5859C57.7629 85.4579 57.9175 85.3193 58.0589 85.1659C58.7055 84.4673 59.0495 83.5126 59.0495 82.3926C59.0495 81.5459 58.6775 80.6886 58.0109 79.9766C57.4202 79.3499 56.6869 78.9353 56.0509 78.8673C55.8695 78.8513 55.3122 78.7926 55.3122 78.7926L55.4575 79.5193C55.5682 80.0739 55.5455 80.8406 55.2362 81.2166C55.1415 81.3353 54.9589 81.4886 54.5362 81.4886C52.8029 81.4886 50.6242 79.9806 49.2815 78.3179C49.8735 78.5806 50.5442 78.7486 51.3015 78.7486C52.2535 78.7486 53.1229 78.3326 53.6215 77.6406C53.9855 77.1353 54.3242 76.2513 53.8829 74.9219L53.6509 74.2233L53.0495 74.6446C52.6269 74.9393 52.2202 75.0886 51.8455 75.0886C50.3602 75.0886 49.2189 72.7659 48.7522 70.2606C49.1949 70.6673 49.7015 70.9699 50.2869 71.1739L51.6202 71.6299L50.9509 70.3899C49.9509 68.5486 49.2895 65.8953 49.0189 62.7326C51.2362 65.6166 51.8202 68.4819 52.0922 71.1659C52.1095 71.3446 52.1629 71.8779 52.1629 71.8779C52.1629 71.8779 52.5615 71.7753 52.9455 71.5793C53.0229 72.5393 52.7682 73.9073 52.7682 73.9073C52.7682 73.9073 53.2389 73.8686 53.5429 73.7886C54.6855 73.5113 55.5362 72.8619 56.1175 71.8659C56.5615 72.2473 57.0642 72.6739 57.6175 73.1433C60.2722 75.4006 63.5749 78.2059 64.3362 79.0433C64.7815 79.5393 64.7269 80.0566 64.6282 80.4139C64.5869 80.4273 64.5429 80.4273 64.5055 80.4273C64.2695 80.4273 64.0269 80.3153 63.7429 80.1939C63.3749 80.0246 62.9149 79.8206 62.3962 79.8379C61.3815 79.8713 60.4842 80.4339 60.0922 81.2979C59.7429 82.0579 59.7762 82.9793 60.2295 83.5726C60.0949 83.7286 60.0149 83.9379 60.0042 84.1659C59.9935 84.5326 60.1949 85.0033 60.7869 85.1726C60.7975 85.7566 61.0002 86.3259 61.3749 86.7073C61.8042 87.1379 62.4242 87.3806 63.1295 87.3806C63.6589 87.3806 64.5442 87.0953 64.5442 87.0953L64.2095 86.4953C63.9735 86.0673 63.9055 85.4646 63.8789 84.8446C64.4242 84.5113 64.7975 84.0139 64.9802 83.3833C65.1642 83.3966 65.3802 83.4006 65.6175 83.4006C66.1922 83.4006 67.0495 83.3593 67.8895 83.1566C67.9335 83.2406 67.9802 83.3286 68.0269 83.4273C68.4482 84.2819 68.9175 85.2446 69.7629 86.0579C69.3909 87.2446 69.6602 88.4779 70.5669 89.1793C70.5189 89.8886 70.3642 90.3926 70.0735 90.8273L69.6669 91.4473C69.6669 91.4473 70.5735 91.8033 71.3162 91.8033C72.5842 91.8033 73.4935 90.9993 73.5869 89.8006C74.0602 89.6339 74.2829 89.2339 74.2869 88.8779C74.2882 88.6739 74.2255 88.4913 74.1109 88.3486C74.1629 88.3019 74.2135 88.2513 74.2602 88.1966C74.8082 87.5726 74.9095 86.5286 74.5149 85.6486C74.1162 84.7619 73.3042 84.2553 72.2909 84.2553C72.2295 84.2553 72.1629 84.2553 72.1002 84.2606C72.0202 84.1246 71.9469 84.0033 71.8735 83.8819C71.6189 83.4539 71.1082 82.6753 71.1082 82.6753C72.2322 83.6819 73.2042 84.2099 74.4642 84.3633C74.6429 85.1486 75.2309 85.8713 75.9935 86.2233C76.0669 86.8206 76.0562 87.3686 75.8735 87.8539L75.6122 88.5459C75.6122 88.5459 76.2469 88.6073 76.5949 88.6073C77.4255 88.6073 78.1629 88.2993 78.6175 87.7699C79.0055 87.3153 79.1829 86.7433 79.0602 86.0033C79.5402 85.6739 79.6495 85.2206 79.5829 84.8953C79.5442 84.7019 79.4509 84.5459 79.3162 84.4273C79.3295 84.4006 79.3389 84.3726 79.3482 84.3433C79.6869 83.2739 79.2562 82.1046 78.2989 81.4979C77.9149 81.2513 77.4455 81.1153 76.9815 81.1153C76.4149 81.1153 75.8789 81.3113 75.4322 81.6739C74.9735 81.3726 74.5789 81.2393 74.1709 81.1126C74.0029 81.0566 73.6589 80.9939 73.1749 80.7899C74.0655 80.6713 74.5429 80.3193 75.5269 79.8779C75.9042 80.2033 76.5655 80.5793 77.5869 80.5793C77.8282 80.5793 78.0815 80.5553 78.3375 80.5113C78.8242 80.9126 79.2655 81.4299 79.4549 81.9153L79.7215 82.6033L80.3042 82.1553C81.0202 81.5966 81.4309 80.8486 81.4415 80.0926C81.4482 79.4606 81.1589 78.8713 80.6282 78.4366H80.6242C80.6509 78.2433 80.6162 78.0393 80.5229 77.8633C80.3589 77.5659 80.0229 77.2873 79.5735 77.4033C79.4842 76.9393 79.2775 76.5113 78.9602 76.1659C78.5029 75.6606 77.8549 75.3806 77.1442 75.3806C75.9042 75.3806 75.1029 76.2686 74.8135 77.0073C73.8722 77.0099 72.7615 77.1793 71.9802 77.4379C70.9482 77.7859 70.0922 78.0139 69.5495 78.0073C69.1242 78.0033 69.0322 77.8606 68.9149 77.7859C69.2429 77.5993 69.4575 77.2953 69.4575 77.2953C69.4575 77.2953 68.9509 77.0126 68.7815 76.9219C68.3362 76.6713 67.4855 75.9899 67.1349 75.6473C67.3629 75.5873 67.5829 75.4099 67.5829 75.4099L66.8882 74.8953C66.5682 74.6553 65.6175 73.9286 65.2015 73.4059C65.4495 73.3153 65.6269 73.1486 65.6269 73.1486L65.0135 72.6539C64.5429 72.2753 63.7122 71.5286 63.4309 71.2433C63.7309 71.1819 63.8989 70.9793 63.8989 70.9793L63.2962 70.4686C62.8895 70.1219 62.3335 69.5619 61.7215 68.9446C62.8642 68.8939 63.8695 68.6339 64.8709 68.1833C65.1962 68.0299 65.6189 67.6819 65.6189 67.6819C65.6189 67.6819 64.2775 66.8539 63.3282 65.9073C64.0669 65.6606 64.4775 65.2593 64.4775 65.2593C64.4775 65.2593 63.2402 64.7859 61.6895 63.4846C62.3229 63.3859 62.6775 63.1046 62.6775 63.1046C62.6775 63.1046 60.8549 61.6739 60.1722 60.5339C60.7442 60.3926 60.9349 60.0913 60.9349 60.0913C60.9349 60.0913 60.4042 59.7259 60.1802 59.5793C59.3442 59.0219 56.6949 56.2753 55.6935 53.3779C55.1975 51.9499 54.4509 49.7913 51.0135 49.7913C50.8455 49.7913 50.6775 49.7979 50.5055 49.8073C50.5642 49.5913 50.7122 49.0606 50.8975 48.4139C51.7335 49.4046 52.9762 49.9606 54.4655 49.9606C54.6695 49.9606 54.8709 49.9446 55.0682 49.9166C55.3989 51.6926 55.9682 53.1246 56.4375 54.0899C57.0869 55.4366 57.9122 56.6059 58.5842 57.1486L59.0322 57.5179L59.3735 57.0499C59.5815 56.7659 59.8149 56.3659 60.0415 55.8659C61.5175 62.1113 63.5749 64.2233 65.0909 64.8739L66.1042 65.3113L65.8415 64.2406C65.7362 63.8139 65.5989 63.1726 65.4415 62.4033C66.7309 65.1953 68.4815 67.4446 70.7735 69.2579L71.3722 69.7366L71.6349 69.0193C72.4229 66.8379 72.3989 63.5553 71.5669 59.0019C71.4815 58.5486 71.3922 58.0953 71.2989 57.6473C71.4069 57.9153 71.4975 58.1339 71.5682 58.2873C72.8895 61.1793 74.0922 63.0779 75.3495 64.2673C76.5322 65.3833 77.8069 65.9006 79.3535 65.9006C79.7602 65.9006 80.1882 65.8673 80.6695 65.8006L82.4189 65.5379L80.8335 64.7593C79.2295 63.9686 76.3415 58.4566 73.9415 53.8033C77.5535 58.3686 80.6349 59.9766 84.7535 61.1113L85.5335 61.3286L85.4469 60.5219C85.2535 58.7193 84.6869 55.8886 83.0829 52.6406C82.3562 51.1659 81.4975 49.7686 80.5055 48.4366C82.4909 49.3353 84.2135 49.7819 85.7109 49.7819C87.1802 49.7819 88.4522 49.3459 89.4975 48.4793L90.6095 47.5659L89.1682 47.5099C87.7909 47.4539 85.4242 46.3086 82.5002 44.3006Z" fill="#1D1D1B"/>
</g>
<mask id="mask1_7322_16659" style="mask-type:luminance" maskUnits="userSpaceOnUse" x="-23" y="-23" width="336" height="145">
<path d="M-22.6758 -22.6774H312.659V121.039H-22.6758V-22.6774Z" fill="white"/>
</mask>
<g mask="url(#mask1_7322_16659)">
<path d="M44.6911 13.0412C44.9791 13.0412 45.2111 12.8092 45.2138 12.5265C44.8871 12.5332 44.5364 12.5812 44.1844 12.6425C44.2391 12.8718 44.4458 13.0412 44.6911 13.0412ZM42.5071 13.0252C42.7084 14.0518 43.6071 14.8252 44.6911 14.8252C45.8964 14.8252 46.8751 13.8732 46.9218 12.6772C46.6671 12.6372 46.4338 12.6025 46.2178 12.5812C46.1844 13.3945 45.5151 14.0452 44.6911 14.0452C43.9671 14.0452 43.3578 13.5358 43.1991 12.8572C43.1031 12.8838 43.0098 12.9038 42.9178 12.9278C42.7724 12.9612 42.6351 12.9945 42.5071 13.0252ZM51.7418 28.2438C51.5858 28.2758 51.4284 28.2892 51.2711 28.2892C50.4898 28.2892 49.7511 27.9332 49.6404 27.3518C49.9031 27.5758 50.5058 27.7892 51.1284 27.7892C51.5791 27.7892 52.0471 27.6758 52.4044 27.3692C51.3351 24.3118 54.0018 18.3598 52.3071 15.5812C52.3071 15.5812 52.2644 15.5838 52.1938 15.5838C51.9724 15.5838 51.4684 15.5425 51.1671 15.1652H51.1951C52.9404 15.1652 53.9991 13.6678 53.1418 12.3438C52.6458 12.6638 52.0231 12.9172 51.4471 12.9172C51.2044 12.9172 50.9764 12.8758 50.7671 12.7732C52.6338 12.4212 52.4538 10.9532 51.6591 10.4785C51.0124 10.8665 50.1324 10.9918 49.1271 10.9918C47.3471 10.9918 45.1751 10.6012 43.1991 10.6012C42.7444 10.6012 42.2964 10.6225 41.8684 10.6745C40.8658 10.7945 40.4338 11.1772 40.4338 11.7958C40.4338 12.3038 41.0818 12.6425 41.4844 12.6425C42.1764 12.6425 43.9484 11.9692 45.3484 11.9692C46.6618 11.9692 49.1151 12.5412 49.8831 12.7172C49.7044 12.8225 49.3378 12.9945 48.8284 12.9945C48.6551 12.9945 48.4711 12.9758 48.2724 12.9278C47.9884 12.8692 47.7191 12.8185 47.4711 12.7732C47.3751 14.2225 46.1671 15.3758 44.6911 15.3758C43.3458 15.3758 42.2204 14.4118 41.9671 13.1398C41.7871 13.1718 41.6258 13.1905 41.4844 13.1905C41.4204 13.1905 41.3551 13.1865 41.2938 13.1772C41.3898 13.9172 41.6111 14.4838 41.9138 14.7905C42.3818 15.2612 43.0698 15.5812 43.7378 15.8905C44.9738 16.4652 46.3724 17.1145 46.3724 18.8532C46.3724 20.1225 45.7178 20.8225 44.5244 20.8225C44.2644 20.8225 43.9898 20.7905 43.7191 20.7505C45.2711 22.9945 42.1378 26.3252 40.2964 27.3692C40.7004 27.9785 41.4058 28.2265 42.1764 28.2265C43.0938 28.2265 44.1098 27.8758 44.8218 27.3518C44.5684 28.1518 43.4284 28.8025 42.2111 28.8025C41.7271 28.8025 41.2338 28.6998 40.7724 28.4625C37.7764 31.3132 37.9671 33.8812 36.6711 35.7265H36.9391C38.5551 35.7265 41.8138 35.6185 41.8138 31.7438C41.8138 35.2212 45.3484 37.5838 45.3484 37.5838C45.3484 37.5838 48.8871 35.2212 48.8871 31.7438C48.8871 35.5118 52.4924 35.8025 53.6071 35.8025C53.8071 35.8025 53.9258 35.7958 53.9258 35.7958C52.7524 33.1932 51.8831 30.0025 51.7418 28.2438ZM40.0178 19.4038C39.5258 19.6638 39.0124 19.9732 38.2804 20.1518C38.0138 20.2172 37.7591 20.2492 37.5244 20.2492C36.4738 20.2492 35.8538 19.6185 36.0884 18.7958C36.0884 18.7958 36.7711 19.1172 37.4898 19.1172C37.7458 19.1172 38.0058 19.0758 38.2391 18.9692C39.2391 18.5065 40.2924 17.8038 41.7991 17.8038C41.9578 17.8038 42.1204 17.8105 42.2938 17.8265C42.9324 17.8892 43.2871 18.1425 43.4844 18.3932C43.1404 18.3438 42.7471 18.3052 42.3631 18.3052C42.0151 18.3052 41.7258 18.3358 41.4751 18.3998C40.7631 18.5758 40.2764 18.9078 40.0271 19.3838C40.0231 19.3892 40.0231 19.3945 40.0178 19.4038ZM72.8791 14.8718C72.0058 15.5798 70.8244 16.5372 69.6684 17.4758C68.5311 18.4025 67.6098 19.1505 66.8978 19.7278C66.7551 20.3518 66.5644 20.9398 66.3644 21.4638C67.6871 20.3425 69.8018 18.9305 72.1924 18.7918L72.2724 18.7865C75.3044 16.5132 78.3618 14.2438 79.3324 13.5492C78.6004 14.2625 75.6498 16.7505 72.7511 19.1545L72.7644 19.2585C72.9098 20.2372 72.8564 21.1972 72.6631 22.0985C75.1324 20.1985 77.6591 18.1598 78.3071 17.4758C79.7898 15.9318 80.6511 14.2998 81.0991 12.1385C80.9658 12.1318 80.8338 12.1278 80.6951 12.1278C78.6378 12.1278 76.3084 12.9278 74.3631 14.0025C73.8964 14.2572 73.3951 14.5558 72.8791 14.8718ZM83.8951 27.8878C86.5564 26.3838 87.9898 25.0758 87.6631 23.4185C86.3458 24.3558 81.7258 26.1345 78.5431 27.3105C80.6684 27.4225 82.4218 27.6252 83.8951 27.8878ZM72.4818 22.8052C72.1151 24.0305 71.5111 25.1225 70.8538 25.9865C70.8831 25.9798 70.9124 25.9705 70.9324 25.9652C75.1871 24.2385 81.5484 21.7692 84.6004 20.7158C82.5071 21.7558 77.2044 23.9572 73.4591 25.4905C73.8418 25.4478 74.2044 25.4252 74.5524 25.4252C75.8498 25.4252 76.9804 25.7412 78.3124 26.4785L78.5031 26.5825C80.4084 25.5892 84.8444 22.8438 86.3524 19.8252C85.9578 19.7385 85.4418 19.6585 84.7084 19.6585C83.4231 19.6585 81.4578 19.9012 78.2551 20.7438C76.2724 21.2678 74.1871 22.0758 72.4818 22.8052ZM74.4298 21.4265C75.6111 20.9772 76.8871 20.5398 78.1124 20.2172C79.1684 19.9358 80.1324 19.7118 81.0111 19.5385C82.8244 17.6812 83.2898 16.3545 82.6751 14.9852C81.9084 16.0958 79.8284 17.5785 76.6604 19.6345C75.9964 20.1825 75.2298 20.7972 74.4298 21.4265ZM59.5498 49.7478C59.2444 49.1225 58.9671 48.4305 58.7164 47.6452C58.7738 51.0838 58.8111 55.5052 58.8111 55.5052C58.8111 55.5052 58.4378 51.1158 58.1458 47.7545C57.9658 48.0545 57.7511 48.3358 57.5071 48.5932C56.9578 49.1705 56.3071 49.5798 55.6071 49.7918C56.2618 53.3652 58.0084 55.9852 58.9284 56.7292C59.4538 55.9972 60.3524 54.1492 60.6031 51.4865C60.2138 50.9758 59.8604 50.3932 59.5498 49.7478ZM58.6524 29.9692C58.5284 29.7318 58.4151 29.4305 58.3484 29.1798C57.8231 27.0558 58.1884 24.4705 59.3404 22.3092C60.7338 19.6932 63.1671 17.5932 66.3818 16.2358L66.5084 16.1812C70.1378 12.9012 73.0111 11.1012 75.3124 9.54517C72.8631 11.5292 70.1604 13.5678 67.1084 16.3958L67.1418 16.6825C67.2178 17.4065 67.1778 18.1572 67.0644 18.8852C69.4418 16.9572 72.8391 14.1825 73.7058 13.4998C75.1244 12.3865 76.8364 9.97584 77.3898 8.10117C70.6084 8.66517 64.5498 12.9825 61.5778 15.5172C56.4058 19.9318 54.2164 26.5652 58.6524 29.9692ZM80.6284 43.9225C79.5738 43.6532 77.5338 42.9638 76.3311 42.5492L75.7991 42.6412C75.6191 42.6718 75.4378 42.6932 75.2524 42.7158C75.9991 43.5185 76.5791 44.1398 76.6698 44.2292C77.7911 45.2412 78.8138 46.3225 79.7444 47.4612C82.1418 48.6772 84.1004 49.2332 85.7098 49.2332C87.0991 49.2332 88.2271 48.8172 89.1458 48.0598C86.9444 47.9732 83.2898 45.5665 81.2058 44.0598C81.0138 44.0172 80.8218 43.9692 80.6284 43.9225ZM82.3991 37.6438C81.4978 37.1865 79.8418 36.5465 78.2631 35.9652C77.1844 36.3812 75.7311 36.7025 74.2791 36.7025C74.0084 36.7025 73.7444 36.6892 73.4898 36.6665C77.9458 38.5092 84.8018 41.3598 87.9738 42.8358C84.8151 41.6238 77.9124 38.9732 73.4511 37.2585C74.8284 38.6078 75.8151 40.2332 76.2351 41.9345C77.3658 42.3292 79.6524 43.1092 80.7618 43.3892C82.3991 43.8078 83.9031 43.9572 85.2031 43.9572C87.1871 43.9572 88.6778 43.6092 89.3725 43.3598C88.6605 41.6118 86.3324 39.6158 82.3991 37.6438ZM76.2964 44.6345C76.2218 44.5598 75.4964 43.7812 74.5564 42.7692C74.4258 42.7705 74.3018 42.7745 74.1711 42.7745C72.7551 42.7745 71.3138 42.4785 69.8964 41.8932C73.9404 46.8972 80.9404 55.5358 83.6178 59.0065C80.4338 55.3492 73.9484 47.6332 69.4044 42.1812C69.8218 42.9172 70.1498 43.6532 70.3871 44.3998C70.7898 45.6678 70.9258 46.9612 70.7898 48.2585C76.1098 56.9052 79.6191 59.1292 84.9004 60.5838C84.4138 56.0732 82.0911 49.8732 76.2964 44.6345ZM65.2458 46.8505C66.8458 53.1318 69.3218 62.5132 70.5564 67.0865C69.1778 62.8345 66.3524 53.1892 64.5764 47.0838C64.6284 47.5838 64.6551 48.0545 64.6551 48.5038C64.6631 50.4332 64.2284 51.9732 63.3324 53.2105L63.2618 53.3118C64.4924 58.2665 65.5044 64.3958 71.1164 68.8265C72.7618 64.2772 70.2631 55.1332 68.7031 49.6918C67.4471 49.0958 66.2698 48.1185 65.2458 46.8505ZM72.8844 52.9558C72.6444 52.4958 72.2391 51.7038 71.7871 50.8358C71.4231 50.2892 71.0484 49.7092 70.6671 49.0998C70.6258 49.3118 70.5764 49.5238 70.5231 49.7385L70.3818 50.2785L69.8391 50.1278C69.6764 50.0785 69.5138 50.0238 69.3471 49.9652C69.6244 50.9118 69.9124 51.9478 70.2018 53.0398C70.9818 55.2545 71.7551 57.3758 72.0684 58.0585C74.7004 63.8198 76.7631 65.3532 79.3538 65.3532C79.7511 65.3532 80.1618 65.3158 80.5911 65.2518C78.6951 64.3225 75.6298 58.2785 72.8844 52.9558ZM63.0578 54.8025C62.9458 54.3292 62.8378 53.8772 62.7271 53.4345L62.5924 53.3492C62.0404 52.9892 61.5431 52.5705 61.0871 52.0732C60.9458 53.1932 60.6938 54.1732 60.4044 54.9758C61.9084 61.9212 64.0658 63.8345 65.3071 64.3665C65.0778 63.4478 64.7044 61.5558 64.3138 59.4772C63.7898 57.8678 63.4124 56.2758 63.0578 54.8025ZM58.1231 46.4132C57.5138 46.9705 56.6911 47.3012 55.8204 47.3012C55.3204 47.3012 54.8324 47.1985 54.3644 46.9905C53.7004 47.6772 52.6418 47.9865 51.7871 47.9865C51.5858 47.9865 51.3978 47.9718 51.2178 47.9385C51.8724 48.7772 52.9138 49.4105 54.4644 49.4105C56.2271 49.4105 57.7044 48.0065 58.1231 46.4132ZM70.3231 25.7745C71.6444 24.1065 72.5698 21.6918 72.2218 19.3372C69.8391 19.4772 67.5698 21.0438 66.0964 22.4465C66.8618 22.8105 67.5258 23.4705 67.8564 24.4118L71.1164 20.6038C70.7111 21.1398 69.2964 23.2372 68.2538 24.7972C69.0471 24.8918 69.7738 25.2398 70.3231 25.7745ZM54.2164 46.2932C54.7484 46.6132 55.2991 46.7558 55.8204 46.7558C57.0138 46.7558 58.0618 46.0132 58.4644 44.9798C59.0351 45.4398 59.6938 45.6518 60.3364 45.6518C61.6764 45.6518 62.9498 44.7145 63.2124 43.0798C63.7018 43.3878 64.2191 43.5238 64.7178 43.5238C66.4711 43.5238 68.0351 41.8372 67.5498 39.8452C67.6591 39.8545 67.7631 39.8558 67.8724 39.8558C70.4884 39.8558 71.6778 37.2105 70.3484 35.2745C72.6431 34.4998 72.9724 30.9918 70.2951 29.8332C71.6191 27.6065 70.0498 25.3158 67.8058 25.3158C67.7084 25.3158 67.6044 25.3185 67.5004 25.3292C67.3044 23.5278 65.8458 22.6545 64.6151 22.6545H64.6004C63.1271 22.6612 61.6884 23.8038 61.6884 25.5838C59.6538 25.5892 58.8111 27.3958 58.8111 28.4785C58.8111 29.6692 59.7871 31.0665 61.4458 31.3518C61.7311 30.6705 62.1871 29.9665 63.0684 29.5652C62.6418 28.1998 63.3191 27.0798 63.7871 26.3038C63.8871 26.1412 64.4378 25.1092 64.4378 25.1092C64.4378 25.1092 65.1858 25.9998 65.3191 26.1412C65.9391 26.7998 66.8391 27.7625 66.7018 29.1852C68.0991 29.4945 68.7311 30.6438 69.1698 31.4398C69.2618 31.6092 69.8751 32.5972 69.8751 32.5972C69.8751 32.5972 68.7271 32.8025 68.5418 32.8465C68.0858 32.9545 67.5658 33.0745 67.0111 33.0745C66.8284 33.0745 66.6538 33.0612 66.4844 33.0372C66.6871 34.9998 66.1684 36.7838 64.9471 38.3625C62.2631 41.8225 56.7391 43.4492 52.2378 43.5745C52.1631 44.0025 52.0644 44.3705 51.9884 44.6265C51.8058 45.2292 51.4884 46.3318 51.1924 47.3732C51.3738 47.4172 51.5791 47.4372 51.7871 47.4372C52.7031 47.4372 53.7644 47.0292 54.2164 46.2932ZM78.2178 27.8412C77.5991 28.8998 76.6351 29.8305 75.3964 30.5598C75.2004 30.6705 75.0004 30.7758 74.7964 30.8785C79.8031 30.7278 85.1605 30.6398 87.8378 30.5412C85.6698 30.7358 79.3764 31.1145 75.1418 31.3705C75.8391 31.5665 76.5364 31.8665 77.2191 32.2692C78.1951 32.8505 79.1071 33.6278 79.7298 34.4065C85.7618 33.5052 87.6071 32.1105 89.7724 30.3865C87.6551 29.2785 84.6244 28.1492 78.2178 27.8412ZM53.3538 40.1505C53.2764 40.4065 53.1911 40.6545 53.1111 40.8972C52.8658 41.6278 52.6378 42.3198 52.5058 42.9572L52.4924 43.0172C58.8244 42.7572 66.7444 39.4918 65.9138 32.8905C65.6671 32.7985 65.4324 32.6772 65.2138 32.5198C65.0191 32.7332 64.8124 32.8958 64.5991 33.0292C64.8964 38.1732 59.1151 40.0758 53.3538 40.1505ZM53.9831 36.3718C54.0738 37.4265 53.8391 38.5372 53.5244 39.6012C57.9751 39.5158 61.4164 38.3678 63.0151 36.4158C63.7311 35.5412 64.0764 34.4945 64.0564 33.2945C63.4124 33.5358 62.7898 33.5358 62.4324 33.5358C62.2938 33.5358 60.6711 33.5652 60.6711 33.5652C60.6711 33.5652 61.0684 32.4692 61.1204 32.2825C61.1604 32.1598 61.2018 32.0238 61.2458 31.8892C60.4538 31.7958 59.9071 31.3638 59.9071 31.3638C60.0404 32.4292 59.9071 33.7358 59.3618 34.5505C58.2458 36.2305 55.9978 36.3692 53.9831 36.3718ZM64.5991 22.1052H64.6151C64.8884 22.1052 65.1751 22.1438 65.4511 22.2118C66.0524 20.9412 66.8124 18.7332 66.5951 16.7452C60.9978 19.1065 58.7298 23.3732 58.6524 26.9292C59.0991 26.0452 59.9284 25.2492 61.1751 25.0705C61.2284 24.6612 61.3551 24.2812 61.5271 23.9452C62.1778 22.3598 63.0391 21.1972 65.4724 18.3772C64.1431 20.2518 63.4498 21.3758 62.9311 22.5372C63.4458 22.2598 64.0271 22.1078 64.5991 22.1052ZM61.4738 32.9825C61.5484 32.9812 61.6204 32.9785 61.6964 32.9785C61.9244 32.9785 62.1751 32.9852 62.4324 32.9852C63.3551 32.9852 64.4244 32.8625 65.1298 31.7278C65.7284 32.3425 66.3778 32.5265 67.0111 32.5265C67.7284 32.5265 68.4244 32.2825 68.9724 32.1945C68.4151 31.3212 67.8978 29.7158 66.0564 29.6532C66.5618 27.8852 65.2004 26.8945 64.5418 26.0985C64.0618 27.0118 62.9311 28.2665 63.7991 29.8932C62.0098 30.3332 61.8324 32.0132 61.4738 32.9825ZM79.3151 34.7705C78.3231 33.5105 75.9604 31.6585 73.3124 31.6585C73.0818 31.6585 72.8524 31.6705 72.6164 31.7025C72.7044 32.0332 72.7458 32.3878 72.7338 32.7505C72.7231 32.9958 72.6858 33.2318 72.6284 33.4625C74.8484 33.9358 77.8791 34.6265 77.8791 34.6265C77.8791 34.6265 74.5578 34.2225 72.4658 33.9692C72.1924 34.6265 71.7218 35.1692 71.1191 35.5225V35.5252C72.1124 35.9785 73.2111 36.1518 74.2791 36.1518C76.5364 36.1518 78.6551 35.3638 79.3151 34.7705ZM83.7311 37.7185C87.5578 37.2292 88.9151 35.9785 89.2218 34.5558C88.3751 34.9665 85.8391 35.1612 82.7844 35.1612C81.8218 35.1612 80.8044 35.1398 79.7698 35.1025L79.6844 35.1825C79.5111 35.3372 79.2711 35.4958 78.9818 35.6452C80.6858 36.2812 81.9311 36.7918 82.6458 37.1518C83.0244 37.3412 83.3831 37.5292 83.7311 37.7185ZM75.7111 42.1025C75.2111 40.0252 73.7031 37.8225 71.3671 36.2798C71.5338 37.0532 71.4324 37.8718 71.0578 38.5852C71.0351 38.6238 71.0138 38.6585 70.9938 38.6972C72.5604 39.8452 74.7711 41.5025 74.7711 41.5025C74.7711 41.5025 72.3884 40.0998 70.6898 39.1385C70.0964 39.8678 69.2124 40.3172 68.1951 40.3932C69.5924 41.2878 71.7378 42.2252 74.1711 42.2252C74.6751 42.2252 75.1871 42.1865 75.7111 42.1025ZM72.4338 31.1772C74.8071 30.5598 77.1244 29.1332 78.0444 26.9585C76.8071 26.2745 75.7791 25.9745 74.5524 25.9745C73.5431 25.9745 72.4004 26.1772 70.9071 26.5372C71.3191 27.2785 71.4284 28.1132 71.2431 28.9385C73.3751 28.3305 76.4378 27.4292 76.4378 27.4292C76.4378 27.4292 73.3244 28.7692 71.0391 29.6038C71.6684 29.9958 72.1498 30.5398 72.4338 31.1772ZM69.9924 49.5985C70.8124 46.4492 69.8911 43.6745 68.1258 41.2198C68.0258 41.7612 67.7951 42.2785 67.4458 42.7212C67.2858 42.9305 67.1004 43.1145 66.8978 43.2785L69.4298 48.5665C69.4298 48.5665 67.5991 45.6105 66.3924 43.6278C65.8818 43.9132 65.3031 44.0718 64.7178 44.0718C64.4978 44.0718 64.2778 44.0505 64.0658 44.0065C65.5018 46.8425 67.6431 48.9265 69.9924 49.5985ZM58.7764 45.8292C59.2618 46.0745 59.7898 46.2012 60.3364 46.2012C60.5724 46.2012 60.8018 46.1758 61.0231 46.1318C61.6484 48.4372 62.6218 51.7345 62.6218 51.7345C62.6218 51.7345 62.0364 48.3545 61.6164 45.9545C62.4418 45.6225 63.1098 44.9665 63.4831 44.1052C64.3524 47.6532 64.4498 50.7358 62.8884 52.8878C60.7258 51.4918 59.5751 49.0518 58.7764 45.8292ZM57.4831 68.2998C58.0964 69.2918 58.8324 70.4945 59.0098 70.8078C58.7604 70.5572 57.7978 69.4812 57.0071 68.5972C56.9578 69.2278 56.8631 69.8078 56.7191 70.3358C57.4978 71.1625 58.4178 71.4252 59.3898 71.5118C59.7858 70.7358 59.6404 69.5625 59.4764 68.8038C58.8191 68.6945 58.1511 68.5265 57.4831 68.2998ZM61.2844 68.4145C59.7564 68.4145 58.1151 68.0412 56.4938 67.3292C56.5524 70.2945 55.6884 72.6865 53.4071 73.2612C53.4071 73.2612 53.5951 71.9025 53.4551 71.2878C54.5391 70.3932 55.5444 68.3958 54.3711 65.4892C54.8524 68.6225 54.0071 70.5012 52.6378 71.1118C52.3884 68.6145 51.8498 65.2078 48.9538 61.7758C48.9084 61.0238 48.8871 60.2452 48.8871 59.4438C48.8871 56.2612 49.6178 52.2198 50.2018 50.3812C50.4871 50.3532 50.7564 50.3412 51.0124 50.3412C53.9964 50.3412 54.6578 52.0612 55.1764 53.5558C56.1951 56.5118 58.8898 59.3798 59.8791 60.0372C59.5364 60.1158 59.1831 60.1572 58.8244 60.1572C57.0724 60.1572 55.2218 59.2612 54.4258 57.7052C52.4844 57.6505 51.4431 56.9932 50.2018 55.7732C51.2471 57.5772 52.6124 58.1025 54.1511 58.2785C54.9458 59.7558 56.7724 60.7025 58.7818 60.7025C59.0538 60.7025 59.3284 60.6852 59.6018 60.6505C60.1658 61.6372 61.1458 62.4652 61.7111 62.9118C61.2698 63.0305 60.7044 63.1158 60.0818 63.1158C58.4711 63.1158 56.4404 62.5572 54.9231 60.5465H54.8964C52.7684 60.5465 51.2378 59.2985 50.2018 58.4812C51.0844 59.8372 52.7458 61.1638 54.8298 61.2398C55.9004 62.7332 57.8418 63.6678 59.9338 63.6678C60.2871 63.6678 60.6498 63.6478 61.0098 63.5905C61.7444 64.3732 62.8991 65.0812 63.3364 65.3025C62.7684 65.5865 61.7938 65.7838 60.6951 65.7838C58.6271 65.7838 56.1298 65.0918 55.1258 63.0345C55.0058 63.0438 54.8871 63.0438 54.7698 63.0438C52.6804 63.0438 51.3351 61.9452 50.2018 61.0612C51.2338 62.6612 52.8631 63.7318 54.8191 63.7318H54.8551C55.9938 65.6412 58.4564 66.3665 60.5724 66.3665C61.3618 66.3665 62.1071 66.2652 62.7138 66.0878C63.4911 66.8105 63.9178 67.2612 64.6258 67.6878C63.6364 68.1758 62.5004 68.4145 61.2844 68.4145ZM57.1204 85.9572C57.2178 86.7158 56.2644 88.6612 54.5351 88.6612C51.7311 88.6612 48.5138 83.9905 47.5951 82.5812C47.5471 83.2012 47.4711 83.8038 47.3724 84.3878C48.1991 85.8612 50.8098 90.1838 54.5351 90.1838C56.2471 90.1838 57.9324 89.2518 57.5191 87.3945C58.2898 88.9972 56.9431 90.7265 54.5351 90.7265C51.8498 90.7265 49.0044 88.6385 47.4324 85.6545C47.5378 86.7265 47.6044 87.7505 47.6151 88.7158C48.8551 90.5905 50.8351 92.7705 54.5351 92.7705C56.6444 92.7705 59.0684 91.2625 59.0684 88.8585C59.0684 87.7025 58.4711 86.6078 57.1204 85.9572ZM43.2698 85.6545C41.6951 88.6385 38.8511 90.7265 36.1658 90.7265C33.7551 90.7265 32.4071 88.9972 33.1791 87.3945C32.7631 89.2518 34.4511 90.1838 36.1658 90.1838C39.8898 90.1838 42.5018 85.8612 43.3271 84.3878C43.2298 83.8038 43.1578 83.2012 43.1031 82.5812C42.1871 83.9905 38.9671 88.6612 36.1658 88.6612C34.4338 88.6612 33.4818 86.7158 33.5778 85.9572C32.2284 86.6078 31.6311 87.7025 31.6311 88.8585C31.6311 91.2625 34.0551 92.7705 36.1658 92.7705C39.8618 92.7705 41.8458 90.5905 43.0844 88.7158C43.0991 87.7505 43.1591 86.7265 43.2698 85.6545ZM45.8324 89.3332L45.5484 89.8518C45.4724 91.6652 45.3964 93.5838 45.3484 94.9638C45.3031 93.5838 45.2284 91.6652 45.1524 89.8478L44.8698 89.3332C44.4644 88.5998 44.0738 87.5798 43.7524 86.3798C43.4044 90.4852 43.7631 94.1225 45.3484 97.2012C46.9338 94.1225 47.2951 90.4852 46.9471 86.3798C46.6271 87.5798 46.2311 88.5998 45.8324 89.3332ZM55.9938 79.4132C56.1404 80.1398 56.2244 82.0398 54.5351 82.0398C52.2524 82.0398 49.3818 79.7758 48.1311 77.6265C47.8111 77.3705 47.5231 77.0918 47.2804 76.8185C47.4324 77.5332 47.5324 78.2585 47.5951 78.9758C48.2818 80.1892 49.5338 81.5532 50.8618 82.4105C52.1511 83.2412 53.4498 83.7265 54.5351 83.7265C55.2858 83.7265 55.9498 83.4958 56.3271 83.0478C56.7564 82.5452 56.9058 81.7758 56.7604 80.7825C57.1324 81.8892 57.1004 82.7572 56.6764 83.3532C56.2924 83.8945 55.4791 84.1838 54.5351 84.1838C52.1444 84.1838 49.5004 82.6478 47.6631 80.0932C47.6778 80.6652 47.6764 81.2238 47.6458 81.7758C48.3818 82.6852 49.2898 83.7292 49.8124 84.1425C50.5898 84.7572 52.6844 85.8892 54.5351 85.8892C57.5778 85.8892 58.4991 84.1252 58.4991 82.3932C58.4991 80.8265 56.9658 79.5158 55.9938 79.4132ZM43.0351 80.0932C41.1964 82.6478 38.5591 84.1838 36.1658 84.1838C35.2191 84.1838 34.4071 83.8945 34.0218 83.3532C33.6004 82.7572 33.5671 81.8892 33.9378 80.7825C33.7938 81.7758 33.9418 82.5452 34.3738 83.0478C34.7524 83.4958 35.4124 83.7265 36.1658 83.7265C37.2511 83.7265 38.5498 83.2412 39.8391 82.4105C41.1618 81.5532 42.4191 80.1892 43.1031 78.9758C43.1698 78.2585 43.2698 77.5332 43.4204 76.8185C43.1778 77.0918 42.8924 77.3705 42.5684 77.6265C41.3218 79.7758 38.4484 82.0398 36.1658 82.0398C34.4738 82.0398 34.5604 80.1398 34.7044 79.4132C33.7324 79.5158 32.2004 80.8265 32.2004 82.3932C32.2004 84.1252 33.1231 85.8892 36.1658 85.8892C38.0151 85.8892 40.1098 84.7572 40.8831 84.1425C41.4071 83.7292 42.3204 82.6852 43.0511 81.7758C43.0258 81.2238 43.0218 80.6652 43.0351 80.0932ZM45.7871 77.3705L45.5991 77.6065C45.5191 80.5905 45.3951 85.2212 45.3484 86.7358C45.3044 85.2212 45.1804 80.5905 45.0978 77.6065L44.9138 77.3705C44.6271 76.9945 44.3818 76.5465 44.1751 76.0372C42.8018 81.0518 44.0298 86.6718 45.3484 89.0638C46.6684 86.6718 47.8978 81.0518 46.5258 76.0372C46.3191 76.5465 46.0751 76.9945 45.7871 77.3705ZM53.3631 75.0945C52.8271 75.4692 52.3191 75.6372 51.8458 75.6372C49.8684 75.6372 48.4978 72.6918 48.0898 69.5905C48.0858 69.5558 48.0818 69.5225 48.0778 69.4892C47.9378 69.2838 47.8058 69.0718 47.6778 68.8345C47.6298 70.0038 47.5471 71.2305 47.3898 72.4172C47.8058 74.1158 49.3964 76.6918 51.3018 76.6918C51.7124 76.6918 52.5511 76.5625 52.9924 76.0412C52.8218 76.7692 51.8391 77.0252 51.3018 77.0252C48.8871 77.0252 47.5844 74.4505 47.2218 73.4892C47.1191 74.0545 46.9978 74.6012 46.8484 75.1052C47.0938 75.8505 48.6271 78.1985 51.3018 78.1985C52.6804 78.1985 54.0444 77.1398 53.3631 75.0945ZM39.3991 77.0252C38.8631 77.0252 37.8738 76.7692 37.7084 76.0412C38.1484 76.5625 38.9844 76.6918 39.3991 76.6918C41.3031 76.6918 42.8964 74.1158 43.3098 72.4172C43.1524 71.2305 43.0698 70.0038 43.0244 68.8345C42.8964 69.0718 42.7604 69.2838 42.6204 69.4892C42.6191 69.5225 42.6124 69.5558 42.6124 69.5905C42.2058 72.6918 40.8298 75.6372 38.8538 75.6372C38.3818 75.6372 37.8738 75.4692 37.3391 75.0945C36.6578 77.1398 38.0191 78.1985 39.3991 78.1985C42.0738 78.1985 43.6071 75.8505 43.8538 75.1052C43.7031 74.5972 43.5764 74.0545 43.4764 73.4892C43.1191 74.4505 41.8151 77.0252 39.3991 77.0252ZM46.4458 65.0198C46.2551 65.4612 46.0391 65.8545 45.7898 66.1905L45.6831 66.3332C45.5484 70.1905 45.3484 75.5398 45.3484 75.5492C45.3484 75.5398 45.1524 70.1905 45.0178 66.3332L44.9084 66.1905C44.6618 65.8545 44.4458 65.4612 44.2524 65.0198C44.0391 66.0812 43.7964 66.9705 43.5231 67.7052C43.5338 67.8878 43.5418 68.0572 43.5471 68.2132C43.6511 71.3132 43.9711 75.2478 45.3484 77.0332C46.7311 75.2478 47.0444 71.3132 47.1511 68.2132C47.1578 68.0572 47.1671 67.8878 47.1764 67.7052C46.9031 66.9705 46.6618 66.0812 46.4458 65.0198ZM48.3378 59.4438C48.3378 56.3252 49.0471 52.2572 49.6578 50.2838C49.5004 50.2585 49.2738 50.2118 49.0044 50.1372C48.7098 51.1625 48.2204 52.1385 47.7124 52.9732C47.7124 53.0398 47.7178 53.1078 47.7178 53.1758C47.7618 54.0332 48.0258 60.1118 46.8191 64.0105C47.5378 68.2105 48.5951 70.0078 50.4658 70.6518C48.9471 67.8585 48.3378 63.5958 48.3378 59.4438ZM42.9831 53.1758C42.9844 53.1078 42.9844 53.0438 42.9884 52.9758C42.4764 52.1425 41.9884 51.1625 41.6911 50.1372C41.4258 50.2118 41.2004 50.2585 41.0444 50.2798C41.6511 52.2505 42.3631 56.3252 42.3631 59.4438C42.3631 63.5958 41.7511 67.8585 40.2351 70.6518C42.1031 70.0078 43.1604 68.2105 43.8804 64.0105C42.6738 60.1092 42.9378 54.0332 42.9831 53.1758ZM47.1938 53.7732C47.3311 57.3785 47.1098 63.5052 45.3484 65.8572C43.5898 63.5078 43.3658 57.3865 43.5058 53.7758C44.2311 54.8332 44.8871 55.5318 44.9471 55.5998L45.0978 55.7518C45.1964 58.5732 45.3124 61.6172 45.3484 62.5732C45.3884 61.6172 45.5004 58.5732 45.6031 55.7518L45.7511 55.5998C45.8098 55.5318 46.4631 54.8265 47.1938 53.7732ZM47.2311 49.3358C46.5844 48.9118 45.8724 48.2545 45.3471 47.2638C44.8231 48.2545 44.1111 48.9118 43.4658 49.3358C43.0324 49.6212 42.6018 49.8238 42.2164 49.9665C43.0098 52.7345 45.3471 55.2238 45.3471 55.2238C45.3471 55.2238 47.6871 52.7345 48.4818 49.9665C48.0924 49.8238 47.6631 49.6212 47.2311 49.3358ZM49.5044 42.5185C48.3898 44.8972 46.3058 46.5225 45.7764 46.9065C47.0991 49.5385 49.9458 49.7665 49.9458 49.7665C49.9458 49.7665 51.0418 45.8385 51.4631 44.4665C51.5738 44.1105 51.6591 43.7332 51.7218 43.3492C51.4084 43.2692 50.5324 43.0158 49.5044 42.5185ZM41.1951 42.5185C40.1684 43.0158 39.2858 43.2692 38.9738 43.3492C39.0351 43.7332 39.1258 44.1105 39.2378 44.4665C39.6538 45.8385 40.7524 49.7665 40.7524 49.7665C40.7524 49.7665 43.6004 49.5385 44.9164 46.9065C44.3884 46.5185 42.3098 44.8972 41.1951 42.5185ZM48.4818 41.9652C46.9044 40.9945 45.8444 39.7798 45.3471 38.3838C44.8524 39.7798 43.7951 40.9945 42.2164 41.9652C42.0391 42.0732 41.8631 42.1718 41.6858 42.2678C42.8924 44.8505 45.3471 46.5385 45.3471 46.5385C45.3471 46.5385 47.8058 44.8505 49.0098 42.2678C48.8378 42.1718 48.6591 42.0732 48.4818 41.9652ZM50.5751 35.6732C49.8564 35.2998 49.3058 34.7838 48.9311 34.1385C48.0484 36.2118 46.2791 37.5972 45.7804 37.9492C46.8831 41.6718 51.9671 42.8438 51.9671 42.8438C52.3898 40.8558 53.6551 38.4478 53.4311 36.3518C52.7484 36.3332 51.6084 36.2145 50.5751 35.6732ZM44.9138 37.9492C43.8124 41.6718 38.7311 42.8438 38.7311 42.8438C38.3018 40.8345 36.9311 38.3918 37.2591 36.2705C38.0058 36.2665 39.2031 36.1945 40.2284 35.6785C40.9164 35.3345 41.4404 34.8372 41.7991 34.2105C42.6871 36.2372 44.4218 37.5932 44.9138 37.9492ZM16.3378 14.0025C14.3911 12.9278 12.0604 12.1278 10.0031 12.1278C9.86711 12.1278 9.73245 12.1318 9.59912 12.1385C10.0511 14.2998 10.9098 15.9318 12.3884 17.4758C13.0431 18.1598 15.5671 20.1985 18.0364 22.0985C17.8458 21.1972 17.7898 20.2372 17.9338 19.2585L17.9484 19.1545C15.0498 16.7505 12.0991 14.2625 11.3671 13.5492C12.3378 14.2438 15.3978 16.5132 18.4244 18.7865L18.5098 18.7918C20.8978 18.9305 23.0111 20.3425 24.3324 21.4638C24.1351 20.9398 23.9458 20.3518 23.8018 19.7278C23.0898 19.1505 22.1738 18.4025 21.0311 17.4758C19.8724 16.5372 18.6938 15.5798 17.8231 14.8718C17.3044 14.5558 16.7991 14.2572 16.3378 14.0025ZM12.1551 27.3105C8.97245 26.1345 4.35512 24.3558 3.03512 23.4185C2.71112 25.0758 4.14178 26.3838 6.80445 27.8878C8.27778 27.6252 10.0311 27.4225 12.1551 27.3105ZM12.4471 20.7438C9.24178 19.9012 7.27645 19.6585 5.99245 19.6585C5.25645 19.6585 4.74312 19.7385 4.34578 19.8252C5.85645 22.8438 10.2871 25.5892 12.1978 26.5825L12.3871 26.4785C13.7218 25.7412 14.8471 25.4252 16.1471 25.4252C16.4951 25.4252 16.8591 25.4478 17.2404 25.4905C13.4898 23.9572 8.19245 21.7558 6.09912 20.7158C9.15378 21.7692 15.5138 24.2385 19.7671 25.9652C19.7898 25.9705 19.8138 25.9798 19.8418 25.9865C19.1898 25.1225 18.5858 24.0305 18.2191 22.8052C16.5111 22.0758 14.4244 21.2678 12.4471 20.7438ZM14.0364 19.6345C10.8725 17.5785 8.79245 16.0958 8.02445 14.9852C7.40578 16.3545 7.87245 17.6812 9.68845 19.5385C10.5671 19.7118 11.5338 19.9358 12.5871 20.2172C13.8125 20.5398 15.0871 20.9772 16.2724 21.4265C15.4684 20.7972 14.7031 20.1825 14.0364 19.6345ZM30.0978 51.4865C30.3471 54.1492 31.2431 55.9972 31.7724 56.7292C32.6871 55.9852 34.4391 53.3652 35.0938 49.7918C34.3951 49.5798 33.7418 49.1705 33.1924 48.5932C32.9471 48.3358 32.7338 48.0545 32.5524 47.7545C32.2644 51.1158 31.8871 55.5052 31.8871 55.5052C31.8871 55.5052 31.9284 51.0838 31.9831 47.6452C31.7284 48.4305 31.4564 49.1225 31.1538 49.7478C30.8351 50.3932 30.4844 50.9758 30.0978 51.4865ZM29.1178 15.5172C26.1498 12.9825 20.0924 8.66517 13.3111 8.10117C13.8618 9.97584 15.5711 12.3865 16.9898 13.4998C17.8591 14.1825 21.2591 16.9572 23.6351 18.8852C23.5231 18.1572 23.4791 17.4065 23.5591 16.6825L23.5911 16.3958C20.5404 13.5678 17.8391 11.5292 15.3898 9.54517C17.6884 11.1012 20.5644 12.9012 24.1911 16.1812L24.3178 16.2358C27.5338 17.5932 29.9711 19.6932 31.3604 22.3092C32.5084 24.4705 32.8738 27.0558 32.3471 29.1798C32.2871 29.4305 32.1711 29.7318 32.0471 29.9692C36.4844 26.5652 34.2951 19.9318 29.1178 15.5172ZM9.49245 44.0598C7.40578 45.5665 3.75912 47.9732 1.55112 48.0598C2.47245 48.8172 3.60045 49.2332 4.98578 49.2332C6.59778 49.2332 8.56045 48.6772 10.9551 47.4612C11.8818 46.3225 12.9084 45.2412 14.0311 44.2292C14.1191 44.1398 14.7004 43.5185 15.4458 42.7158C15.2604 42.6932 15.0818 42.6718 14.8991 42.6412L14.3671 42.5492C13.1631 42.9638 11.1271 43.6532 10.0724 43.9225C9.87911 43.9692 9.68445 44.0172 9.49245 44.0598ZM1.33112 43.3598C2.02312 43.6092 3.51378 43.9572 5.49778 43.9572C6.79378 43.9572 8.30445 43.8078 9.93778 43.3892C11.0484 43.1092 13.3311 42.3292 14.4671 41.9345C14.8818 40.2332 15.8724 38.6078 17.2484 37.2585C12.7884 38.9732 5.88578 41.6238 2.72845 42.8358C5.89512 41.3598 12.7564 38.5092 17.2111 36.6665C16.9551 36.6892 16.6924 36.7025 16.4218 36.7025C14.9671 36.7025 13.5111 36.3812 12.4324 35.9652C10.8578 36.5465 9.20712 37.1865 8.30045 37.6438C4.36445 39.6158 2.04045 41.6118 1.33112 43.3598ZM5.79912 60.5838C11.0791 59.1292 14.5911 56.9052 19.9071 48.2585C19.7724 46.9612 19.9058 45.6678 20.3138 44.3998C20.5498 43.6532 20.8791 42.9172 21.2978 42.1812C16.7511 47.6332 10.2618 55.3492 7.08178 59.0065C9.75511 55.5358 16.7564 46.8972 20.8031 41.8932C19.3844 42.4785 17.9471 42.7745 16.5284 42.7745C16.4004 42.7745 16.2724 42.7705 16.1431 42.7692C15.2044 43.7812 14.4778 44.5598 14.4004 44.6345C8.60978 49.8732 6.28578 56.0732 5.79912 60.5838ZM21.9978 49.6918C20.4351 55.1332 17.9338 64.2772 19.5844 68.8265C25.1938 64.3958 26.2098 58.2665 27.4391 53.3118L27.3658 53.2105C26.4711 51.9732 26.0351 50.4332 26.0444 48.5038C26.0444 48.0545 26.0738 47.5838 26.1231 47.0838C24.3485 53.1892 21.5258 62.8345 20.1431 67.0865C21.3778 62.5132 23.8484 53.1318 25.4538 46.8505C24.4311 48.1185 23.2524 49.0958 21.9978 49.6918ZM10.1111 65.2518C10.5364 65.3158 10.9458 65.3532 11.3484 65.3532C13.9338 65.3532 15.9991 63.8198 18.6298 58.0585C18.9431 57.3758 19.7204 55.2545 20.4978 53.0398C20.7884 51.9478 21.0751 50.9118 21.3471 49.9652C21.1858 50.0238 21.0231 50.0785 20.8591 50.1278L20.3191 50.2785L20.1778 49.7385C20.1231 49.5238 20.0764 49.3118 20.0338 49.0998C19.6511 49.7092 19.2778 50.2892 18.9071 50.8358C18.4591 51.7038 18.0564 52.4958 17.8151 52.9558C15.0684 58.2785 12.0031 64.3225 10.1111 65.2518ZM26.3884 59.4772C25.9924 61.5558 25.6178 63.4478 25.3911 64.3665C26.6338 63.8345 28.7898 61.9212 30.2951 54.9758C30.0058 54.1732 29.7591 53.1932 29.6098 52.0732C29.1578 52.5705 28.6591 52.9892 28.1084 53.3492L27.9711 53.4345C27.8644 53.8772 27.7538 54.3292 27.6404 54.8025C27.2884 56.2758 26.9084 57.8678 26.3884 59.4772ZM36.2378 49.4105C37.7858 49.4105 38.8298 48.7772 39.4791 47.9385C39.3031 47.9718 39.1111 47.9865 38.9151 47.9865C38.0578 47.9865 37.0004 47.6772 36.3364 46.9905C35.8658 47.1985 35.3778 47.3012 34.8804 47.3012C34.0098 47.3012 33.1884 46.9705 32.5724 46.4132C32.9964 48.0065 34.4724 49.4105 36.2378 49.4105ZM22.4444 24.7972C21.4044 23.2372 19.9898 21.1398 19.5844 20.6038L22.8458 24.4118C23.1711 23.4705 23.8378 22.8105 24.6031 22.4465C23.1271 21.0438 20.8591 19.4772 18.4778 19.3372C18.1244 21.6918 19.0578 24.1065 20.3778 25.7745C20.9231 25.2398 21.6524 24.8918 22.4444 24.7972ZM38.9151 47.4372C39.1244 47.4372 39.3218 47.4172 39.5084 47.3732C39.2124 46.3318 38.8964 45.2292 38.7124 44.6265C38.6351 44.3705 38.5391 44.0025 38.4631 43.5745C33.9618 43.4492 28.4391 41.8225 25.7551 38.3625C24.5324 36.7838 24.0151 34.9998 24.2138 33.0372C24.0471 33.0612 23.8724 33.0745 23.6924 33.0745C23.1271 33.0745 22.6151 32.9545 22.1591 32.8465C21.9711 32.8025 20.8231 32.5972 20.8231 32.5972C20.8231 32.5972 21.4378 31.6092 21.5298 31.4398C21.9671 30.6438 22.6004 29.4945 23.9978 29.1852C23.8618 27.7625 24.7604 26.7998 25.3804 26.1412C25.5124 25.9998 26.2644 25.1092 26.2644 25.1092C26.2644 25.1092 26.8138 26.1412 26.9138 26.3038C27.3804 27.0798 28.0631 28.1998 27.6311 29.5652C28.5138 29.9665 28.9684 30.6705 29.2538 31.3518C30.9111 31.0665 31.8871 29.6692 31.8871 28.4785C31.8871 27.3958 31.0431 25.5892 29.0098 25.5838C29.0098 23.8038 27.5751 22.6612 26.1004 22.6545H26.0898C24.8551 22.6545 23.3964 23.5278 23.1938 25.3292C23.0951 25.3185 22.9924 25.3158 22.8924 25.3158C20.6511 25.3158 19.0818 27.6065 20.4018 29.8332C17.7298 30.9918 18.0591 34.4998 20.3498 35.2745C19.0231 37.2105 20.2111 39.8558 22.8284 39.8558C22.9364 39.8558 23.0378 39.8545 23.1498 39.8452C22.6658 41.8372 24.2284 43.5238 25.9818 43.5238C26.4818 43.5238 26.9978 43.3878 27.4884 43.0798C27.7498 44.7145 29.0231 45.6518 30.3631 45.6518C31.0071 45.6518 31.6658 45.4398 32.2338 44.9798C32.6364 46.0132 33.6871 46.7558 34.8804 46.7558C35.4031 46.7558 35.9498 46.6132 36.4844 46.2932C36.9324 47.0292 37.9964 47.4372 38.9151 47.4372ZM0.925781 30.3865C3.09378 32.1105 4.93778 33.5052 10.9698 34.4065C11.5871 33.6278 12.5004 32.8505 13.4804 32.2692C14.1631 31.8665 14.8591 31.5665 15.5578 31.3705C11.3218 31.1145 5.02712 30.7358 2.86178 30.5412C5.54045 30.6398 10.8964 30.7278 15.9044 30.8785C15.6978 30.7758 15.4978 30.6705 15.3044 30.5598C14.0618 29.8305 13.1004 28.8998 12.4818 27.8412C6.07245 28.1492 3.04445 29.2785 0.925781 30.3865ZM26.1031 33.0292C25.8911 32.8958 25.6791 32.7332 25.4831 32.5198C25.2671 32.6772 25.0311 32.7985 24.7858 32.8905C23.9564 39.4918 31.8751 42.7572 38.2111 43.0172L38.1964 42.9572C38.0604 42.3198 37.8324 41.6278 37.5898 40.8972C37.5084 40.6545 37.4258 40.4065 37.3458 40.1505C31.5858 40.0758 25.8018 38.1732 26.1031 33.0292ZM31.3391 34.5505C30.7951 33.7358 30.6631 32.4292 30.7951 31.3638C30.7951 31.3638 30.2458 31.7958 29.4538 31.8892C29.4978 32.0238 29.5404 32.1598 29.5751 32.2825C29.6338 32.4692 30.0271 33.5652 30.0271 33.5652C30.0271 33.5652 28.4058 33.5358 28.2684 33.5358C27.9058 33.5358 27.2884 33.5358 26.6431 33.2945C26.6231 34.4945 26.9711 35.5412 27.6884 36.4158C29.2804 38.3678 32.7231 39.5158 37.1764 39.6012C36.8618 38.5372 36.6258 37.4265 36.7164 36.3718C34.7018 36.3692 32.4551 36.2305 31.3391 34.5505ZM27.7684 22.5372C27.2524 21.3758 26.5564 20.2518 25.2258 18.3772C27.6618 21.1972 28.5191 22.3598 29.1711 23.9452C29.3458 24.2812 29.4671 24.6612 29.5258 25.0705C30.7724 25.2492 31.6018 26.0452 32.0471 26.9292C31.9711 23.3732 29.7018 19.1065 24.1071 16.7452C23.8871 18.7332 24.6458 20.9412 25.2471 22.2118C25.5258 22.1438 25.8111 22.1052 26.0898 22.1052H26.1004C26.6738 22.1078 27.2538 22.2598 27.7684 22.5372ZM26.8991 29.8932C27.7684 28.2665 26.6378 27.0118 26.1591 26.0985C25.5018 26.8945 24.1351 27.8852 24.6458 29.6532C22.8058 29.7158 22.2804 31.3212 21.7284 32.1945C22.2778 32.2825 22.9658 32.5265 23.6924 32.5265C24.3218 32.5265 24.9738 32.3425 25.5698 31.7278C26.2764 32.8625 27.3404 32.9852 28.2684 32.9852C28.5271 32.9852 28.7751 32.9785 29.0044 32.9785C29.0818 32.9785 29.1538 32.9812 29.2258 32.9825C28.8658 32.0132 28.6911 30.3332 26.8991 29.8932ZM16.4218 36.1518C17.4898 36.1518 18.5858 35.9785 19.5791 35.5252V35.5225C18.9764 35.1692 18.5098 34.6265 18.2364 33.9692C16.1378 34.2225 12.8218 34.6265 12.8218 34.6265C12.8218 34.6265 15.8484 33.9358 18.0671 33.4625C18.0151 33.2318 17.9778 32.9958 17.9658 32.7505C17.9524 32.3878 17.9924 32.0332 18.0818 31.7025C17.8458 31.6705 17.6164 31.6585 17.3844 31.6585C14.7378 31.6585 12.3738 33.5105 11.3818 34.7705C12.0431 35.3638 14.1631 36.1518 16.4218 36.1518ZM8.05378 37.1518C8.76978 36.7918 10.0111 36.2812 11.7204 35.6452C11.4271 35.4958 11.1858 35.3372 11.0138 35.1825L10.9258 35.1025C9.89512 35.1398 8.87912 35.1612 7.91245 35.1612C4.86312 35.1612 2.32445 34.9665 1.47912 34.5558C1.78178 35.9785 3.14312 37.2292 6.96712 37.7185C7.31378 37.5292 7.67512 37.3412 8.05378 37.1518ZM16.5284 42.2252C18.9604 42.2252 21.1084 41.2878 22.5071 40.3932C21.4858 40.3172 20.6031 39.8678 20.0098 39.1385C18.3111 40.0998 15.9298 41.5025 15.9298 41.5025C15.9298 41.5025 18.1391 39.8452 19.7058 38.6972C19.6858 38.6585 19.6618 38.6238 19.6444 38.5852C19.2658 37.8718 19.1644 37.0532 19.3298 36.2798C16.9978 37.8225 15.4898 40.0252 14.9884 42.1025C15.5138 42.1865 16.0244 42.2252 16.5284 42.2252ZM19.6604 29.6038C17.3738 28.7692 14.2618 27.4292 14.2618 27.4292C14.2618 27.4292 17.3231 28.3305 19.4564 28.9385C19.2684 28.1132 19.3804 27.2785 19.7951 26.5372C18.2951 26.1772 17.1538 25.9745 16.1471 25.9745C14.9204 25.9745 13.8911 26.2745 12.6524 26.9585C13.5738 29.1332 15.8911 30.5598 18.2658 31.1772C18.5524 30.5398 19.0324 29.9958 19.6604 29.6038ZM26.6338 44.0065C26.4191 44.0505 26.2018 44.0718 25.9818 44.0718C25.3951 44.0718 24.8178 43.9132 24.3044 43.6278C23.1018 45.6105 21.2711 48.5665 21.2711 48.5665L23.8018 43.2785C23.5978 43.1145 23.4164 42.9305 23.2551 42.7212C22.9044 42.2785 22.6751 41.7612 22.5711 41.2198C20.8084 43.6745 19.8858 46.4492 20.7098 49.5985C23.0604 48.9265 25.2004 46.8425 26.6338 44.0065ZM27.8098 52.8878C26.2511 50.7358 26.3484 47.6532 27.2178 44.1052C27.5911 44.9665 28.2538 45.6225 29.0818 45.9545C28.6658 48.3545 28.0738 51.7345 28.0738 51.7345C28.0738 51.7345 29.0484 48.4372 29.6738 46.1318C29.8978 46.1758 30.1271 46.2012 30.3631 46.2012C30.9084 46.2012 31.4378 46.0745 31.9244 45.8292C31.1284 49.0518 29.9751 51.4918 27.8098 52.8878ZM31.2218 68.8038C31.0644 69.5625 30.9151 70.7358 31.3098 71.5118C32.2844 71.4252 33.2058 71.1625 33.9818 70.3358C33.8378 69.8078 33.7418 69.2278 33.6924 68.5972C32.9058 69.4812 31.9404 70.5572 31.6884 70.8078C31.8644 70.4945 32.6031 69.2918 33.2164 68.2998C32.5484 68.5265 31.8818 68.6945 31.2218 68.8038ZM26.0738 67.6878C26.7844 67.2612 27.2098 66.8105 27.9844 66.0878C28.5938 66.2652 29.3378 66.3665 30.1271 66.3665C32.2458 66.3665 34.7018 65.6412 35.8458 63.7318H35.8791C37.8351 63.7318 39.4658 62.6612 40.4978 61.0612C39.3658 61.9452 38.0191 63.0438 35.9298 63.0438C35.8124 63.0438 35.6951 63.0438 35.5751 63.0345C34.5684 65.0918 32.0738 65.7838 30.0058 65.7838C28.9084 65.7838 27.9311 65.5865 27.3618 65.3025C27.8018 65.0812 28.9564 64.3732 29.6924 63.5905C30.0511 63.6478 30.4084 63.6678 30.7631 63.6678C32.8578 63.6678 34.7964 62.7332 35.8698 61.2398C37.9564 61.1638 39.6151 59.8372 40.4978 58.4812C39.4644 59.2985 37.9378 60.5465 35.8031 60.5465H35.7711C34.2618 62.5572 32.2284 63.1158 30.6204 63.1158C29.9924 63.1158 29.4311 63.0305 28.9871 62.9118C29.5524 62.4652 30.5324 61.6372 31.0978 60.6505C31.3724 60.6852 31.6444 60.7025 31.9151 60.7025C33.9284 60.7025 35.7524 59.7558 36.5484 58.2785C38.0924 58.1025 39.4498 57.5772 40.4978 55.7732C39.2618 56.9932 38.2124 57.6505 36.2751 57.7052C35.4751 59.2612 33.6271 60.1572 31.8791 60.1572C31.5164 60.1572 31.1604 60.1158 30.8204 60.0372C31.8111 59.3798 34.5058 56.5118 35.5258 53.5558C36.0418 52.0612 36.7018 50.3412 39.6884 50.3412C39.9418 50.3412 40.2124 50.3532 40.4978 50.3812C41.0831 52.2198 41.8138 56.2612 41.8138 59.4438C41.8138 60.2452 41.7898 61.0238 41.7444 61.7758C38.8511 65.2078 38.3138 68.6145 38.0604 71.1118C36.6951 70.5012 35.8471 68.6225 36.3284 65.4892C35.1538 68.3958 36.1604 70.3932 37.2444 71.2878C37.1071 71.9025 37.2898 73.2612 37.2898 73.2612C35.0098 72.6865 34.1484 70.2945 34.2084 67.3292C32.5871 68.0412 30.9391 68.4145 29.4151 68.4145C28.2004 68.4145 27.0658 68.1758 26.0738 67.6878Z" fill="white"/>
<path d="M41.8016 10.1296C42.2296 10.0776 42.6856 10.051 43.1989 10.051C44.2362 10.051 45.3176 10.159 46.3629 10.2563C47.3522 10.351 48.2842 10.443 49.1269 10.443C49.4202 10.443 49.6869 10.4283 49.9362 10.4056C50.8936 7.9003 52.9282 5.54563 54.0002 3.58963C53.3029 3.8123 51.6922 3.59364 51.2176 4.24164C51.0056 4.5243 51.2256 5.1683 50.8256 5.1683H50.8216C50.8469 4.8043 50.4896 4.47497 50.0429 4.47497C49.7776 4.47497 49.4749 4.5963 49.2109 4.9043C48.6309 5.58296 49.9562 6.89097 49.2469 8.20563C49.2789 8.20697 49.3096 8.20697 49.3362 8.20697C50.1536 8.20697 50.2602 7.16564 50.2602 6.6163C50.8096 7.9283 49.9456 8.8043 48.5816 8.8043C48.3602 8.8043 48.1282 8.78297 47.8856 8.7323C46.4736 8.4603 45.8376 7.85764 45.8376 6.56164C45.8962 6.1683 45.8722 5.88563 46.3216 5.6043C46.1829 5.91897 46.1602 6.3003 46.1602 6.66297C46.1602 7.24964 46.4736 7.73097 46.9802 7.91097C46.8789 6.1843 48.6482 5.74431 48.5162 4.48164C48.4629 3.99764 47.8882 3.62696 47.1922 3.62696C46.9482 3.62696 46.6922 3.67364 46.4362 3.77897C47.0936 2.60564 45.6989 1.47363 45.3482 0.901631C44.9989 1.47363 43.6029 2.60564 44.2629 3.77897C44.0056 3.67364 43.7522 3.62696 43.5042 3.62696C42.8109 3.62696 42.2349 3.99764 42.1829 4.48164C42.0509 5.74431 43.8202 6.1843 43.7176 7.91097C44.2242 7.73097 44.5376 7.24964 44.5376 6.66297C44.5376 6.3003 44.5122 5.91897 44.3789 5.6043C44.8229 5.88563 44.8029 6.1683 44.8602 6.56164C44.8602 7.84297 44.2202 8.4603 42.8136 8.7323C42.5722 8.78297 42.3376 8.8043 42.1202 8.8043C40.7536 8.8043 39.8896 7.9283 40.4389 6.6163C40.4389 7.16564 40.5416 8.20697 41.3616 8.20697C41.3896 8.20697 41.4202 8.20697 41.4496 8.20563C40.7402 6.89097 42.0722 5.58296 41.4842 4.9043C41.2202 4.5963 40.9202 4.47497 40.6536 4.47497C40.2096 4.47497 39.8509 4.8043 39.8776 5.1683H39.8736C39.4789 5.1683 39.6936 4.5243 39.4816 4.24164C39.0042 3.59364 37.3949 3.8123 36.6949 3.58963C37.7722 5.54963 39.8042 7.90164 40.7629 10.4123C41.0322 10.2803 41.3682 10.183 41.8016 10.1296ZM63.3362 85.0456C62.9496 85.1776 62.4749 85.2336 62.0402 85.2336C61.7776 85.2336 61.5322 85.215 61.3349 85.1776C61.3216 86.2443 62.1322 86.8243 63.1282 86.8243C63.3202 86.8243 63.5256 86.8043 63.7309 86.763C63.4162 86.1936 63.3616 85.6816 63.3362 85.0456ZM71.0829 89.4483C71.0082 90.0896 70.8869 90.5976 70.5322 91.1363C70.7962 91.2176 71.0602 91.251 71.3149 91.251C72.2269 91.251 72.9749 90.739 73.0402 89.743C72.8802 89.783 72.7042 89.8003 72.5256 89.8003C72.0216 89.8003 71.4749 89.659 71.0829 89.4483ZM78.5229 86.1336C78.1936 86.3043 77.7616 86.3803 77.3442 86.3803C77.0602 86.3803 76.7842 86.347 76.5509 86.2856C76.6189 86.9203 76.6176 87.447 76.3882 88.0483C76.4562 88.055 76.5256 88.059 76.5936 88.059C77.7762 88.059 78.7109 87.3256 78.5229 86.1336ZM80.2802 78.8656C80.0589 79.447 79.4456 80.0243 78.9109 80.295C79.3882 80.719 79.7336 81.115 79.9669 81.719C80.9762 80.9296 81.2709 79.6723 80.2802 78.8656ZM65.2216 78.5523C64.1936 77.343 61.5269 74.5563 59.0776 72.031C58.2776 71.9323 57.3616 71.6883 56.5469 70.9363C56.4909 71.0803 56.4376 71.231 56.3736 71.367C59.2282 73.803 63.7936 77.631 64.7416 78.675C65.1749 79.1603 65.2669 79.6616 65.2389 80.071C65.3749 79.9256 65.4629 79.7656 65.5016 79.6243C65.5656 79.3896 65.4376 78.8043 65.2216 78.5523ZM80.0176 78.5456C79.6429 79.1083 79.1882 79.7843 78.3829 79.947C78.0989 80.0043 77.8309 80.031 77.5856 80.031C76.6029 80.031 75.9602 79.6136 75.6402 79.211C74.3629 79.8576 73.9042 80.359 72.4336 80.451C71.8922 80.2616 71.6122 80.139 70.7589 79.9696C71.3976 80.4043 72.5309 81.0616 73.4589 81.4483C74.2242 81.7696 74.7296 81.7763 75.4802 82.3936C75.9149 81.875 76.4642 81.6643 76.9802 81.6643C77.3549 81.6643 77.7122 81.7763 78.0042 81.9603C78.7136 82.4136 79.0936 83.3096 78.8229 84.1763C78.6549 84.719 77.9202 85.031 77.1282 85.031C76.9976 85.031 76.8656 85.0243 76.7336 85.003C76.9802 85.163 77.2549 85.231 77.5362 85.231C78.0016 85.231 78.4749 85.0456 78.7976 84.7763C79.1069 84.787 79.2336 85.3456 78.5682 85.6483C78.2029 85.811 77.7362 85.9336 77.2469 85.9336C76.9709 85.9336 76.6869 85.891 76.4136 85.8003C75.5682 85.519 74.9509 84.6483 74.9509 83.855C73.6509 83.7696 72.8216 83.471 71.5736 82.3603C71.2336 82.0536 70.7722 81.6816 70.3709 81.4603C69.9576 80.9803 69.2096 80.5123 68.7776 80.319C70.6082 82.1763 70.7416 83.079 71.8122 84.8443C71.9816 84.8203 72.1402 84.8043 72.2896 84.8043C74.2002 84.8043 74.5976 86.9803 73.8469 87.835C73.4416 88.299 72.9242 88.415 72.4869 88.415C72.2109 88.415 71.9656 88.3656 71.7976 88.3336C72.0189 88.6523 72.3816 88.7363 72.7456 88.7363C73.0562 88.7363 73.3656 88.675 73.6002 88.6376C73.7922 88.6723 73.8629 89.2336 73.2282 89.3283C73.1242 89.3456 72.9536 89.3643 72.7416 89.3643C72.2282 89.3643 71.4749 89.251 70.8402 88.699C69.8962 87.8856 70.0816 86.671 70.4002 85.9016C68.4669 84.123 68.3696 82.3163 67.4509 81.5963C67.6522 81.987 67.7202 82.3123 67.7602 82.6136C66.9909 82.8096 66.2496 82.8536 65.6162 82.8536C65.0776 82.8536 64.6776 82.8096 64.5416 82.783C64.4482 83.6043 64.0509 84.1563 63.4322 84.4683C63.1096 84.631 62.5616 84.767 61.9309 84.767C61.6269 84.767 61.3096 84.7323 60.9882 84.6576C60.3802 84.519 60.5136 83.9083 60.7589 83.8683C60.8802 83.963 61.3269 84.143 61.8322 84.143C62.0229 84.143 62.2282 84.115 62.4229 84.0483C61.6922 84.0483 61.0269 83.7256 60.6016 83.1603C60.1189 82.5256 60.4082 80.5123 62.3322 80.3896C62.3656 80.387 62.4002 80.383 62.4309 80.383C63.2216 80.383 63.7856 80.9736 64.5056 80.9736C64.6442 80.9736 64.7869 80.9536 64.9402 80.9016C65.5216 80.699 65.9002 80.2456 66.0296 79.7656C66.1429 79.3456 65.9656 78.5803 65.6362 78.1976C64.6442 77.0203 62.1456 74.4043 59.7762 71.963C60.3296 71.0243 60.2349 69.7563 60.0656 68.8843C60.3656 68.923 60.6629 68.943 60.9576 68.9563C61.7269 69.7363 62.4309 70.455 62.9402 70.8883C62.6402 71.055 62.2962 71.123 61.9296 71.123C61.5349 71.123 61.1109 71.0416 60.7016 70.9283C61.1456 71.343 61.7189 71.4856 62.2549 71.4856C62.4656 71.4856 62.6709 71.4643 62.8629 71.427C63.1856 71.8416 64.2456 72.739 64.6682 73.0816C64.3482 73.2776 63.9616 73.343 63.5802 73.343C63.1162 73.343 62.6522 73.2443 62.2976 73.1496C62.7122 73.5696 63.2416 73.6923 63.7709 73.6923C64.0736 73.6923 64.3722 73.651 64.6536 73.6043C65.1989 74.3016 66.0322 74.9416 66.5589 75.3363C66.2562 75.499 65.8802 75.563 65.5149 75.563C64.9629 75.563 64.4176 75.4203 64.1082 75.299C64.4842 75.7603 65.0229 75.955 65.6789 75.955C65.9496 75.955 66.2429 75.919 66.5496 75.855C67.1322 76.4096 67.9562 77.0896 68.5162 77.4003C68.2096 77.6176 67.7776 77.707 67.3136 77.707C66.8042 77.707 66.2602 77.599 65.8216 77.4483C66.3722 77.9123 66.9682 78.1256 67.5562 78.1256C67.8216 78.1256 68.0842 78.0816 68.3482 78.0043C68.4122 78.0816 68.6096 78.2683 68.8149 78.3963C68.9976 78.5123 69.2536 78.5563 69.5482 78.5563C70.5722 78.5563 72.0242 78.0043 72.1922 77.9456C72.9176 77.715 73.9456 77.5523 74.8776 77.5523C75.0002 77.5523 75.1229 77.5563 75.2429 77.563C75.2429 77.1656 75.8229 75.9363 77.1429 75.9363C78.3402 75.9363 79.0682 76.887 79.0682 77.891C79.0682 78.455 78.7642 78.7936 78.0216 79.0376C78.9109 79.031 79.3282 78.5896 79.5696 78.007C79.6269 77.9523 79.6909 77.9296 79.7509 77.9296C79.9882 77.9296 80.2002 78.2683 80.0176 78.5456ZM39.9616 12.1923H39.4469C35.8642 12.1923 36.4949 15.7576 37.3082 16.567C37.6576 16.0736 38.1989 15.8696 38.7522 15.8696C39.3109 15.8696 39.8856 16.0763 40.3109 16.4176C40.5922 16.3603 40.8722 16.3363 41.1402 16.3363C42.9962 16.3363 44.3709 17.583 44.1829 19.0536C43.8309 19.0016 43.0656 18.8523 42.3616 18.8523C42.0909 18.8523 41.8296 18.875 41.6069 18.9336C40.0469 19.3216 40.4482 20.395 40.4482 20.395C40.4482 20.395 41.3736 19.979 42.2496 19.979C42.3469 19.979 42.4402 19.983 42.5349 19.9963C43.1736 20.0723 43.9109 20.2736 44.5242 20.2736C45.2602 20.2736 45.8229 19.987 45.8229 18.8523C45.8229 16.6416 42.9669 16.6283 41.5242 15.1763C40.9736 14.6243 40.7816 13.671 40.7162 12.991C40.3762 12.8136 40.0909 12.531 39.9616 12.1923ZM27.3616 85.0456C27.3362 85.6816 27.2802 86.1936 26.9709 86.763C27.1736 86.8043 27.3762 86.8243 27.5722 86.8243C28.5669 86.8243 29.3776 86.2443 29.3629 85.1776C29.1669 85.215 28.9202 85.2336 28.6589 85.2336C28.2269 85.2336 27.7496 85.1776 27.3616 85.0456ZM19.6149 89.4483C19.2256 89.659 18.6776 89.8003 18.1722 89.8003C17.9922 89.8003 17.8189 89.783 17.6589 89.743C17.7216 90.739 18.4736 91.251 19.3842 91.251C19.6362 91.251 19.8989 91.2176 20.1656 91.1363C19.8109 90.5976 19.6882 90.0896 19.6149 89.4483ZM12.1749 86.1336C11.9842 87.3256 12.9202 88.059 14.1042 88.059C14.1722 88.059 14.2429 88.055 14.3109 88.0483C14.0816 87.447 14.0789 86.9203 14.1456 86.2856C13.9136 86.347 13.6362 86.3803 13.3549 86.3803C12.9349 86.3803 12.5056 86.3043 12.1749 86.1336ZM10.4176 78.8656C9.42691 79.6723 9.72024 80.9296 10.7296 81.719C10.9669 81.115 11.3136 80.719 11.7856 80.295C11.2522 80.0243 10.6376 79.447 10.4176 78.8656ZM25.1989 79.6243C25.2362 79.7656 25.3229 79.9256 25.4616 80.071C25.4296 79.6616 25.5202 79.1603 25.9549 78.675C26.9056 77.631 31.4722 73.803 34.3229 71.367C34.2616 71.231 34.2069 71.0803 34.1536 70.9363C33.3376 71.6883 32.4189 71.9323 31.6216 72.031C29.1696 74.5563 26.5029 77.343 25.4789 78.5523C25.2616 78.8043 25.1322 79.3896 25.1989 79.6243ZM10.9456 77.9296C11.0082 77.9296 11.0736 77.9523 11.1269 78.007C11.3696 78.5896 11.7856 79.031 12.6762 79.0376C11.9349 78.7936 11.6296 78.455 11.6296 77.891C11.6296 76.887 12.3562 75.9363 13.5562 75.9363C14.8749 75.9363 15.4562 77.1656 15.4562 77.563C15.5736 77.5563 15.6976 77.5523 15.8189 77.5523C16.7522 77.5523 17.7802 77.715 18.5056 77.9456C18.6776 78.0043 20.1269 78.5563 21.1496 78.5563C21.4416 78.5563 21.7002 78.5123 21.8816 78.3963C22.0896 78.2683 22.2869 78.0816 22.3549 78.0043C22.6136 78.0816 22.8789 78.1256 23.1389 78.1256C23.7296 78.1256 24.3269 77.9123 24.8776 77.4483C24.4362 77.599 23.8909 77.707 23.3829 77.707C22.9189 77.707 22.4842 77.6176 22.1829 77.4003C22.7402 77.0896 23.5669 76.4096 24.1496 75.855C24.4562 75.919 24.7456 75.955 25.0162 75.955C25.6762 75.955 26.2162 75.7603 26.5922 75.299C26.2802 75.4203 25.7362 75.563 25.1842 75.563C24.8176 75.563 24.4456 75.499 24.1402 75.3363C24.6656 74.9416 25.5002 74.3016 26.0429 73.6043C26.3256 73.651 26.6269 73.6923 26.9282 73.6923C27.4576 73.6923 27.9869 73.5696 28.4016 73.1496C28.0469 73.2443 27.5842 73.343 27.1176 73.343C26.7362 73.343 26.3522 73.2776 26.0296 73.0816C26.4536 72.739 27.5082 71.8416 27.8376 71.427C28.0269 71.4643 28.2296 71.4856 28.4402 71.4856C28.9802 71.4856 29.5549 71.343 29.9962 70.9283C29.5842 71.0416 29.1656 71.123 28.7682 71.123C28.4016 71.123 28.0576 71.055 27.7576 70.8883C28.2669 70.455 28.9709 69.7363 29.7416 68.9563C30.0349 68.943 30.3362 68.923 30.6336 68.8843C30.4656 69.7563 30.3642 71.0243 30.9229 71.963C28.5549 74.4043 26.0589 77.0203 25.0576 78.1976C24.7336 78.5803 24.5536 79.3456 24.6682 79.7656C24.7976 80.2456 25.1776 80.699 25.7576 80.9016C25.9109 80.9536 26.0589 80.9736 26.1949 80.9736C26.9136 80.9736 27.4749 80.383 28.2669 80.383C28.2962 80.383 28.3309 80.387 28.3656 80.3896C30.2896 80.5123 30.5829 82.5256 30.0976 83.1603C29.6682 83.7256 29.0056 84.0483 28.2722 84.0483C28.4696 84.115 28.6736 84.143 28.8656 84.143C29.3682 84.143 29.8176 83.963 29.9402 83.8683C30.1829 83.9083 30.3176 84.519 29.7109 84.6576C29.3909 84.7323 29.0669 84.767 28.7669 84.767C28.1402 84.767 27.5856 84.631 27.2669 84.4683C26.6442 84.1563 26.2496 83.6043 26.1576 82.783C26.0242 82.8096 25.6149 82.8536 25.0829 82.8536C24.4482 82.8536 23.7082 82.8096 22.9376 82.6136C22.9762 82.3123 23.0469 81.987 23.2469 81.5963C22.3296 82.3163 22.2349 84.123 20.2976 85.9016C20.6176 86.671 20.8002 87.8856 19.8576 88.699C19.2229 89.251 18.4722 89.3643 17.9562 89.3643C17.7456 89.3643 17.5749 89.3456 17.4669 89.3283C16.8322 89.2336 16.9056 88.6723 17.0989 88.6376C17.3322 88.675 17.6429 88.7363 17.9509 88.7363C18.3189 88.7363 18.6789 88.6523 18.8989 88.3336C18.7336 88.3656 18.4882 88.415 18.2109 88.415C17.7722 88.415 17.2562 88.299 16.8496 87.835C16.1016 86.9803 16.4989 84.8043 18.4069 84.8043C18.5576 84.8043 18.7176 84.8203 18.8869 84.8443C19.9589 83.079 20.0922 82.1763 21.9216 80.319C21.4909 80.5123 20.7389 80.9803 20.3269 81.4603C19.9242 81.6816 19.4642 82.0536 19.1242 82.3603C17.8736 83.471 17.0442 83.7696 15.7429 83.855C15.7429 84.6483 15.1296 85.519 14.2856 85.8003C14.0096 85.891 13.7269 85.9336 13.4469 85.9336C12.9642 85.9336 12.4936 85.811 12.1269 85.6483C11.4669 85.3456 11.5909 84.787 11.8989 84.7763C12.2229 85.0456 12.6949 85.231 13.1616 85.231C13.4416 85.231 13.7216 85.163 13.9629 85.003C13.8309 85.0243 13.7016 85.031 13.5682 85.031C12.7802 85.031 12.0482 84.719 11.8736 84.1763C11.5989 83.3096 11.9842 82.4136 12.6922 81.9603C12.9856 81.7763 13.3416 81.6643 13.7216 81.6643C14.2336 81.6643 14.7816 81.875 15.2176 82.3936C15.9656 81.7763 16.4749 81.7696 17.2402 81.4483C18.1696 81.0616 19.3016 80.4043 19.9402 79.9696C19.0856 80.139 18.8056 80.2616 18.2629 80.451C16.7949 80.359 16.3322 79.8576 15.0576 79.211C14.7402 79.6136 14.0909 80.031 13.1109 80.031C12.8669 80.031 12.6002 80.0043 12.3136 79.947C11.5069 79.7843 11.0522 79.1083 10.6829 78.5456C10.4962 78.2683 10.7122 77.9296 10.9456 77.9296Z" fill="#FFCC00"/>
</g>
<path d="M105.285 68.0077H102.311V46.0352H105.285V68.0077Z" fill="#1D1D1B"/>
<path d="M110.744 68.0079V52.4753H112.369C112.758 52.4753 113.003 52.6644 113.105 53.0427L113.32 54.7293C113.995 53.9831 114.746 53.38 115.574 52.92C116.412 52.46 117.378 52.23 118.472 52.23C119.321 52.23 120.067 52.3731 120.711 52.6593C121.365 52.9353 121.907 53.334 122.336 53.8553C122.776 54.3664 123.108 54.9849 123.333 55.7106C123.558 56.4364 123.67 57.2388 123.67 58.118V68.0079H120.941V58.118C120.941 56.9424 120.67 56.0326 120.128 55.3886C119.597 54.7344 118.779 54.4073 117.675 54.4073C116.867 54.4073 116.111 54.6015 115.405 54.99C114.71 55.3784 114.066 55.9049 113.473 56.5693V68.0079H110.744Z" fill="#1D1D1B"/>
<path d="M128.408 68.0079V54.806L126.691 54.6067C126.476 54.5555 126.297 54.4789 126.154 54.3767C126.022 54.2642 125.955 54.1058 125.955 53.9013V52.782H128.408V51.2794C128.408 50.39 128.531 49.6029 128.776 48.918C129.032 48.2229 129.39 47.6403 129.85 47.17C130.32 46.6896 130.882 46.3267 131.536 46.0814C132.191 45.8361 132.927 45.7134 133.744 45.7134C134.439 45.7134 135.083 45.8156 135.676 46.0201L135.615 47.3847C135.605 47.5891 135.518 47.7118 135.354 47.7527C135.191 47.7936 134.961 47.814 134.664 47.814H134.189C133.719 47.814 133.29 47.8753 132.901 47.998C132.523 48.1207 132.196 48.32 131.92 48.596C131.644 48.872 131.429 49.2349 131.276 49.6847C131.133 50.1344 131.061 50.6915 131.061 51.356V52.782H135.554V54.76H131.153V68.0079L128.408 68.0079Z" fill="#1D1D1B"/>
<path d="M138.129 68.0078V52.4752H139.693C139.989 52.4752 140.194 52.5315 140.306 52.6439C140.419 52.7563 140.495 52.9506 140.536 53.2266L140.72 55.6492C141.252 54.5657 141.906 53.7223 142.683 53.1192C143.47 52.5059 144.39 52.1992 145.443 52.1992C145.872 52.1992 146.261 52.2503 146.608 52.3526C146.956 52.4446 147.278 52.5774 147.574 52.7512L147.222 54.7906C147.15 55.0461 146.992 55.1739 146.746 55.1739C146.603 55.1739 146.383 55.1279 146.087 55.0359C145.79 54.9337 145.376 54.8825 144.845 54.8825C143.894 54.8825 143.097 55.1585 142.453 55.7105C141.819 56.2625 141.288 57.065 140.858 58.1179V68.0078H138.129Z" fill="#1D1D1B"/>
<path d="M161.312 68.0078H160.101C159.835 68.0078 159.62 67.9669 159.457 67.8851C159.293 67.8034 159.186 67.6296 159.135 67.3638L158.828 65.9225C158.419 66.2905 158.021 66.6227 157.632 66.9191C157.244 67.2053 156.835 67.4507 156.405 67.6552C155.976 67.8494 155.516 67.9976 155.025 68.0998C154.545 68.202 154.008 68.2531 153.415 68.2531C152.812 68.2531 152.245 68.1714 151.714 68.0078C151.192 67.834 150.737 67.5785 150.349 67.2411C149.96 66.9038 149.649 66.4796 149.414 65.9685C149.189 65.4472 149.076 64.8338 149.076 64.1285C149.076 63.5151 149.245 62.9274 149.582 62.3652C149.92 61.7927 150.461 61.2867 151.208 60.8472C151.964 60.4076 152.95 60.0499 154.167 59.7739C155.383 59.4876 156.871 59.3241 158.629 59.2832V58.0718C158.629 56.8656 158.368 55.9559 157.847 55.3426C157.336 54.719 156.574 54.4072 155.562 54.4072C154.898 54.4072 154.335 54.4941 153.875 54.6679C153.426 54.8314 153.032 55.0205 152.695 55.2352C152.368 55.4396 152.082 55.6288 151.836 55.8026C151.601 55.9661 151.366 56.0479 151.131 56.0479C150.947 56.0479 150.783 56.0019 150.64 55.9099C150.507 55.8077 150.4 55.685 150.318 55.5419L149.828 54.6679C150.686 53.8399 151.611 53.2214 152.603 52.8126C153.594 52.4037 154.693 52.1992 155.899 52.1992C156.768 52.1992 157.54 52.3424 158.215 52.6286C158.889 52.9148 159.457 53.3134 159.917 53.8246C160.377 54.3357 160.724 54.9541 160.959 55.6799C161.195 56.4056 161.312 57.203 161.312 58.0718V68.0078ZM154.228 66.3365C154.709 66.3365 155.148 66.2905 155.547 66.1985C155.945 66.0963 156.319 65.9583 156.666 65.7845C157.024 65.6005 157.361 65.3807 157.678 65.1252C158.005 64.8696 158.322 64.5783 158.629 64.2512V61.0159C157.371 61.0567 156.303 61.1589 155.424 61.3225C154.545 61.4758 153.829 61.6803 153.277 61.9359C152.725 62.1914 152.322 62.493 152.066 62.8405C151.821 63.1881 151.698 63.5765 151.698 64.0059C151.698 64.4147 151.765 64.7674 151.897 65.0638C152.03 65.3603 152.209 65.6056 152.434 65.7998C152.659 65.9838 152.925 66.1218 153.232 66.2138C153.538 66.2956 153.87 66.3365 154.228 66.3365Z" fill="#1D1D1B"/>
<path d="M174.345 55.036C174.223 55.2609 174.034 55.3733 173.778 55.3733C173.625 55.3733 173.451 55.3171 173.257 55.2047C173.062 55.0922 172.822 54.9695 172.536 54.8366C172.26 54.6935 171.928 54.5657 171.539 54.4533C171.151 54.3306 170.691 54.2693 170.159 54.2693C169.699 54.2693 169.285 54.3306 168.917 54.4533C168.549 54.5657 168.233 54.7242 167.967 54.9286C167.711 55.1331 167.512 55.3733 167.369 55.6493C167.236 55.9151 167.169 56.2064 167.169 56.5233C167.169 56.922 167.282 57.2542 167.507 57.52C167.742 57.7858 168.048 58.0157 168.427 58.2099C168.805 58.4042 169.234 58.578 169.715 58.7313C170.195 58.8744 170.686 59.0329 171.187 59.2066C171.698 59.3702 172.194 59.5542 172.674 59.7586C173.154 59.9631 173.584 60.2186 173.962 60.5253C174.34 60.832 174.642 61.2102 174.867 61.6599C175.102 62.0995 175.219 62.6311 175.219 63.2546C175.219 63.9702 175.092 64.6346 174.836 65.2479C174.58 65.851 174.202 66.3775 173.701 66.8272C173.2 67.2668 172.587 67.6144 171.861 67.8699C171.136 68.1255 170.297 68.2532 169.347 68.2532C168.263 68.2532 167.282 68.0795 166.403 67.7319C165.524 67.3741 164.777 66.9192 164.164 66.3672L164.808 65.3246C164.89 65.1917 164.987 65.0895 165.099 65.0179C165.212 64.9464 165.36 64.9106 165.544 64.9106C165.728 64.9106 165.922 64.9822 166.127 65.1253C166.331 65.2684 166.577 65.4268 166.863 65.6006C167.159 65.7743 167.512 65.9328 167.921 66.0759C168.34 66.219 168.861 66.2906 169.485 66.2906C170.016 66.2906 170.481 66.2241 170.88 66.0912C171.279 65.9481 171.611 65.759 171.877 65.5239C172.142 65.2888 172.337 65.0179 172.459 64.7113C172.592 64.4046 172.659 64.0775 172.659 63.7299C172.659 63.3006 172.541 62.9479 172.306 62.6719C172.081 62.3857 171.78 62.1455 171.401 61.9513C171.023 61.7468 170.589 61.5731 170.098 61.43C169.618 61.2766 169.122 61.1182 168.611 60.9546C168.11 60.7911 167.614 60.6071 167.123 60.4026C166.643 60.188 166.214 59.9221 165.835 59.6053C165.457 59.2884 165.151 58.9 164.915 58.44C164.691 57.9698 164.578 57.4024 164.578 56.738C164.578 56.1451 164.701 55.5778 164.946 55.036C165.191 54.484 165.549 54.0036 166.019 53.5947C166.49 53.1756 167.067 52.8433 167.752 52.598C168.437 52.3527 169.219 52.23 170.098 52.23C171.12 52.23 172.035 52.3935 172.843 52.7206C173.66 53.0375 174.366 53.4771 174.959 54.0393L174.345 55.036Z" fill="#1D1D1B"/>
<path d="M183.471 68.2532C182.244 68.2532 181.298 67.9108 180.634 67.2259C179.98 66.541 179.653 65.5545 179.653 64.2665V54.7599H177.782C177.618 54.7599 177.48 54.7139 177.368 54.6219C177.255 54.5197 177.199 54.3664 177.199 54.162V53.0733L179.745 52.7513L180.373 47.952C180.394 47.7987 180.46 47.676 180.573 47.584C180.685 47.4818 180.828 47.4307 181.002 47.4307H182.382V52.782H186.829V54.7599H182.382V64.0826C182.382 64.7368 182.54 65.2224 182.857 65.5392C183.174 65.8561 183.583 66.0145 184.084 66.0145C184.37 66.0145 184.615 65.9788 184.82 65.9072C185.035 65.8254 185.219 65.7385 185.372 65.6465C185.525 65.5545 185.653 65.4728 185.755 65.4012C185.868 65.3195 185.965 65.2786 186.047 65.2786C186.19 65.2786 186.317 65.3655 186.43 65.5392L187.227 66.8425C186.757 67.2821 186.19 67.6296 185.525 67.8852C184.861 68.1305 184.176 68.2532 183.471 68.2532Z" fill="#1D1D1B"/>
<path d="M190.201 68.0078V52.4752H191.765C192.062 52.4752 192.266 52.5315 192.379 52.6439C192.491 52.7563 192.568 52.9506 192.608 53.2266L192.793 55.6492C193.324 54.5657 193.978 53.7223 194.755 53.1192C195.542 52.5059 196.462 52.1992 197.515 52.1992C197.944 52.1992 198.333 52.2503 198.68 52.3526C199.028 52.4446 199.35 52.5774 199.646 52.7512L199.294 54.7906C199.222 55.0461 199.064 55.1739 198.818 55.1739C198.675 55.1739 198.456 55.1279 198.159 55.0359C197.863 54.9337 197.449 54.8825 196.917 54.8825C195.966 54.8825 195.169 55.1585 194.525 55.7105C193.891 56.2625 193.36 57.065 192.931 58.1179V68.0078H190.201Z" fill="#1D1D1B"/>
<path d="M204.921 52.4751V62.3804C204.921 63.5559 205.192 64.4657 205.733 65.1097C206.275 65.7537 207.093 66.0757 208.187 66.0757C208.984 66.0757 209.735 65.8866 210.441 65.5084C211.146 65.1301 211.795 64.6037 212.388 63.9291V52.4751H215.117V68.0077H213.492C213.104 68.0077 212.858 67.8186 212.756 67.4404L212.541 65.769C211.867 66.5153 211.11 67.1184 210.272 67.5784C209.434 68.0281 208.473 68.253 207.389 68.253C206.541 68.253 205.79 68.1151 205.135 67.8391C204.491 67.5528 203.95 67.1541 203.51 66.643C203.07 66.1319 202.738 65.5135 202.513 64.7877C202.299 64.0619 202.191 63.2595 202.191 62.3804V52.4751H204.921Z" fill="#1D1D1B"/>
<path d="M222.446 45.4219V58.7158H223.151C223.356 58.7158 223.524 58.6902 223.657 58.6391C223.79 58.5778 223.938 58.4602 224.102 58.2864L229.008 53.0271C229.162 52.8636 229.315 52.7307 229.468 52.6285C229.622 52.5263 229.826 52.4751 230.082 52.4751H232.566L226.846 58.5624C226.703 58.7362 226.56 58.8896 226.417 59.0225C226.284 59.1553 226.131 59.2729 225.957 59.3751C226.141 59.4978 226.305 59.6409 226.448 59.8044C226.601 59.9578 226.744 60.1367 226.877 60.3411L232.949 68.0077H230.496C230.271 68.0077 230.077 67.9669 229.913 67.8851C229.76 67.7931 229.612 67.6551 229.468 67.4711L224.362 61.1078C224.209 60.8931 224.056 60.7551 223.902 60.6938C223.749 60.6222 223.519 60.5864 223.212 60.5864H222.446V68.0077H219.701V45.4219H222.446Z" fill="#1D1D1B"/>
<path d="M240.387 68.2532C239.16 68.2532 238.214 67.9108 237.55 67.2259C236.896 66.541 236.569 65.5545 236.569 64.2665V54.7599H234.698C234.534 54.7599 234.396 54.7139 234.284 54.6219C234.171 54.5197 234.115 54.3664 234.115 54.162V53.0733L236.661 52.7513L237.289 47.952C237.31 47.7987 237.376 47.676 237.489 47.584C237.601 47.4818 237.744 47.4307 237.918 47.4307H239.298V52.782H243.745V54.7599H239.298V64.0826C239.298 64.7368 239.456 65.2224 239.773 65.5392C240.09 65.8561 240.499 66.0145 241 66.0145C241.286 66.0145 241.531 65.9788 241.736 65.9072C241.951 65.8254 242.135 65.7385 242.288 65.6465C242.441 65.5545 242.569 65.4728 242.671 65.4012C242.784 65.3195 242.881 65.2786 242.963 65.2786C243.106 65.2786 243.233 65.3655 243.346 65.5392L244.143 66.8425C243.673 67.2821 243.106 67.6296 242.441 67.8852C241.777 68.1305 241.092 68.2532 240.387 68.2532Z" fill="#1D1D1B"/>
<path d="M249.479 52.4751V62.3804C249.479 63.5559 249.75 64.4657 250.292 65.1097C250.834 65.7537 251.652 66.0757 252.745 66.0757C253.543 66.0757 254.294 65.8866 254.999 65.5084C255.705 65.1301 256.354 64.6037 256.947 63.9291V52.4751H259.676V68.0077H258.051C257.662 68.0077 257.417 67.8186 257.315 67.4404L257.1 65.769C256.425 66.5153 255.669 67.1184 254.831 67.5784C253.992 68.0281 253.032 68.253 251.948 68.253C251.1 68.253 250.348 68.1151 249.694 67.8391C249.05 67.5528 248.508 67.1541 248.069 66.643C247.629 66.1319 247.297 65.5135 247.072 64.7877C246.857 64.0619 246.75 63.2595 246.75 62.3804V52.4751H249.479Z" fill="#1D1D1B"/>
<path d="M264.168 68.0078V52.4752H265.732C266.028 52.4752 266.233 52.5315 266.345 52.6439C266.458 52.7563 266.534 52.9506 266.575 53.2266L266.759 55.6492C267.291 54.5657 267.945 53.7223 268.722 53.1192C269.509 52.5059 270.429 52.1992 271.482 52.1992C271.911 52.1992 272.3 52.2503 272.647 52.3526C272.995 52.4446 273.317 52.5774 273.613 52.7512L273.261 54.7906C273.189 55.0461 273.031 55.1739 272.785 55.1739C272.642 55.1739 272.422 55.1279 272.126 55.0359C271.829 54.9337 271.415 54.8825 270.884 54.8825C269.933 54.8825 269.136 55.1585 268.492 55.7105C267.858 56.2625 267.327 57.065 266.897 58.1179V68.0078H264.168Z" fill="#1D1D1B"/>
<path d="M281.082 72.5923C280.99 72.7968 280.872 72.9603 280.729 73.083C280.596 73.2057 280.387 73.267 280.101 73.267H278.077L280.913 67.103L274.504 52.4751H276.865C277.1 52.4751 277.284 52.5365 277.417 52.6591C277.55 52.7716 277.647 52.8993 277.709 53.0424L281.864 62.8251C281.956 63.05 282.033 63.2748 282.094 63.4997C282.165 63.7246 282.227 63.9546 282.278 64.1897C282.349 63.9546 282.421 63.7246 282.493 63.4997C282.564 63.2748 282.646 63.0448 282.738 62.8097L286.771 53.0424C286.832 52.8789 286.934 52.746 287.077 52.6438C287.23 52.5313 287.394 52.4751 287.568 52.4751H289.745L281.082 72.5923Z" fill="#1D1D1B"/>
</g>
<defs>
<clipPath id="clip0_7322_16659">
<rect width="289.744" height="98.3987" fill="white"/>
</clipPath>
</defs>
</svg>
